%TF.GenerationSoftware,KiCad,Pcbnew,(5.1.7)-1*%
%TF.CreationDate,2021-03-16T10:20:49+01:00*%
%TF.ProjectId,BluePhil,426c7565-5068-4696-9c2e-6b696361645f,rev?*%
%TF.SameCoordinates,Original*%
%TF.FileFunction,Legend,Top*%
%TF.FilePolarity,Positive*%
%FSLAX46Y46*%
G04 Gerber Fmt 4.6, Leading zero omitted, Abs format (unit mm)*
G04 Created by KiCad (PCBNEW (5.1.7)-1) date 2021-03-16 10:20:49*
%MOMM*%
%LPD*%
G01*
G04 APERTURE LIST*
%ADD10C,0.150000*%
%ADD11C,0.120000*%
%ADD12C,0.100000*%
%ADD13C,0.010000*%
G04 APERTURE END LIST*
D10*
X125069047Y-100221428D02*
X125830952Y-100221428D01*
X125450000Y-100602380D02*
X125450000Y-99840476D01*
X124623809Y-85454761D02*
X124766666Y-85502380D01*
X125004761Y-85502380D01*
X125100000Y-85454761D01*
X125147619Y-85407142D01*
X125195238Y-85311904D01*
X125195238Y-85216666D01*
X125147619Y-85121428D01*
X125100000Y-85073809D01*
X125004761Y-85026190D01*
X124814285Y-84978571D01*
X124719047Y-84930952D01*
X124671428Y-84883333D01*
X124623809Y-84788095D01*
X124623809Y-84692857D01*
X124671428Y-84597619D01*
X124719047Y-84550000D01*
X124814285Y-84502380D01*
X125052380Y-84502380D01*
X125195238Y-84550000D01*
X125480952Y-84502380D02*
X126052380Y-84502380D01*
X125766666Y-85502380D02*
X125766666Y-84502380D01*
X126338095Y-85216666D02*
X126814285Y-85216666D01*
X126242857Y-85502380D02*
X126576190Y-84502380D01*
X126909523Y-85502380D01*
X127100000Y-84502380D02*
X127671428Y-84502380D01*
X127385714Y-85502380D02*
X127385714Y-84502380D01*
X121830952Y-98002380D02*
X122021428Y-98002380D01*
X122116666Y-98050000D01*
X122211904Y-98145238D01*
X122259523Y-98335714D01*
X122259523Y-98669047D01*
X122211904Y-98859523D01*
X122116666Y-98954761D01*
X122021428Y-99002380D01*
X121830952Y-99002380D01*
X121735714Y-98954761D01*
X121640476Y-98859523D01*
X121592857Y-98669047D01*
X121592857Y-98335714D01*
X121640476Y-98145238D01*
X121735714Y-98050000D01*
X121830952Y-98002380D01*
X122688095Y-99002380D02*
X122688095Y-98002380D01*
X123259523Y-99002380D01*
X123259523Y-98002380D01*
X137202380Y-104333333D02*
X138202380Y-104000000D01*
X137202380Y-103666666D01*
X137202380Y-103142857D02*
X137202380Y-103047619D01*
X137250000Y-102952380D01*
X137297619Y-102904761D01*
X137392857Y-102857142D01*
X137583333Y-102809523D01*
X137821428Y-102809523D01*
X138011904Y-102857142D01*
X138107142Y-102904761D01*
X138154761Y-102952380D01*
X138202380Y-103047619D01*
X138202380Y-103142857D01*
X138154761Y-103238095D01*
X138107142Y-103285714D01*
X138011904Y-103333333D01*
X137821428Y-103380952D01*
X137583333Y-103380952D01*
X137392857Y-103333333D01*
X137297619Y-103285714D01*
X137250000Y-103238095D01*
X137202380Y-103142857D01*
X138107142Y-102380952D02*
X138154761Y-102333333D01*
X138202380Y-102380952D01*
X138154761Y-102428571D01*
X138107142Y-102380952D01*
X138202380Y-102380952D01*
X138202380Y-101380952D02*
X138202380Y-101952380D01*
X138202380Y-101666666D02*
X137202380Y-101666666D01*
X137345238Y-101761904D01*
X137440476Y-101857142D01*
X137488095Y-101952380D01*
X137202380Y-100000000D02*
X137202380Y-99904761D01*
X137250000Y-99809523D01*
X137297619Y-99761904D01*
X137392857Y-99714285D01*
X137583333Y-99666666D01*
X137821428Y-99666666D01*
X138011904Y-99714285D01*
X138107142Y-99761904D01*
X138154761Y-99809523D01*
X138202380Y-99904761D01*
X138202380Y-100000000D01*
X138154761Y-100095238D01*
X138107142Y-100142857D01*
X138011904Y-100190476D01*
X137821428Y-100238095D01*
X137583333Y-100238095D01*
X137392857Y-100190476D01*
X137297619Y-100142857D01*
X137250000Y-100095238D01*
X137202380Y-100000000D01*
X137202380Y-99333333D02*
X137202380Y-98714285D01*
X137583333Y-99047619D01*
X137583333Y-98904761D01*
X137630952Y-98809523D01*
X137678571Y-98761904D01*
X137773809Y-98714285D01*
X138011904Y-98714285D01*
X138107142Y-98761904D01*
X138154761Y-98809523D01*
X138202380Y-98904761D01*
X138202380Y-99190476D01*
X138154761Y-99285714D01*
X138107142Y-99333333D01*
X137154761Y-97571428D02*
X138440476Y-98428571D01*
X137297619Y-97285714D02*
X137250000Y-97238095D01*
X137202380Y-97142857D01*
X137202380Y-96904761D01*
X137250000Y-96809523D01*
X137297619Y-96761904D01*
X137392857Y-96714285D01*
X137488095Y-96714285D01*
X137630952Y-96761904D01*
X138202380Y-97333333D01*
X138202380Y-96714285D01*
X138202380Y-95761904D02*
X138202380Y-96333333D01*
X138202380Y-96047619D02*
X137202380Y-96047619D01*
X137345238Y-96142857D01*
X137440476Y-96238095D01*
X137488095Y-96333333D01*
X92267872Y-98929761D02*
X92440491Y-98977380D01*
X92738110Y-98977380D01*
X92863110Y-98929761D01*
X92928586Y-98882142D01*
X93000014Y-98786904D01*
X93011919Y-98691666D01*
X92964300Y-98596428D01*
X92910729Y-98548809D01*
X92797633Y-98501190D01*
X92565491Y-98453571D01*
X92452395Y-98405952D01*
X92398824Y-98358333D01*
X92351205Y-98263095D01*
X92363110Y-98167857D01*
X92434538Y-98072619D01*
X92500014Y-98025000D01*
X92625014Y-97977380D01*
X92922633Y-97977380D01*
X93095252Y-98025000D01*
X93458348Y-97977380D02*
X94172633Y-97977380D01*
X93690491Y-98977380D02*
X93815491Y-97977380D01*
X94464300Y-98977380D02*
X94589300Y-97977380D01*
X94916681Y-98691666D01*
X95422633Y-97977380D01*
X95297633Y-98977380D01*
X95898824Y-97977380D02*
X96672633Y-97977380D01*
X96208348Y-98358333D01*
X96386919Y-98358333D01*
X96500014Y-98405952D01*
X96553586Y-98453571D01*
X96601205Y-98548809D01*
X96571443Y-98786904D01*
X96500014Y-98882142D01*
X96434538Y-98929761D01*
X96309538Y-98977380D01*
X95952395Y-98977380D01*
X95839300Y-98929761D01*
X95785729Y-98882142D01*
X97136919Y-98072619D02*
X97202395Y-98025000D01*
X97327395Y-97977380D01*
X97625014Y-97977380D01*
X97738110Y-98025000D01*
X97791681Y-98072619D01*
X97839300Y-98167857D01*
X97827395Y-98263095D01*
X97750014Y-98405952D01*
X96964300Y-98977380D01*
X97738110Y-98977380D01*
X90869062Y-100103571D02*
X91041681Y-100151190D01*
X91095252Y-100198809D01*
X91142872Y-100294047D01*
X91125014Y-100436904D01*
X91053586Y-100532142D01*
X90988110Y-100579761D01*
X90863110Y-100627380D01*
X90386919Y-100627380D01*
X90511919Y-99627380D01*
X90928586Y-99627380D01*
X91041681Y-99675000D01*
X91095252Y-99722619D01*
X91142872Y-99817857D01*
X91130967Y-99913095D01*
X91059538Y-100008333D01*
X90994062Y-100055952D01*
X90869062Y-100103571D01*
X90452395Y-100103571D01*
X92232157Y-100627380D02*
X91636919Y-100627380D01*
X91761919Y-99627380D01*
X92773824Y-99627380D02*
X92672633Y-100436904D01*
X92720252Y-100532142D01*
X92773824Y-100579761D01*
X92886919Y-100627380D01*
X93125014Y-100627380D01*
X93250014Y-100579761D01*
X93315491Y-100532142D01*
X93386919Y-100436904D01*
X93488110Y-99627380D01*
X94023824Y-100103571D02*
X94440491Y-100103571D01*
X94553586Y-100627380D02*
X93958348Y-100627380D01*
X94083348Y-99627380D01*
X94678586Y-99627380D01*
X96041681Y-100627380D02*
X96166681Y-99627380D01*
X96642872Y-99627380D01*
X96755967Y-99675000D01*
X96809538Y-99722619D01*
X96857157Y-99817857D01*
X96839300Y-99960714D01*
X96767872Y-100055952D01*
X96702395Y-100103571D01*
X96577395Y-100151190D01*
X96101205Y-100151190D01*
X97291681Y-100627380D02*
X97416681Y-99627380D01*
X97357157Y-100103571D02*
X98071443Y-100103571D01*
X98005967Y-100627380D02*
X98130967Y-99627380D01*
X98601205Y-100627380D02*
X98726205Y-99627380D01*
X99791681Y-100627380D02*
X99196443Y-100627380D01*
X99321443Y-99627380D01*
X90719047Y-71271428D02*
X91480952Y-71271428D01*
X91100000Y-71652380D02*
X91100000Y-70890476D01*
X93119047Y-61171428D02*
X93880952Y-61171428D01*
X120619047Y-85821428D02*
X121380952Y-85821428D01*
X121000000Y-86202380D02*
X121000000Y-85440476D01*
X127219047Y-91421428D02*
X127980952Y-91421428D01*
X127600000Y-91802380D02*
X127600000Y-91040476D01*
X130819047Y-94871428D02*
X131580952Y-94871428D01*
X131200000Y-95252380D02*
X131200000Y-94490476D01*
D11*
X113441421Y-95150000D02*
G75*
G03*
X113441421Y-95150000I-141421J0D01*
G01*
X113350000Y-95150000D02*
G75*
G03*
X113350000Y-95150000I-50000J0D01*
G01*
X103891421Y-66900000D02*
G75*
G03*
X103891421Y-66900000I-141421J0D01*
G01*
X103800000Y-66900000D02*
G75*
G03*
X103800000Y-66900000I-50000J0D01*
G01*
X107091421Y-76750000D02*
G75*
G03*
X107091421Y-76750000I-141421J0D01*
G01*
X107000000Y-76750000D02*
G75*
G03*
X107000000Y-76750000I-50000J0D01*
G01*
X110591421Y-92550000D02*
G75*
G03*
X110591421Y-92550000I-141421J0D01*
G01*
X110500000Y-92550000D02*
G75*
G03*
X110500000Y-92550000I-50000J0D01*
G01*
X116941421Y-104500000D02*
G75*
G03*
X116941421Y-104500000I-141421J0D01*
G01*
X116850000Y-104500000D02*
G75*
G03*
X116850000Y-104500000I-50000J0D01*
G01*
X132191421Y-99200000D02*
G75*
G03*
X132191421Y-99200000I-141421J0D01*
G01*
X132100000Y-99200000D02*
G75*
G03*
X132100000Y-99200000I-50000J0D01*
G01*
X128591421Y-89200000D02*
G75*
G03*
X128591421Y-89200000I-141421J0D01*
G01*
X128500000Y-89200000D02*
G75*
G03*
X128500000Y-89200000I-50000J0D01*
G01*
X133191421Y-81350000D02*
G75*
G03*
X133191421Y-81350000I-141421J0D01*
G01*
X133100000Y-81350000D02*
G75*
G03*
X133100000Y-81350000I-50000J0D01*
G01*
X131641421Y-81300000D02*
G75*
G03*
X131641421Y-81300000I-141421J0D01*
G01*
X131550000Y-81300000D02*
G75*
G03*
X131550000Y-81300000I-50000J0D01*
G01*
X117341421Y-56850000D02*
G75*
G03*
X117341421Y-56850000I-141421J0D01*
G01*
X117250000Y-56850000D02*
G75*
G03*
X117250000Y-56850000I-50000J0D01*
G01*
D12*
G36*
X136632843Y-69517157D02*
G01*
X136491422Y-69658578D01*
X136880330Y-70047487D01*
X136738909Y-70188908D01*
X136350000Y-69800000D01*
X136208579Y-69941421D01*
X136102513Y-69411091D01*
X136632843Y-69517157D01*
G37*
X136632843Y-69517157D02*
X136491422Y-69658578D01*
X136880330Y-70047487D01*
X136738909Y-70188908D01*
X136350000Y-69800000D01*
X136208579Y-69941421D01*
X136102513Y-69411091D01*
X136632843Y-69517157D01*
D10*
X109280952Y-51852380D02*
X109280952Y-52566666D01*
X109233333Y-52709523D01*
X109138095Y-52804761D01*
X108995238Y-52852380D01*
X108900000Y-52852380D01*
X110233333Y-52852380D02*
X109757142Y-52852380D01*
X109757142Y-51852380D01*
X111138095Y-52757142D02*
X111090476Y-52804761D01*
X110947619Y-52852380D01*
X110852380Y-52852380D01*
X110709523Y-52804761D01*
X110614285Y-52709523D01*
X110566666Y-52614285D01*
X110519047Y-52423809D01*
X110519047Y-52280952D01*
X110566666Y-52090476D01*
X110614285Y-51995238D01*
X110709523Y-51900000D01*
X110852380Y-51852380D01*
X110947619Y-51852380D01*
X111090476Y-51900000D01*
X111138095Y-51947619D01*
X111852380Y-51852380D02*
X111852380Y-52566666D01*
X111804761Y-52709523D01*
X111709523Y-52804761D01*
X111566666Y-52852380D01*
X111471428Y-52852380D01*
X112804761Y-52852380D02*
X112328571Y-52852380D01*
X112328571Y-51852380D01*
X113709523Y-52757142D02*
X113661904Y-52804761D01*
X113519047Y-52852380D01*
X113423809Y-52852380D01*
X113280952Y-52804761D01*
X113185714Y-52709523D01*
X113138095Y-52614285D01*
X113090476Y-52423809D01*
X113090476Y-52280952D01*
X113138095Y-52090476D01*
X113185714Y-51995238D01*
X113280952Y-51900000D01*
X113423809Y-51852380D01*
X113519047Y-51852380D01*
X113661904Y-51900000D01*
X113709523Y-51947619D01*
X114423809Y-51852380D02*
X114423809Y-52566666D01*
X114376190Y-52709523D01*
X114280952Y-52804761D01*
X114138095Y-52852380D01*
X114042857Y-52852380D01*
X115376190Y-52852380D02*
X114900000Y-52852380D01*
X114900000Y-51852380D01*
X116280952Y-52757142D02*
X116233333Y-52804761D01*
X116090476Y-52852380D01*
X115995238Y-52852380D01*
X115852380Y-52804761D01*
X115757142Y-52709523D01*
X115709523Y-52614285D01*
X115661904Y-52423809D01*
X115661904Y-52280952D01*
X115709523Y-52090476D01*
X115757142Y-51995238D01*
X115852380Y-51900000D01*
X115995238Y-51852380D01*
X116090476Y-51852380D01*
X116233333Y-51900000D01*
X116280952Y-51947619D01*
X116995238Y-51852380D02*
X116995238Y-52566666D01*
X116947619Y-52709523D01*
X116852380Y-52804761D01*
X116709523Y-52852380D01*
X116614285Y-52852380D01*
X117947619Y-52852380D02*
X117471428Y-52852380D01*
X117471428Y-51852380D01*
X118852380Y-52757142D02*
X118804761Y-52804761D01*
X118661904Y-52852380D01*
X118566666Y-52852380D01*
X118423809Y-52804761D01*
X118328571Y-52709523D01*
X118280952Y-52614285D01*
X118233333Y-52423809D01*
X118233333Y-52280952D01*
X118280952Y-52090476D01*
X118328571Y-51995238D01*
X118423809Y-51900000D01*
X118566666Y-51852380D01*
X118661904Y-51852380D01*
X118804761Y-51900000D01*
X118852380Y-51947619D01*
X122614285Y-48704761D02*
X122757142Y-48752380D01*
X122995238Y-48752380D01*
X123090476Y-48704761D01*
X123138095Y-48657142D01*
X123185714Y-48561904D01*
X123185714Y-48466666D01*
X123138095Y-48371428D01*
X123090476Y-48323809D01*
X122995238Y-48276190D01*
X122804761Y-48228571D01*
X122709523Y-48180952D01*
X122661904Y-48133333D01*
X122614285Y-48038095D01*
X122614285Y-47942857D01*
X122661904Y-47847619D01*
X122709523Y-47800000D01*
X122804761Y-47752380D01*
X123042857Y-47752380D01*
X123185714Y-47800000D01*
X123614285Y-48752380D02*
X123614285Y-47752380D01*
X123852380Y-47752380D01*
X123995238Y-47800000D01*
X124090476Y-47895238D01*
X124138095Y-47990476D01*
X124185714Y-48180952D01*
X124185714Y-48323809D01*
X124138095Y-48514285D01*
X124090476Y-48609523D01*
X123995238Y-48704761D01*
X123852380Y-48752380D01*
X123614285Y-48752380D01*
X90457142Y-58757142D02*
X90409523Y-58804761D01*
X90266666Y-58852380D01*
X90171428Y-58852380D01*
X90028571Y-58804761D01*
X89933333Y-58709523D01*
X89885714Y-58614285D01*
X89838095Y-58423809D01*
X89838095Y-58280952D01*
X89885714Y-58090476D01*
X89933333Y-57995238D01*
X90028571Y-57900000D01*
X90171428Y-57852380D01*
X90266666Y-57852380D01*
X90409523Y-57900000D01*
X90457142Y-57947619D01*
X90838095Y-58566666D02*
X91314285Y-58566666D01*
X90742857Y-58852380D02*
X91076190Y-57852380D01*
X91409523Y-58852380D01*
X91742857Y-58852380D02*
X91742857Y-57852380D01*
X92314285Y-58852380D01*
X92314285Y-57852380D01*
X132392857Y-61154761D02*
X132535714Y-61202380D01*
X132773809Y-61202380D01*
X132869047Y-61154761D01*
X132916666Y-61107142D01*
X132964285Y-61011904D01*
X132964285Y-60916666D01*
X132916666Y-60821428D01*
X132869047Y-60773809D01*
X132773809Y-60726190D01*
X132583333Y-60678571D01*
X132488095Y-60630952D01*
X132440476Y-60583333D01*
X132392857Y-60488095D01*
X132392857Y-60392857D01*
X132440476Y-60297619D01*
X132488095Y-60250000D01*
X132583333Y-60202380D01*
X132821428Y-60202380D01*
X132964285Y-60250000D01*
X133297619Y-60202380D02*
X133535714Y-61202380D01*
X133726190Y-60488095D01*
X133916666Y-61202380D01*
X134154761Y-60202380D01*
X134535714Y-61202380D02*
X134535714Y-60202380D01*
X134773809Y-60202380D01*
X134916666Y-60250000D01*
X135011904Y-60345238D01*
X135059523Y-60440476D01*
X135107142Y-60630952D01*
X135107142Y-60773809D01*
X135059523Y-60964285D01*
X135011904Y-61059523D01*
X134916666Y-61154761D01*
X134773809Y-61202380D01*
X134535714Y-61202380D01*
X135238095Y-73452380D02*
X135238095Y-74261904D01*
X135285714Y-74357142D01*
X135333333Y-74404761D01*
X135428571Y-74452380D01*
X135619047Y-74452380D01*
X135714285Y-74404761D01*
X135761904Y-74357142D01*
X135809523Y-74261904D01*
X135809523Y-73452380D01*
X136238095Y-74404761D02*
X136380952Y-74452380D01*
X136619047Y-74452380D01*
X136714285Y-74404761D01*
X136761904Y-74357142D01*
X136809523Y-74261904D01*
X136809523Y-74166666D01*
X136761904Y-74071428D01*
X136714285Y-74023809D01*
X136619047Y-73976190D01*
X136428571Y-73928571D01*
X136333333Y-73880952D01*
X136285714Y-73833333D01*
X136238095Y-73738095D01*
X136238095Y-73642857D01*
X136285714Y-73547619D01*
X136333333Y-73500000D01*
X136428571Y-73452380D01*
X136666666Y-73452380D01*
X136809523Y-73500000D01*
X137571428Y-73928571D02*
X137714285Y-73976190D01*
X137761904Y-74023809D01*
X137809523Y-74119047D01*
X137809523Y-74261904D01*
X137761904Y-74357142D01*
X137714285Y-74404761D01*
X137619047Y-74452380D01*
X137238095Y-74452380D01*
X137238095Y-73452380D01*
X137571428Y-73452380D01*
X137666666Y-73500000D01*
X137714285Y-73547619D01*
X137761904Y-73642857D01*
X137761904Y-73738095D01*
X137714285Y-73833333D01*
X137666666Y-73880952D01*
X137571428Y-73928571D01*
X137238095Y-73928571D01*
X106859404Y-109175000D02*
X106764166Y-109127380D01*
X106621309Y-109127380D01*
X106478452Y-109175000D01*
X106383214Y-109270238D01*
X106335595Y-109365476D01*
X106287976Y-109555952D01*
X106287976Y-109698809D01*
X106335595Y-109889285D01*
X106383214Y-109984523D01*
X106478452Y-110079761D01*
X106621309Y-110127380D01*
X106716547Y-110127380D01*
X106859404Y-110079761D01*
X106907023Y-110032142D01*
X106907023Y-109698809D01*
X106716547Y-109698809D01*
X107335595Y-110127380D02*
X107335595Y-109127380D01*
X107716547Y-109127380D01*
X107811785Y-109175000D01*
X107859404Y-109222619D01*
X107907023Y-109317857D01*
X107907023Y-109460714D01*
X107859404Y-109555952D01*
X107811785Y-109603571D01*
X107716547Y-109651190D01*
X107335595Y-109651190D01*
X108287976Y-110079761D02*
X108430833Y-110127380D01*
X108668928Y-110127380D01*
X108764166Y-110079761D01*
X108811785Y-110032142D01*
X108859404Y-109936904D01*
X108859404Y-109841666D01*
X108811785Y-109746428D01*
X108764166Y-109698809D01*
X108668928Y-109651190D01*
X108478452Y-109603571D01*
X108383214Y-109555952D01*
X108335595Y-109508333D01*
X108287976Y-109413095D01*
X108287976Y-109317857D01*
X108335595Y-109222619D01*
X108383214Y-109175000D01*
X108478452Y-109127380D01*
X108716547Y-109127380D01*
X108859404Y-109175000D01*
X106287976Y-111491666D02*
X106764166Y-111491666D01*
X106192738Y-111777380D02*
X106526071Y-110777380D01*
X106859404Y-111777380D01*
X107764166Y-111682142D02*
X107716547Y-111729761D01*
X107573690Y-111777380D01*
X107478452Y-111777380D01*
X107335595Y-111729761D01*
X107240357Y-111634523D01*
X107192738Y-111539285D01*
X107145119Y-111348809D01*
X107145119Y-111205952D01*
X107192738Y-111015476D01*
X107240357Y-110920238D01*
X107335595Y-110825000D01*
X107478452Y-110777380D01*
X107573690Y-110777380D01*
X107716547Y-110825000D01*
X107764166Y-110872619D01*
X108049880Y-110777380D02*
X108621309Y-110777380D01*
X108335595Y-111777380D02*
X108335595Y-110777380D01*
X91168928Y-85928571D02*
X91311785Y-85976190D01*
X91359404Y-86023809D01*
X91407023Y-86119047D01*
X91407023Y-86261904D01*
X91359404Y-86357142D01*
X91311785Y-86404761D01*
X91216547Y-86452380D01*
X90835595Y-86452380D01*
X90835595Y-85452380D01*
X91168928Y-85452380D01*
X91264166Y-85500000D01*
X91311785Y-85547619D01*
X91359404Y-85642857D01*
X91359404Y-85738095D01*
X91311785Y-85833333D01*
X91264166Y-85880952D01*
X91168928Y-85928571D01*
X90835595Y-85928571D01*
X92026071Y-85452380D02*
X92216547Y-85452380D01*
X92311785Y-85500000D01*
X92407023Y-85595238D01*
X92454642Y-85785714D01*
X92454642Y-86119047D01*
X92407023Y-86309523D01*
X92311785Y-86404761D01*
X92216547Y-86452380D01*
X92026071Y-86452380D01*
X91930833Y-86404761D01*
X91835595Y-86309523D01*
X91787976Y-86119047D01*
X91787976Y-85785714D01*
X91835595Y-85595238D01*
X91930833Y-85500000D01*
X92026071Y-85452380D01*
X93073690Y-85452380D02*
X93264166Y-85452380D01*
X93359404Y-85500000D01*
X93454642Y-85595238D01*
X93502261Y-85785714D01*
X93502261Y-86119047D01*
X93454642Y-86309523D01*
X93359404Y-86404761D01*
X93264166Y-86452380D01*
X93073690Y-86452380D01*
X92978452Y-86404761D01*
X92883214Y-86309523D01*
X92835595Y-86119047D01*
X92835595Y-85785714D01*
X92883214Y-85595238D01*
X92978452Y-85500000D01*
X93073690Y-85452380D01*
X93787976Y-85452380D02*
X94359404Y-85452380D01*
X94073690Y-86452380D02*
X94073690Y-85452380D01*
X91407023Y-75952380D02*
X91073690Y-75476190D01*
X90835595Y-75952380D02*
X90835595Y-74952380D01*
X91216547Y-74952380D01*
X91311785Y-75000000D01*
X91359404Y-75047619D01*
X91407023Y-75142857D01*
X91407023Y-75285714D01*
X91359404Y-75380952D01*
X91311785Y-75428571D01*
X91216547Y-75476190D01*
X90835595Y-75476190D01*
X91835595Y-74952380D02*
X91835595Y-75761904D01*
X91883214Y-75857142D01*
X91930833Y-75904761D01*
X92026071Y-75952380D01*
X92216547Y-75952380D01*
X92311785Y-75904761D01*
X92359404Y-75857142D01*
X92407023Y-75761904D01*
X92407023Y-74952380D01*
X92883214Y-75952380D02*
X92883214Y-74952380D01*
X93454642Y-75952380D01*
X93454642Y-74952380D01*
D13*
%TO.C,G\u002A\u002A\u002A*%
G36*
X95628963Y-90188059D02*
G01*
X95630591Y-90412964D01*
X96117383Y-90416208D01*
X96117383Y-89963379D01*
X96415039Y-89963379D01*
X96415039Y-90416208D01*
X96901831Y-90412964D01*
X96903459Y-90188171D01*
X96905086Y-89963379D01*
X97202588Y-89963379D01*
X97202588Y-90416064D01*
X97673877Y-90416064D01*
X97673877Y-89963379D01*
X97983781Y-89963379D01*
X97985408Y-90188171D01*
X97987036Y-90412964D01*
X98473828Y-90416208D01*
X98473828Y-90769531D01*
X98876904Y-90769531D01*
X98876904Y-91067188D01*
X98473828Y-91067188D01*
X98473828Y-91557080D01*
X98876904Y-91557080D01*
X98876904Y-91854736D01*
X98473828Y-91854736D01*
X98473828Y-92338428D01*
X98876904Y-92338428D01*
X98876904Y-92636084D01*
X98473828Y-92636084D01*
X98473828Y-93125977D01*
X98876904Y-93125977D01*
X98876904Y-93423633D01*
X98473828Y-93423633D01*
X98473828Y-93913525D01*
X98877129Y-93913525D01*
X98875466Y-94060803D01*
X98873804Y-94208081D01*
X98473828Y-94211353D01*
X98473828Y-94701074D01*
X98877129Y-94701074D01*
X98875466Y-94848352D01*
X98873804Y-94995630D01*
X98473828Y-94998902D01*
X98473828Y-95482422D01*
X98876904Y-95482422D01*
X98876904Y-95780078D01*
X98473828Y-95780078D01*
X98473828Y-96139746D01*
X97983936Y-96139746D01*
X97983936Y-96592432D01*
X97673877Y-96592432D01*
X97673877Y-96139746D01*
X97202588Y-96139746D01*
X97202588Y-96592432D01*
X96904932Y-96592432D01*
X96904932Y-96139746D01*
X96415039Y-96139746D01*
X96415039Y-96592432D01*
X96117383Y-96592432D01*
X96117383Y-96139746D01*
X95627490Y-96139746D01*
X95627490Y-96592432D01*
X95482426Y-96592432D01*
X95435983Y-96592356D01*
X95400449Y-96592059D01*
X95374331Y-96591437D01*
X95356136Y-96590386D01*
X95344371Y-96588801D01*
X95337544Y-96586579D01*
X95334160Y-96583616D01*
X95333374Y-96582039D01*
X95332422Y-96573497D01*
X95331580Y-96554108D01*
X95330873Y-96525430D01*
X95330327Y-96489017D01*
X95329968Y-96446427D01*
X95329822Y-96399215D01*
X95329846Y-96369649D01*
X95329951Y-96320228D01*
X95330032Y-96274328D01*
X95330090Y-96233540D01*
X95330121Y-96199455D01*
X95330125Y-96173667D01*
X95330099Y-96157765D01*
X95330070Y-96153699D01*
X95329834Y-96139746D01*
X94846143Y-96139746D01*
X94846143Y-96592432D01*
X94548486Y-96592432D01*
X94548486Y-96139746D01*
X94058594Y-96139746D01*
X94058594Y-96592432D01*
X93760938Y-96592432D01*
X93760938Y-96139746D01*
X93270518Y-96139746D01*
X93272332Y-96366092D01*
X93274146Y-96592439D01*
X93123828Y-96592435D01*
X92973510Y-96592432D01*
X92973855Y-96367639D01*
X92974201Y-96142847D01*
X92729650Y-96141226D01*
X92668079Y-96140845D01*
X92617777Y-96140627D01*
X92577612Y-96140614D01*
X92546452Y-96140851D01*
X92523163Y-96141379D01*
X92506614Y-96142242D01*
X92495673Y-96143484D01*
X92489206Y-96145146D01*
X92486081Y-96147273D01*
X92485166Y-96149907D01*
X92485148Y-96150528D01*
X92485136Y-96159124D01*
X92485078Y-96178618D01*
X92484982Y-96207503D01*
X92484851Y-96244276D01*
X92484691Y-96287431D01*
X92484508Y-96335462D01*
X92484346Y-96376941D01*
X92483496Y-96592432D01*
X92338802Y-96592432D01*
X92297635Y-96592262D01*
X92260669Y-96591785D01*
X92229690Y-96591050D01*
X92206482Y-96590108D01*
X92192830Y-96589007D01*
X92189974Y-96588298D01*
X92189021Y-96581351D01*
X92188146Y-96563423D01*
X92187374Y-96535936D01*
X92186732Y-96500311D01*
X92186245Y-96457970D01*
X92185939Y-96410335D01*
X92185840Y-96361955D01*
X92185840Y-96139746D01*
X91739546Y-96139746D01*
X91737900Y-95961462D01*
X91736255Y-95783179D01*
X91511462Y-95781551D01*
X91286670Y-95779923D01*
X91286670Y-95482577D01*
X91511462Y-95480949D01*
X91736255Y-95479321D01*
X91737878Y-95239026D01*
X91738914Y-95085547D01*
X95384659Y-95085547D01*
X95732348Y-95085547D01*
X95735789Y-95065393D01*
X95737639Y-95053686D01*
X95740977Y-95031688D01*
X95745508Y-95001383D01*
X95750935Y-94964754D01*
X95756963Y-94923784D01*
X95760970Y-94896411D01*
X95767246Y-94853489D01*
X95773113Y-94813440D01*
X95778274Y-94778297D01*
X95782428Y-94750094D01*
X95785278Y-94730865D01*
X95786260Y-94724329D01*
X95789811Y-94701074D01*
X96090877Y-94701074D01*
X96098048Y-94746033D01*
X96103109Y-94779574D01*
X96107439Y-94811682D01*
X96110634Y-94839086D01*
X96112289Y-94858515D01*
X96112425Y-94862305D01*
X96113394Y-94872142D01*
X96115924Y-94891410D01*
X96119625Y-94917545D01*
X96124107Y-94947986D01*
X96128979Y-94980170D01*
X96133851Y-95011535D01*
X96138333Y-95039519D01*
X96142035Y-95061559D01*
X96144566Y-95075094D01*
X96145243Y-95077795D01*
X96148941Y-95080157D01*
X96158876Y-95082026D01*
X96176107Y-95083446D01*
X96201695Y-95084463D01*
X96236700Y-95085121D01*
X96282182Y-95085466D01*
X96327662Y-95085547D01*
X96373597Y-95085392D01*
X96415388Y-95084956D01*
X96451458Y-95084278D01*
X96480233Y-95083398D01*
X96500139Y-95082356D01*
X96509600Y-95081193D01*
X96510145Y-95080896D01*
X96509876Y-95073828D01*
X96507749Y-95056085D01*
X96503992Y-95029220D01*
X96498833Y-94994783D01*
X96492500Y-94954327D01*
X96485221Y-94909402D01*
X96482716Y-94894256D01*
X96473025Y-94835411D01*
X96462179Y-94768631D01*
X96450869Y-94698247D01*
X96439791Y-94628588D01*
X96429637Y-94563983D01*
X96424113Y-94528387D01*
X96418188Y-94490466D01*
X96410469Y-94441876D01*
X96401211Y-94384179D01*
X96390668Y-94318938D01*
X96379094Y-94247714D01*
X96366744Y-94172072D01*
X96353872Y-94093572D01*
X96349583Y-94067521D01*
X96557666Y-94067521D01*
X96557694Y-94178492D01*
X96557776Y-94286107D01*
X96557910Y-94389711D01*
X96558091Y-94488649D01*
X96558318Y-94582268D01*
X96558587Y-94669912D01*
X96558895Y-94750926D01*
X96559240Y-94824657D01*
X96559617Y-94890449D01*
X96560025Y-94947648D01*
X96560460Y-94995599D01*
X96560919Y-95033648D01*
X96561399Y-95061140D01*
X96561897Y-95077420D01*
X96562317Y-95081944D01*
X96569261Y-95082812D01*
X96587396Y-95083518D01*
X96615512Y-95084053D01*
X96652399Y-95084410D01*
X96696847Y-95084581D01*
X96747645Y-95084559D01*
X96803583Y-95084336D01*
X96863450Y-95083906D01*
X96870825Y-95083840D01*
X96943098Y-95083123D01*
X97004096Y-95082371D01*
X97054947Y-95081541D01*
X97096780Y-95080591D01*
X97130722Y-95079481D01*
X97157901Y-95078167D01*
X97179445Y-95076609D01*
X97196481Y-95074764D01*
X97210138Y-95072591D01*
X97217803Y-95070967D01*
X97293352Y-95048444D01*
X97359196Y-95018362D01*
X97415754Y-94980320D01*
X97463447Y-94933921D01*
X97502693Y-94878767D01*
X97533912Y-94814458D01*
X97554760Y-94751167D01*
X97559382Y-94733617D01*
X97563025Y-94717915D01*
X97565807Y-94702285D01*
X97567850Y-94684953D01*
X97569274Y-94664146D01*
X97570199Y-94638089D01*
X97570745Y-94605008D01*
X97571032Y-94563129D01*
X97571181Y-94510677D01*
X97571185Y-94508838D01*
X97571072Y-94446039D01*
X97570325Y-94393840D01*
X97568751Y-94350445D01*
X97566158Y-94314059D01*
X97562353Y-94282888D01*
X97557144Y-94255136D01*
X97550339Y-94229007D01*
X97541743Y-94202708D01*
X97536938Y-94189531D01*
X97518325Y-94149421D01*
X97493328Y-94109355D01*
X97464240Y-94072215D01*
X97433355Y-94040883D01*
X97402967Y-94018240D01*
X97398621Y-94015786D01*
X97378024Y-94004694D01*
X97409124Y-93979263D01*
X97448149Y-93939854D01*
X97481445Y-93890796D01*
X97508014Y-93833907D01*
X97526855Y-93771004D01*
X97528865Y-93761597D01*
X97536055Y-93714235D01*
X97540531Y-93658664D01*
X97542353Y-93598124D01*
X97541581Y-93535858D01*
X97538273Y-93475107D01*
X97532490Y-93419110D01*
X97524292Y-93371110D01*
X97521463Y-93359117D01*
X97498943Y-93292903D01*
X97467280Y-93234172D01*
X97427026Y-93183636D01*
X97378730Y-93142007D01*
X97332085Y-93114314D01*
X97307081Y-93102493D01*
X97283269Y-93092436D01*
X97259414Y-93084003D01*
X97234283Y-93077052D01*
X97206640Y-93071443D01*
X97175251Y-93067034D01*
X97138881Y-93063684D01*
X97096296Y-93061253D01*
X97046260Y-93059598D01*
X96987540Y-93058580D01*
X96918901Y-93058056D01*
X96839107Y-93057887D01*
X96838269Y-93057887D01*
X96557666Y-93057764D01*
X96557666Y-94067521D01*
X96349583Y-94067521D01*
X96340732Y-94013778D01*
X96327578Y-93934253D01*
X96321564Y-93898022D01*
X96309170Y-93823353D01*
X96297167Y-93750880D01*
X96285742Y-93681748D01*
X96275084Y-93617100D01*
X96265380Y-93558080D01*
X96256820Y-93505834D01*
X96249589Y-93461505D01*
X96243877Y-93426237D01*
X96239871Y-93401175D01*
X96238063Y-93389526D01*
X96230355Y-93338584D01*
X96222484Y-93287309D01*
X96214738Y-93237517D01*
X96207404Y-93191021D01*
X96200772Y-93149635D01*
X96195128Y-93115174D01*
X96190762Y-93089451D01*
X96188071Y-93074817D01*
X96184610Y-93057764D01*
X95720201Y-93057764D01*
X95715051Y-93071716D01*
X95711548Y-93085445D01*
X95707903Y-93106248D01*
X95705706Y-93122876D01*
X95704104Y-93134236D01*
X95700612Y-93156930D01*
X95695377Y-93190057D01*
X95688546Y-93232715D01*
X95680263Y-93284004D01*
X95670677Y-93343024D01*
X95659933Y-93408873D01*
X95648178Y-93480652D01*
X95635559Y-93557458D01*
X95622221Y-93638392D01*
X95608311Y-93722553D01*
X95602873Y-93755396D01*
X95588825Y-93840233D01*
X95575311Y-93921963D01*
X95562473Y-93999710D01*
X95550455Y-94072596D01*
X95539402Y-94139744D01*
X95529458Y-94200278D01*
X95520766Y-94253321D01*
X95513471Y-94297994D01*
X95507716Y-94333423D01*
X95503647Y-94358729D01*
X95501405Y-94373035D01*
X95501049Y-94375513D01*
X95498515Y-94394469D01*
X95494966Y-94420070D01*
X95491275Y-94446053D01*
X95488960Y-94461194D01*
X95484934Y-94486513D01*
X95479445Y-94520508D01*
X95472742Y-94561677D01*
X95465072Y-94608520D01*
X95456686Y-94659535D01*
X95447832Y-94713220D01*
X95438758Y-94768074D01*
X95429714Y-94822595D01*
X95420947Y-94875283D01*
X95412707Y-94924635D01*
X95405242Y-94969150D01*
X95398801Y-95007328D01*
X95393632Y-95037666D01*
X95389985Y-95058662D01*
X95388176Y-95068494D01*
X95384659Y-95085547D01*
X91738914Y-95085547D01*
X91739501Y-94998730D01*
X91286670Y-94998730D01*
X91286670Y-94701229D01*
X91511462Y-94699601D01*
X91736255Y-94697974D01*
X91736559Y-94652302D01*
X94459649Y-94652302D01*
X94459671Y-94733407D01*
X94459722Y-94807280D01*
X94459801Y-94873247D01*
X94459909Y-94930635D01*
X94460045Y-94978769D01*
X94460209Y-95016976D01*
X94460400Y-95044583D01*
X94460617Y-95060916D01*
X94460779Y-95065230D01*
X94462989Y-95085221D01*
X94892896Y-95085463D01*
X94987843Y-95085435D01*
X95070603Y-95085236D01*
X95141391Y-95084861D01*
X95200422Y-95084309D01*
X95247910Y-95083575D01*
X95284069Y-95082658D01*
X95309115Y-95081553D01*
X95323262Y-95080257D01*
X95326837Y-95079178D01*
X95328029Y-95070917D01*
X95328983Y-95050618D01*
X95329694Y-95018642D01*
X95330159Y-94975351D01*
X95330375Y-94921107D01*
X95330339Y-94856271D01*
X95330046Y-94781205D01*
X95329899Y-94755404D01*
X95329201Y-94752723D01*
X95326402Y-94750510D01*
X95320389Y-94748710D01*
X95310052Y-94747270D01*
X95294277Y-94746135D01*
X95271954Y-94745249D01*
X95241971Y-94744559D01*
X95203215Y-94744010D01*
X95154576Y-94743548D01*
X95094941Y-94743117D01*
X95077136Y-94743002D01*
X94824438Y-94741382D01*
X94822866Y-93899573D01*
X94821293Y-93057764D01*
X94461745Y-93057764D01*
X94460157Y-94051501D01*
X94459995Y-94161858D01*
X94459864Y-94269024D01*
X94459764Y-94372324D01*
X94459696Y-94471087D01*
X94459658Y-94564637D01*
X94459649Y-94652302D01*
X91736559Y-94652302D01*
X91739499Y-94211182D01*
X91286670Y-94211182D01*
X91286670Y-93913680D01*
X91511462Y-93912052D01*
X91736255Y-93910425D01*
X91736255Y-93426733D01*
X91511462Y-93425106D01*
X91286670Y-93423478D01*
X91286670Y-93125977D01*
X91739499Y-93125977D01*
X91737352Y-92803700D01*
X92185840Y-92803700D01*
X92206513Y-92803516D01*
X93271008Y-92803516D01*
X93636914Y-92803516D01*
X93636914Y-91916748D01*
X93909683Y-91916748D01*
X93911275Y-92358582D01*
X93912866Y-92800415D01*
X94094250Y-92802059D01*
X94275635Y-92803703D01*
X94275635Y-92803516D01*
X94449268Y-92803516D01*
X94815137Y-92803516D01*
X94815137Y-91795825D01*
X94815146Y-91684970D01*
X94815174Y-91577471D01*
X94815218Y-91473984D01*
X94815279Y-91375165D01*
X94815355Y-91281669D01*
X94815444Y-91194151D01*
X94815547Y-91113266D01*
X94815662Y-91039669D01*
X94815788Y-90974017D01*
X94815924Y-90916964D01*
X94816070Y-90869165D01*
X94816223Y-90831277D01*
X94816383Y-90803953D01*
X94816550Y-90787850D01*
X94816687Y-90783484D01*
X94811140Y-90782262D01*
X94794696Y-90781052D01*
X94768859Y-90779904D01*
X94735136Y-90778870D01*
X94695031Y-90778003D01*
X94650049Y-90777354D01*
X94633752Y-90777190D01*
X94469941Y-90775732D01*
X94988770Y-90775732D01*
X94988770Y-92803516D01*
X95863135Y-92803516D01*
X95863135Y-92462590D01*
X95610437Y-92460970D01*
X95357739Y-92459351D01*
X95357189Y-92164795D01*
X96576270Y-92164795D01*
X96576270Y-92247854D01*
X96578508Y-92335333D01*
X96585458Y-92412604D01*
X96597476Y-92481070D01*
X96614916Y-92542133D01*
X96638134Y-92597197D01*
X96667482Y-92647665D01*
X96682853Y-92669341D01*
X96722407Y-92712570D01*
X96771573Y-92750702D01*
X96828181Y-92782511D01*
X96890060Y-92806770D01*
X96952623Y-92821851D01*
X96989459Y-92825934D01*
X97034236Y-92827679D01*
X97082731Y-92827187D01*
X97130726Y-92824558D01*
X97173999Y-92819891D01*
X97196387Y-92816064D01*
X97268328Y-92795592D01*
X97333422Y-92765366D01*
X97390987Y-92725890D01*
X97440344Y-92677673D01*
X97480813Y-92621220D01*
X97496231Y-92592676D01*
X97514782Y-92552417D01*
X97528890Y-92515259D01*
X97539201Y-92478229D01*
X97546363Y-92438355D01*
X97551020Y-92392664D01*
X97553821Y-92338182D01*
X97554214Y-92326025D01*
X97554985Y-92264614D01*
X97553049Y-92212142D01*
X97548030Y-92165370D01*
X97539550Y-92121055D01*
X97527233Y-92075956D01*
X97523961Y-92065576D01*
X97495028Y-91993003D01*
X97455355Y-91920192D01*
X97406369Y-91849308D01*
X97349499Y-91782512D01*
X97313165Y-91746216D01*
X97295425Y-91729564D01*
X97271015Y-91706673D01*
X97242320Y-91679779D01*
X97211727Y-91651119D01*
X97187460Y-91628394D01*
X97150152Y-91593311D01*
X97120490Y-91564972D01*
X97096938Y-91541781D01*
X97077963Y-91522143D01*
X97062030Y-91504461D01*
X97047605Y-91487140D01*
X97033155Y-91468582D01*
X97030597Y-91465205D01*
X96994715Y-91409747D01*
X96970642Y-91353374D01*
X96957814Y-91294330D01*
X96955635Y-91231583D01*
X96960694Y-91184707D01*
X96971653Y-91148115D01*
X96989056Y-91120906D01*
X97013445Y-91102180D01*
X97039420Y-91092425D01*
X97072664Y-91088358D01*
X97106337Y-91091792D01*
X97137005Y-91101808D01*
X97161234Y-91117483D01*
X97170117Y-91127516D01*
X97180195Y-91143944D01*
X97187727Y-91161719D01*
X97193154Y-91183100D01*
X97196917Y-91210347D01*
X97199458Y-91245720D01*
X97201050Y-91285874D01*
X97204075Y-91383638D01*
X97377554Y-91381992D01*
X97551034Y-91380347D01*
X97550170Y-91278821D01*
X97548384Y-91213259D01*
X97543973Y-91157356D01*
X97536538Y-91108567D01*
X97525681Y-91064349D01*
X97511002Y-91022161D01*
X97509256Y-91017827D01*
X97477745Y-90952562D01*
X97440375Y-90897696D01*
X97396325Y-90852293D01*
X97344777Y-90815421D01*
X97319437Y-90801624D01*
X97282313Y-90784395D01*
X97247859Y-90771786D01*
X97212583Y-90762987D01*
X97172998Y-90757187D01*
X97125613Y-90753575D01*
X97109133Y-90752788D01*
X97022894Y-90753055D01*
X96945352Y-90761813D01*
X96875940Y-90779301D01*
X96814093Y-90805764D01*
X96759246Y-90841441D01*
X96710832Y-90886575D01*
X96668503Y-90941080D01*
X96636781Y-90998712D01*
X96612286Y-91064471D01*
X96595219Y-91136264D01*
X96585781Y-91211998D01*
X96584171Y-91289582D01*
X96590591Y-91366923D01*
X96605240Y-91441927D01*
X96616757Y-91481062D01*
X96634086Y-91524947D01*
X96657896Y-91573690D01*
X96686010Y-91623270D01*
X96716250Y-91669666D01*
X96726781Y-91684204D01*
X96747412Y-91709625D01*
X96776236Y-91741873D01*
X96812034Y-91779704D01*
X96853585Y-91821870D01*
X96899669Y-91867126D01*
X96949066Y-91914225D01*
X96982514Y-91945369D01*
X97032687Y-91993343D01*
X97073466Y-92036269D01*
X97106041Y-92075562D01*
X97131601Y-92112639D01*
X97148511Y-92143091D01*
X97165273Y-92180516D01*
X97176629Y-92215783D01*
X97183411Y-92252867D01*
X97186454Y-92295746D01*
X97186831Y-92326025D01*
X97185443Y-92368112D01*
X97180952Y-92400475D01*
X97172469Y-92425592D01*
X97159108Y-92445943D01*
X97139983Y-92464004D01*
X97136465Y-92466743D01*
X97124192Y-92475294D01*
X97112506Y-92480479D01*
X97097761Y-92483126D01*
X97076312Y-92484066D01*
X97059961Y-92484155D01*
X97033149Y-92483811D01*
X97015088Y-92482225D01*
X97002132Y-92478567D01*
X96990637Y-92472009D01*
X96983457Y-92466743D01*
X96967402Y-92453354D01*
X96955106Y-92439555D01*
X96946031Y-92423452D01*
X96939641Y-92403151D01*
X96935398Y-92376758D01*
X96932767Y-92342379D01*
X96931211Y-92298120D01*
X96930843Y-92281067D01*
X96928575Y-92164795D01*
X96576270Y-92164795D01*
X95357189Y-92164795D01*
X95356167Y-91617542D01*
X95355883Y-91465250D01*
X95922786Y-91465250D01*
X95922807Y-91465293D01*
X95929746Y-91466988D01*
X95946910Y-91468434D01*
X95972119Y-91469525D01*
X96003195Y-91470153D01*
X96023751Y-91470264D01*
X96121623Y-91470264D01*
X96151320Y-91406702D01*
X96164283Y-91378770D01*
X96180688Y-91343144D01*
X96198877Y-91303438D01*
X96217195Y-91263263D01*
X96227284Y-91241040D01*
X96243349Y-91205785D01*
X96258784Y-91172265D01*
X96272409Y-91143015D01*
X96283046Y-91120573D01*
X96288485Y-91109471D01*
X96293132Y-91099899D01*
X96296700Y-91090685D01*
X96299330Y-91080095D01*
X96301165Y-91066390D01*
X96302349Y-91047837D01*
X96303023Y-91022697D01*
X96303331Y-90989236D01*
X96303415Y-90945716D01*
X96303418Y-90927772D01*
X96303418Y-90775542D01*
X96125134Y-90777188D01*
X95946851Y-90778833D01*
X95945200Y-90952038D01*
X95944936Y-91000779D01*
X95945100Y-91043563D01*
X95945662Y-91079074D01*
X95946592Y-91105997D01*
X95947860Y-91123015D01*
X95949259Y-91128771D01*
X95958022Y-91130569D01*
X95975323Y-91131809D01*
X95995868Y-91132211D01*
X96016566Y-91132337D01*
X96031277Y-91132753D01*
X96036768Y-91133358D01*
X96034743Y-91139314D01*
X96029869Y-91151925D01*
X96029819Y-91152050D01*
X96021174Y-91174570D01*
X96010436Y-91203770D01*
X95998231Y-91237818D01*
X95985185Y-91274887D01*
X95971921Y-91313147D01*
X95959066Y-91350767D01*
X95947244Y-91385919D01*
X95937079Y-91416772D01*
X95929199Y-91441499D01*
X95924226Y-91458268D01*
X95922786Y-91465250D01*
X95355883Y-91465250D01*
X95354594Y-90775732D01*
X94988770Y-90775732D01*
X94469941Y-90775732D01*
X94449268Y-90775548D01*
X94449268Y-92803516D01*
X94275635Y-92803516D01*
X94275635Y-90775732D01*
X93909766Y-90775732D01*
X93909766Y-91575684D01*
X93636914Y-91575684D01*
X93636914Y-90775545D01*
X93274146Y-90778833D01*
X93272577Y-91791174D01*
X93271008Y-92803516D01*
X92206513Y-92803516D01*
X92370325Y-92802058D01*
X92554810Y-92800415D01*
X92556405Y-92401990D01*
X92558001Y-92003564D01*
X92621518Y-92003457D01*
X92714165Y-91999713D01*
X92797036Y-91988666D01*
X92870531Y-91970103D01*
X92935053Y-91943807D01*
X92991003Y-91909564D01*
X93038783Y-91867159D01*
X93078794Y-91816376D01*
X93111437Y-91757000D01*
X93120379Y-91736183D01*
X93131356Y-91707117D01*
X93140245Y-91678626D01*
X93147254Y-91648961D01*
X93152593Y-91616375D01*
X93156473Y-91579119D01*
X93159102Y-91535445D01*
X93160691Y-91483606D01*
X93161449Y-91421853D01*
X93161570Y-91392749D01*
X93161477Y-91328601D01*
X93160736Y-91275032D01*
X93159150Y-91230228D01*
X93156522Y-91192374D01*
X93152657Y-91159655D01*
X93147357Y-91130257D01*
X93140426Y-91102365D01*
X93131669Y-91074164D01*
X93125026Y-91055147D01*
X93106513Y-91009814D01*
X93085452Y-90971745D01*
X93058798Y-90936022D01*
X93034725Y-90909297D01*
X92989301Y-90867367D01*
X92941260Y-90835243D01*
X92886756Y-90810388D01*
X92882226Y-90808719D01*
X92860366Y-90801303D01*
X92838231Y-90795063D01*
X92814553Y-90789902D01*
X92788066Y-90785724D01*
X92757504Y-90782430D01*
X92721600Y-90779923D01*
X92679087Y-90778106D01*
X92628699Y-90776881D01*
X92569169Y-90776151D01*
X92499231Y-90775818D01*
X92454041Y-90775769D01*
X92185840Y-90775732D01*
X92185840Y-92803700D01*
X91737352Y-92803700D01*
X91736255Y-92639185D01*
X91511462Y-92637557D01*
X91286670Y-92635929D01*
X91286670Y-92338428D01*
X91739355Y-92338428D01*
X91739355Y-91854736D01*
X91286670Y-91854736D01*
X91286670Y-91557235D01*
X91511462Y-91555607D01*
X91736255Y-91553979D01*
X91736255Y-91070288D01*
X91511462Y-91068660D01*
X91286670Y-91067033D01*
X91286670Y-90769686D01*
X91511462Y-90768058D01*
X91736255Y-90766431D01*
X91737902Y-90591248D01*
X91739549Y-90416064D01*
X92185840Y-90416064D01*
X92185840Y-89963379D01*
X92483496Y-89963379D01*
X92484414Y-90175769D01*
X92484649Y-90226359D01*
X92484899Y-90273360D01*
X92485153Y-90315240D01*
X92485401Y-90350467D01*
X92485632Y-90377512D01*
X92485835Y-90394843D01*
X92485965Y-90400562D01*
X92486428Y-90403683D01*
X92488234Y-90406231D01*
X92492526Y-90408264D01*
X92500448Y-90409840D01*
X92513145Y-90411018D01*
X92531763Y-90411855D01*
X92557444Y-90412409D01*
X92591334Y-90412739D01*
X92634577Y-90412903D01*
X92688318Y-90412958D01*
X92730368Y-90412964D01*
X92974140Y-90412964D01*
X92975315Y-90189722D01*
X92976489Y-89966479D01*
X93123690Y-89964817D01*
X93270890Y-89963155D01*
X93272518Y-90188059D01*
X93274146Y-90412964D01*
X93757837Y-90412964D01*
X93759465Y-90188171D01*
X93761092Y-89963379D01*
X94058594Y-89963379D01*
X94058594Y-90416208D01*
X94545386Y-90412964D01*
X94547013Y-90188171D01*
X94548641Y-89963379D01*
X94846143Y-89963379D01*
X94846143Y-90416064D01*
X95329679Y-90416064D01*
X95331307Y-90191272D01*
X95332935Y-89966479D01*
X95627335Y-89963155D01*
X95628963Y-90188059D01*
G37*
X95628963Y-90188059D02*
X95630591Y-90412964D01*
X96117383Y-90416208D01*
X96117383Y-89963379D01*
X96415039Y-89963379D01*
X96415039Y-90416208D01*
X96901831Y-90412964D01*
X96903459Y-90188171D01*
X96905086Y-89963379D01*
X97202588Y-89963379D01*
X97202588Y-90416064D01*
X97673877Y-90416064D01*
X97673877Y-89963379D01*
X97983781Y-89963379D01*
X97985408Y-90188171D01*
X97987036Y-90412964D01*
X98473828Y-90416208D01*
X98473828Y-90769531D01*
X98876904Y-90769531D01*
X98876904Y-91067188D01*
X98473828Y-91067188D01*
X98473828Y-91557080D01*
X98876904Y-91557080D01*
X98876904Y-91854736D01*
X98473828Y-91854736D01*
X98473828Y-92338428D01*
X98876904Y-92338428D01*
X98876904Y-92636084D01*
X98473828Y-92636084D01*
X98473828Y-93125977D01*
X98876904Y-93125977D01*
X98876904Y-93423633D01*
X98473828Y-93423633D01*
X98473828Y-93913525D01*
X98877129Y-93913525D01*
X98875466Y-94060803D01*
X98873804Y-94208081D01*
X98473828Y-94211353D01*
X98473828Y-94701074D01*
X98877129Y-94701074D01*
X98875466Y-94848352D01*
X98873804Y-94995630D01*
X98473828Y-94998902D01*
X98473828Y-95482422D01*
X98876904Y-95482422D01*
X98876904Y-95780078D01*
X98473828Y-95780078D01*
X98473828Y-96139746D01*
X97983936Y-96139746D01*
X97983936Y-96592432D01*
X97673877Y-96592432D01*
X97673877Y-96139746D01*
X97202588Y-96139746D01*
X97202588Y-96592432D01*
X96904932Y-96592432D01*
X96904932Y-96139746D01*
X96415039Y-96139746D01*
X96415039Y-96592432D01*
X96117383Y-96592432D01*
X96117383Y-96139746D01*
X95627490Y-96139746D01*
X95627490Y-96592432D01*
X95482426Y-96592432D01*
X95435983Y-96592356D01*
X95400449Y-96592059D01*
X95374331Y-96591437D01*
X95356136Y-96590386D01*
X95344371Y-96588801D01*
X95337544Y-96586579D01*
X95334160Y-96583616D01*
X95333374Y-96582039D01*
X95332422Y-96573497D01*
X95331580Y-96554108D01*
X95330873Y-96525430D01*
X95330327Y-96489017D01*
X95329968Y-96446427D01*
X95329822Y-96399215D01*
X95329846Y-96369649D01*
X95329951Y-96320228D01*
X95330032Y-96274328D01*
X95330090Y-96233540D01*
X95330121Y-96199455D01*
X95330125Y-96173667D01*
X95330099Y-96157765D01*
X95330070Y-96153699D01*
X95329834Y-96139746D01*
X94846143Y-96139746D01*
X94846143Y-96592432D01*
X94548486Y-96592432D01*
X94548486Y-96139746D01*
X94058594Y-96139746D01*
X94058594Y-96592432D01*
X93760938Y-96592432D01*
X93760938Y-96139746D01*
X93270518Y-96139746D01*
X93272332Y-96366092D01*
X93274146Y-96592439D01*
X93123828Y-96592435D01*
X92973510Y-96592432D01*
X92973855Y-96367639D01*
X92974201Y-96142847D01*
X92729650Y-96141226D01*
X92668079Y-96140845D01*
X92617777Y-96140627D01*
X92577612Y-96140614D01*
X92546452Y-96140851D01*
X92523163Y-96141379D01*
X92506614Y-96142242D01*
X92495673Y-96143484D01*
X92489206Y-96145146D01*
X92486081Y-96147273D01*
X92485166Y-96149907D01*
X92485148Y-96150528D01*
X92485136Y-96159124D01*
X92485078Y-96178618D01*
X92484982Y-96207503D01*
X92484851Y-96244276D01*
X92484691Y-96287431D01*
X92484508Y-96335462D01*
X92484346Y-96376941D01*
X92483496Y-96592432D01*
X92338802Y-96592432D01*
X92297635Y-96592262D01*
X92260669Y-96591785D01*
X92229690Y-96591050D01*
X92206482Y-96590108D01*
X92192830Y-96589007D01*
X92189974Y-96588298D01*
X92189021Y-96581351D01*
X92188146Y-96563423D01*
X92187374Y-96535936D01*
X92186732Y-96500311D01*
X92186245Y-96457970D01*
X92185939Y-96410335D01*
X92185840Y-96361955D01*
X92185840Y-96139746D01*
X91739546Y-96139746D01*
X91737900Y-95961462D01*
X91736255Y-95783179D01*
X91511462Y-95781551D01*
X91286670Y-95779923D01*
X91286670Y-95482577D01*
X91511462Y-95480949D01*
X91736255Y-95479321D01*
X91737878Y-95239026D01*
X91738914Y-95085547D01*
X95384659Y-95085547D01*
X95732348Y-95085547D01*
X95735789Y-95065393D01*
X95737639Y-95053686D01*
X95740977Y-95031688D01*
X95745508Y-95001383D01*
X95750935Y-94964754D01*
X95756963Y-94923784D01*
X95760970Y-94896411D01*
X95767246Y-94853489D01*
X95773113Y-94813440D01*
X95778274Y-94778297D01*
X95782428Y-94750094D01*
X95785278Y-94730865D01*
X95786260Y-94724329D01*
X95789811Y-94701074D01*
X96090877Y-94701074D01*
X96098048Y-94746033D01*
X96103109Y-94779574D01*
X96107439Y-94811682D01*
X96110634Y-94839086D01*
X96112289Y-94858515D01*
X96112425Y-94862305D01*
X96113394Y-94872142D01*
X96115924Y-94891410D01*
X96119625Y-94917545D01*
X96124107Y-94947986D01*
X96128979Y-94980170D01*
X96133851Y-95011535D01*
X96138333Y-95039519D01*
X96142035Y-95061559D01*
X96144566Y-95075094D01*
X96145243Y-95077795D01*
X96148941Y-95080157D01*
X96158876Y-95082026D01*
X96176107Y-95083446D01*
X96201695Y-95084463D01*
X96236700Y-95085121D01*
X96282182Y-95085466D01*
X96327662Y-95085547D01*
X96373597Y-95085392D01*
X96415388Y-95084956D01*
X96451458Y-95084278D01*
X96480233Y-95083398D01*
X96500139Y-95082356D01*
X96509600Y-95081193D01*
X96510145Y-95080896D01*
X96509876Y-95073828D01*
X96507749Y-95056085D01*
X96503992Y-95029220D01*
X96498833Y-94994783D01*
X96492500Y-94954327D01*
X96485221Y-94909402D01*
X96482716Y-94894256D01*
X96473025Y-94835411D01*
X96462179Y-94768631D01*
X96450869Y-94698247D01*
X96439791Y-94628588D01*
X96429637Y-94563983D01*
X96424113Y-94528387D01*
X96418188Y-94490466D01*
X96410469Y-94441876D01*
X96401211Y-94384179D01*
X96390668Y-94318938D01*
X96379094Y-94247714D01*
X96366744Y-94172072D01*
X96353872Y-94093572D01*
X96349583Y-94067521D01*
X96557666Y-94067521D01*
X96557694Y-94178492D01*
X96557776Y-94286107D01*
X96557910Y-94389711D01*
X96558091Y-94488649D01*
X96558318Y-94582268D01*
X96558587Y-94669912D01*
X96558895Y-94750926D01*
X96559240Y-94824657D01*
X96559617Y-94890449D01*
X96560025Y-94947648D01*
X96560460Y-94995599D01*
X96560919Y-95033648D01*
X96561399Y-95061140D01*
X96561897Y-95077420D01*
X96562317Y-95081944D01*
X96569261Y-95082812D01*
X96587396Y-95083518D01*
X96615512Y-95084053D01*
X96652399Y-95084410D01*
X96696847Y-95084581D01*
X96747645Y-95084559D01*
X96803583Y-95084336D01*
X96863450Y-95083906D01*
X96870825Y-95083840D01*
X96943098Y-95083123D01*
X97004096Y-95082371D01*
X97054947Y-95081541D01*
X97096780Y-95080591D01*
X97130722Y-95079481D01*
X97157901Y-95078167D01*
X97179445Y-95076609D01*
X97196481Y-95074764D01*
X97210138Y-95072591D01*
X97217803Y-95070967D01*
X97293352Y-95048444D01*
X97359196Y-95018362D01*
X97415754Y-94980320D01*
X97463447Y-94933921D01*
X97502693Y-94878767D01*
X97533912Y-94814458D01*
X97554760Y-94751167D01*
X97559382Y-94733617D01*
X97563025Y-94717915D01*
X97565807Y-94702285D01*
X97567850Y-94684953D01*
X97569274Y-94664146D01*
X97570199Y-94638089D01*
X97570745Y-94605008D01*
X97571032Y-94563129D01*
X97571181Y-94510677D01*
X97571185Y-94508838D01*
X97571072Y-94446039D01*
X97570325Y-94393840D01*
X97568751Y-94350445D01*
X97566158Y-94314059D01*
X97562353Y-94282888D01*
X97557144Y-94255136D01*
X97550339Y-94229007D01*
X97541743Y-94202708D01*
X97536938Y-94189531D01*
X97518325Y-94149421D01*
X97493328Y-94109355D01*
X97464240Y-94072215D01*
X97433355Y-94040883D01*
X97402967Y-94018240D01*
X97398621Y-94015786D01*
X97378024Y-94004694D01*
X97409124Y-93979263D01*
X97448149Y-93939854D01*
X97481445Y-93890796D01*
X97508014Y-93833907D01*
X97526855Y-93771004D01*
X97528865Y-93761597D01*
X97536055Y-93714235D01*
X97540531Y-93658664D01*
X97542353Y-93598124D01*
X97541581Y-93535858D01*
X97538273Y-93475107D01*
X97532490Y-93419110D01*
X97524292Y-93371110D01*
X97521463Y-93359117D01*
X97498943Y-93292903D01*
X97467280Y-93234172D01*
X97427026Y-93183636D01*
X97378730Y-93142007D01*
X97332085Y-93114314D01*
X97307081Y-93102493D01*
X97283269Y-93092436D01*
X97259414Y-93084003D01*
X97234283Y-93077052D01*
X97206640Y-93071443D01*
X97175251Y-93067034D01*
X97138881Y-93063684D01*
X97096296Y-93061253D01*
X97046260Y-93059598D01*
X96987540Y-93058580D01*
X96918901Y-93058056D01*
X96839107Y-93057887D01*
X96838269Y-93057887D01*
X96557666Y-93057764D01*
X96557666Y-94067521D01*
X96349583Y-94067521D01*
X96340732Y-94013778D01*
X96327578Y-93934253D01*
X96321564Y-93898022D01*
X96309170Y-93823353D01*
X96297167Y-93750880D01*
X96285742Y-93681748D01*
X96275084Y-93617100D01*
X96265380Y-93558080D01*
X96256820Y-93505834D01*
X96249589Y-93461505D01*
X96243877Y-93426237D01*
X96239871Y-93401175D01*
X96238063Y-93389526D01*
X96230355Y-93338584D01*
X96222484Y-93287309D01*
X96214738Y-93237517D01*
X96207404Y-93191021D01*
X96200772Y-93149635D01*
X96195128Y-93115174D01*
X96190762Y-93089451D01*
X96188071Y-93074817D01*
X96184610Y-93057764D01*
X95720201Y-93057764D01*
X95715051Y-93071716D01*
X95711548Y-93085445D01*
X95707903Y-93106248D01*
X95705706Y-93122876D01*
X95704104Y-93134236D01*
X95700612Y-93156930D01*
X95695377Y-93190057D01*
X95688546Y-93232715D01*
X95680263Y-93284004D01*
X95670677Y-93343024D01*
X95659933Y-93408873D01*
X95648178Y-93480652D01*
X95635559Y-93557458D01*
X95622221Y-93638392D01*
X95608311Y-93722553D01*
X95602873Y-93755396D01*
X95588825Y-93840233D01*
X95575311Y-93921963D01*
X95562473Y-93999710D01*
X95550455Y-94072596D01*
X95539402Y-94139744D01*
X95529458Y-94200278D01*
X95520766Y-94253321D01*
X95513471Y-94297994D01*
X95507716Y-94333423D01*
X95503647Y-94358729D01*
X95501405Y-94373035D01*
X95501049Y-94375513D01*
X95498515Y-94394469D01*
X95494966Y-94420070D01*
X95491275Y-94446053D01*
X95488960Y-94461194D01*
X95484934Y-94486513D01*
X95479445Y-94520508D01*
X95472742Y-94561677D01*
X95465072Y-94608520D01*
X95456686Y-94659535D01*
X95447832Y-94713220D01*
X95438758Y-94768074D01*
X95429714Y-94822595D01*
X95420947Y-94875283D01*
X95412707Y-94924635D01*
X95405242Y-94969150D01*
X95398801Y-95007328D01*
X95393632Y-95037666D01*
X95389985Y-95058662D01*
X95388176Y-95068494D01*
X95384659Y-95085547D01*
X91738914Y-95085547D01*
X91739501Y-94998730D01*
X91286670Y-94998730D01*
X91286670Y-94701229D01*
X91511462Y-94699601D01*
X91736255Y-94697974D01*
X91736559Y-94652302D01*
X94459649Y-94652302D01*
X94459671Y-94733407D01*
X94459722Y-94807280D01*
X94459801Y-94873247D01*
X94459909Y-94930635D01*
X94460045Y-94978769D01*
X94460209Y-95016976D01*
X94460400Y-95044583D01*
X94460617Y-95060916D01*
X94460779Y-95065230D01*
X94462989Y-95085221D01*
X94892896Y-95085463D01*
X94987843Y-95085435D01*
X95070603Y-95085236D01*
X95141391Y-95084861D01*
X95200422Y-95084309D01*
X95247910Y-95083575D01*
X95284069Y-95082658D01*
X95309115Y-95081553D01*
X95323262Y-95080257D01*
X95326837Y-95079178D01*
X95328029Y-95070917D01*
X95328983Y-95050618D01*
X95329694Y-95018642D01*
X95330159Y-94975351D01*
X95330375Y-94921107D01*
X95330339Y-94856271D01*
X95330046Y-94781205D01*
X95329899Y-94755404D01*
X95329201Y-94752723D01*
X95326402Y-94750510D01*
X95320389Y-94748710D01*
X95310052Y-94747270D01*
X95294277Y-94746135D01*
X95271954Y-94745249D01*
X95241971Y-94744559D01*
X95203215Y-94744010D01*
X95154576Y-94743548D01*
X95094941Y-94743117D01*
X95077136Y-94743002D01*
X94824438Y-94741382D01*
X94822866Y-93899573D01*
X94821293Y-93057764D01*
X94461745Y-93057764D01*
X94460157Y-94051501D01*
X94459995Y-94161858D01*
X94459864Y-94269024D01*
X94459764Y-94372324D01*
X94459696Y-94471087D01*
X94459658Y-94564637D01*
X94459649Y-94652302D01*
X91736559Y-94652302D01*
X91739499Y-94211182D01*
X91286670Y-94211182D01*
X91286670Y-93913680D01*
X91511462Y-93912052D01*
X91736255Y-93910425D01*
X91736255Y-93426733D01*
X91511462Y-93425106D01*
X91286670Y-93423478D01*
X91286670Y-93125977D01*
X91739499Y-93125977D01*
X91737352Y-92803700D01*
X92185840Y-92803700D01*
X92206513Y-92803516D01*
X93271008Y-92803516D01*
X93636914Y-92803516D01*
X93636914Y-91916748D01*
X93909683Y-91916748D01*
X93911275Y-92358582D01*
X93912866Y-92800415D01*
X94094250Y-92802059D01*
X94275635Y-92803703D01*
X94275635Y-92803516D01*
X94449268Y-92803516D01*
X94815137Y-92803516D01*
X94815137Y-91795825D01*
X94815146Y-91684970D01*
X94815174Y-91577471D01*
X94815218Y-91473984D01*
X94815279Y-91375165D01*
X94815355Y-91281669D01*
X94815444Y-91194151D01*
X94815547Y-91113266D01*
X94815662Y-91039669D01*
X94815788Y-90974017D01*
X94815924Y-90916964D01*
X94816070Y-90869165D01*
X94816223Y-90831277D01*
X94816383Y-90803953D01*
X94816550Y-90787850D01*
X94816687Y-90783484D01*
X94811140Y-90782262D01*
X94794696Y-90781052D01*
X94768859Y-90779904D01*
X94735136Y-90778870D01*
X94695031Y-90778003D01*
X94650049Y-90777354D01*
X94633752Y-90777190D01*
X94469941Y-90775732D01*
X94988770Y-90775732D01*
X94988770Y-92803516D01*
X95863135Y-92803516D01*
X95863135Y-92462590D01*
X95610437Y-92460970D01*
X95357739Y-92459351D01*
X95357189Y-92164795D01*
X96576270Y-92164795D01*
X96576270Y-92247854D01*
X96578508Y-92335333D01*
X96585458Y-92412604D01*
X96597476Y-92481070D01*
X96614916Y-92542133D01*
X96638134Y-92597197D01*
X96667482Y-92647665D01*
X96682853Y-92669341D01*
X96722407Y-92712570D01*
X96771573Y-92750702D01*
X96828181Y-92782511D01*
X96890060Y-92806770D01*
X96952623Y-92821851D01*
X96989459Y-92825934D01*
X97034236Y-92827679D01*
X97082731Y-92827187D01*
X97130726Y-92824558D01*
X97173999Y-92819891D01*
X97196387Y-92816064D01*
X97268328Y-92795592D01*
X97333422Y-92765366D01*
X97390987Y-92725890D01*
X97440344Y-92677673D01*
X97480813Y-92621220D01*
X97496231Y-92592676D01*
X97514782Y-92552417D01*
X97528890Y-92515259D01*
X97539201Y-92478229D01*
X97546363Y-92438355D01*
X97551020Y-92392664D01*
X97553821Y-92338182D01*
X97554214Y-92326025D01*
X97554985Y-92264614D01*
X97553049Y-92212142D01*
X97548030Y-92165370D01*
X97539550Y-92121055D01*
X97527233Y-92075956D01*
X97523961Y-92065576D01*
X97495028Y-91993003D01*
X97455355Y-91920192D01*
X97406369Y-91849308D01*
X97349499Y-91782512D01*
X97313165Y-91746216D01*
X97295425Y-91729564D01*
X97271015Y-91706673D01*
X97242320Y-91679779D01*
X97211727Y-91651119D01*
X97187460Y-91628394D01*
X97150152Y-91593311D01*
X97120490Y-91564972D01*
X97096938Y-91541781D01*
X97077963Y-91522143D01*
X97062030Y-91504461D01*
X97047605Y-91487140D01*
X97033155Y-91468582D01*
X97030597Y-91465205D01*
X96994715Y-91409747D01*
X96970642Y-91353374D01*
X96957814Y-91294330D01*
X96955635Y-91231583D01*
X96960694Y-91184707D01*
X96971653Y-91148115D01*
X96989056Y-91120906D01*
X97013445Y-91102180D01*
X97039420Y-91092425D01*
X97072664Y-91088358D01*
X97106337Y-91091792D01*
X97137005Y-91101808D01*
X97161234Y-91117483D01*
X97170117Y-91127516D01*
X97180195Y-91143944D01*
X97187727Y-91161719D01*
X97193154Y-91183100D01*
X97196917Y-91210347D01*
X97199458Y-91245720D01*
X97201050Y-91285874D01*
X97204075Y-91383638D01*
X97377554Y-91381992D01*
X97551034Y-91380347D01*
X97550170Y-91278821D01*
X97548384Y-91213259D01*
X97543973Y-91157356D01*
X97536538Y-91108567D01*
X97525681Y-91064349D01*
X97511002Y-91022161D01*
X97509256Y-91017827D01*
X97477745Y-90952562D01*
X97440375Y-90897696D01*
X97396325Y-90852293D01*
X97344777Y-90815421D01*
X97319437Y-90801624D01*
X97282313Y-90784395D01*
X97247859Y-90771786D01*
X97212583Y-90762987D01*
X97172998Y-90757187D01*
X97125613Y-90753575D01*
X97109133Y-90752788D01*
X97022894Y-90753055D01*
X96945352Y-90761813D01*
X96875940Y-90779301D01*
X96814093Y-90805764D01*
X96759246Y-90841441D01*
X96710832Y-90886575D01*
X96668503Y-90941080D01*
X96636781Y-90998712D01*
X96612286Y-91064471D01*
X96595219Y-91136264D01*
X96585781Y-91211998D01*
X96584171Y-91289582D01*
X96590591Y-91366923D01*
X96605240Y-91441927D01*
X96616757Y-91481062D01*
X96634086Y-91524947D01*
X96657896Y-91573690D01*
X96686010Y-91623270D01*
X96716250Y-91669666D01*
X96726781Y-91684204D01*
X96747412Y-91709625D01*
X96776236Y-91741873D01*
X96812034Y-91779704D01*
X96853585Y-91821870D01*
X96899669Y-91867126D01*
X96949066Y-91914225D01*
X96982514Y-91945369D01*
X97032687Y-91993343D01*
X97073466Y-92036269D01*
X97106041Y-92075562D01*
X97131601Y-92112639D01*
X97148511Y-92143091D01*
X97165273Y-92180516D01*
X97176629Y-92215783D01*
X97183411Y-92252867D01*
X97186454Y-92295746D01*
X97186831Y-92326025D01*
X97185443Y-92368112D01*
X97180952Y-92400475D01*
X97172469Y-92425592D01*
X97159108Y-92445943D01*
X97139983Y-92464004D01*
X97136465Y-92466743D01*
X97124192Y-92475294D01*
X97112506Y-92480479D01*
X97097761Y-92483126D01*
X97076312Y-92484066D01*
X97059961Y-92484155D01*
X97033149Y-92483811D01*
X97015088Y-92482225D01*
X97002132Y-92478567D01*
X96990637Y-92472009D01*
X96983457Y-92466743D01*
X96967402Y-92453354D01*
X96955106Y-92439555D01*
X96946031Y-92423452D01*
X96939641Y-92403151D01*
X96935398Y-92376758D01*
X96932767Y-92342379D01*
X96931211Y-92298120D01*
X96930843Y-92281067D01*
X96928575Y-92164795D01*
X96576270Y-92164795D01*
X95357189Y-92164795D01*
X95356167Y-91617542D01*
X95355883Y-91465250D01*
X95922786Y-91465250D01*
X95922807Y-91465293D01*
X95929746Y-91466988D01*
X95946910Y-91468434D01*
X95972119Y-91469525D01*
X96003195Y-91470153D01*
X96023751Y-91470264D01*
X96121623Y-91470264D01*
X96151320Y-91406702D01*
X96164283Y-91378770D01*
X96180688Y-91343144D01*
X96198877Y-91303438D01*
X96217195Y-91263263D01*
X96227284Y-91241040D01*
X96243349Y-91205785D01*
X96258784Y-91172265D01*
X96272409Y-91143015D01*
X96283046Y-91120573D01*
X96288485Y-91109471D01*
X96293132Y-91099899D01*
X96296700Y-91090685D01*
X96299330Y-91080095D01*
X96301165Y-91066390D01*
X96302349Y-91047837D01*
X96303023Y-91022697D01*
X96303331Y-90989236D01*
X96303415Y-90945716D01*
X96303418Y-90927772D01*
X96303418Y-90775542D01*
X96125134Y-90777188D01*
X95946851Y-90778833D01*
X95945200Y-90952038D01*
X95944936Y-91000779D01*
X95945100Y-91043563D01*
X95945662Y-91079074D01*
X95946592Y-91105997D01*
X95947860Y-91123015D01*
X95949259Y-91128771D01*
X95958022Y-91130569D01*
X95975323Y-91131809D01*
X95995868Y-91132211D01*
X96016566Y-91132337D01*
X96031277Y-91132753D01*
X96036768Y-91133358D01*
X96034743Y-91139314D01*
X96029869Y-91151925D01*
X96029819Y-91152050D01*
X96021174Y-91174570D01*
X96010436Y-91203770D01*
X95998231Y-91237818D01*
X95985185Y-91274887D01*
X95971921Y-91313147D01*
X95959066Y-91350767D01*
X95947244Y-91385919D01*
X95937079Y-91416772D01*
X95929199Y-91441499D01*
X95924226Y-91458268D01*
X95922786Y-91465250D01*
X95355883Y-91465250D01*
X95354594Y-90775732D01*
X94988770Y-90775732D01*
X94469941Y-90775732D01*
X94449268Y-90775548D01*
X94449268Y-92803516D01*
X94275635Y-92803516D01*
X94275635Y-90775732D01*
X93909766Y-90775732D01*
X93909766Y-91575684D01*
X93636914Y-91575684D01*
X93636914Y-90775545D01*
X93274146Y-90778833D01*
X93272577Y-91791174D01*
X93271008Y-92803516D01*
X92206513Y-92803516D01*
X92370325Y-92802058D01*
X92554810Y-92800415D01*
X92556405Y-92401990D01*
X92558001Y-92003564D01*
X92621518Y-92003457D01*
X92714165Y-91999713D01*
X92797036Y-91988666D01*
X92870531Y-91970103D01*
X92935053Y-91943807D01*
X92991003Y-91909564D01*
X93038783Y-91867159D01*
X93078794Y-91816376D01*
X93111437Y-91757000D01*
X93120379Y-91736183D01*
X93131356Y-91707117D01*
X93140245Y-91678626D01*
X93147254Y-91648961D01*
X93152593Y-91616375D01*
X93156473Y-91579119D01*
X93159102Y-91535445D01*
X93160691Y-91483606D01*
X93161449Y-91421853D01*
X93161570Y-91392749D01*
X93161477Y-91328601D01*
X93160736Y-91275032D01*
X93159150Y-91230228D01*
X93156522Y-91192374D01*
X93152657Y-91159655D01*
X93147357Y-91130257D01*
X93140426Y-91102365D01*
X93131669Y-91074164D01*
X93125026Y-91055147D01*
X93106513Y-91009814D01*
X93085452Y-90971745D01*
X93058798Y-90936022D01*
X93034725Y-90909297D01*
X92989301Y-90867367D01*
X92941260Y-90835243D01*
X92886756Y-90810388D01*
X92882226Y-90808719D01*
X92860366Y-90801303D01*
X92838231Y-90795063D01*
X92814553Y-90789902D01*
X92788066Y-90785724D01*
X92757504Y-90782430D01*
X92721600Y-90779923D01*
X92679087Y-90778106D01*
X92628699Y-90776881D01*
X92569169Y-90776151D01*
X92499231Y-90775818D01*
X92454041Y-90775769D01*
X92185840Y-90775732D01*
X92185840Y-92803700D01*
X91737352Y-92803700D01*
X91736255Y-92639185D01*
X91511462Y-92637557D01*
X91286670Y-92635929D01*
X91286670Y-92338428D01*
X91739355Y-92338428D01*
X91739355Y-91854736D01*
X91286670Y-91854736D01*
X91286670Y-91557235D01*
X91511462Y-91555607D01*
X91736255Y-91553979D01*
X91736255Y-91070288D01*
X91511462Y-91068660D01*
X91286670Y-91067033D01*
X91286670Y-90769686D01*
X91511462Y-90768058D01*
X91736255Y-90766431D01*
X91737902Y-90591248D01*
X91739549Y-90416064D01*
X92185840Y-90416064D01*
X92185840Y-89963379D01*
X92483496Y-89963379D01*
X92484414Y-90175769D01*
X92484649Y-90226359D01*
X92484899Y-90273360D01*
X92485153Y-90315240D01*
X92485401Y-90350467D01*
X92485632Y-90377512D01*
X92485835Y-90394843D01*
X92485965Y-90400562D01*
X92486428Y-90403683D01*
X92488234Y-90406231D01*
X92492526Y-90408264D01*
X92500448Y-90409840D01*
X92513145Y-90411018D01*
X92531763Y-90411855D01*
X92557444Y-90412409D01*
X92591334Y-90412739D01*
X92634577Y-90412903D01*
X92688318Y-90412958D01*
X92730368Y-90412964D01*
X92974140Y-90412964D01*
X92975315Y-90189722D01*
X92976489Y-89966479D01*
X93123690Y-89964817D01*
X93270890Y-89963155D01*
X93272518Y-90188059D01*
X93274146Y-90412964D01*
X93757837Y-90412964D01*
X93759465Y-90188171D01*
X93761092Y-89963379D01*
X94058594Y-89963379D01*
X94058594Y-90416208D01*
X94545386Y-90412964D01*
X94547013Y-90188171D01*
X94548641Y-89963379D01*
X94846143Y-89963379D01*
X94846143Y-90416064D01*
X95329679Y-90416064D01*
X95331307Y-90191272D01*
X95332935Y-89966479D01*
X95627335Y-89963155D01*
X95628963Y-90188059D01*
G36*
X95939755Y-93658911D02*
G01*
X95943041Y-93675172D01*
X95947331Y-93699991D01*
X95952305Y-93731501D01*
X95957641Y-93767835D01*
X95958294Y-93772449D01*
X95963252Y-93807436D01*
X95969659Y-93852273D01*
X95977165Y-93904538D01*
X95985423Y-93961810D01*
X95994083Y-94021666D01*
X96002795Y-94081687D01*
X96009010Y-94124365D01*
X96016630Y-94176805D01*
X96023654Y-94225516D01*
X96029884Y-94269103D01*
X96035124Y-94306172D01*
X96039176Y-94335331D01*
X96041845Y-94355183D01*
X96042933Y-94364335D01*
X96042948Y-94364661D01*
X96039905Y-94367641D01*
X96029893Y-94369811D01*
X96011614Y-94371265D01*
X95983768Y-94372098D01*
X95945058Y-94372405D01*
X95936877Y-94372412D01*
X95830784Y-94372412D01*
X95833911Y-94358459D01*
X95835335Y-94349858D01*
X95838308Y-94330128D01*
X95842664Y-94300427D01*
X95848237Y-94261910D01*
X95854861Y-94215732D01*
X95862370Y-94163049D01*
X95870598Y-94105017D01*
X95879380Y-94042791D01*
X95885565Y-93998792D01*
X95894598Y-93934896D01*
X95903213Y-93874827D01*
X95911246Y-93819681D01*
X95918530Y-93770554D01*
X95924899Y-93728542D01*
X95930189Y-93694742D01*
X95934233Y-93670250D01*
X95936867Y-93656162D01*
X95937793Y-93653076D01*
X95939755Y-93658911D01*
G37*
X95939755Y-93658911D02*
X95943041Y-93675172D01*
X95947331Y-93699991D01*
X95952305Y-93731501D01*
X95957641Y-93767835D01*
X95958294Y-93772449D01*
X95963252Y-93807436D01*
X95969659Y-93852273D01*
X95977165Y-93904538D01*
X95985423Y-93961810D01*
X95994083Y-94021666D01*
X96002795Y-94081687D01*
X96009010Y-94124365D01*
X96016630Y-94176805D01*
X96023654Y-94225516D01*
X96029884Y-94269103D01*
X96035124Y-94306172D01*
X96039176Y-94335331D01*
X96041845Y-94355183D01*
X96042933Y-94364335D01*
X96042948Y-94364661D01*
X96039905Y-94367641D01*
X96029893Y-94369811D01*
X96011614Y-94371265D01*
X95983768Y-94372098D01*
X95945058Y-94372405D01*
X95936877Y-94372412D01*
X95830784Y-94372412D01*
X95833911Y-94358459D01*
X95835335Y-94349858D01*
X95838308Y-94330128D01*
X95842664Y-94300427D01*
X95848237Y-94261910D01*
X95854861Y-94215732D01*
X95862370Y-94163049D01*
X95870598Y-94105017D01*
X95879380Y-94042791D01*
X95885565Y-93998792D01*
X95894598Y-93934896D01*
X95903213Y-93874827D01*
X95911246Y-93819681D01*
X95918530Y-93770554D01*
X95924899Y-93728542D01*
X95930189Y-93694742D01*
X95934233Y-93670250D01*
X95936867Y-93656162D01*
X95937793Y-93653076D01*
X95939755Y-93658911D01*
G36*
X97018103Y-94199688D02*
G01*
X97053334Y-94200730D01*
X97078768Y-94202026D01*
X97097013Y-94204012D01*
X97110672Y-94207129D01*
X97122352Y-94211813D01*
X97134657Y-94218504D01*
X97136558Y-94219613D01*
X97156824Y-94233711D01*
X97171238Y-94250414D01*
X97183067Y-94272275D01*
X97187959Y-94282964D01*
X97191782Y-94292780D01*
X97194684Y-94303394D01*
X97196811Y-94316474D01*
X97198313Y-94333687D01*
X97199337Y-94356703D01*
X97200030Y-94387191D01*
X97200540Y-94426818D01*
X97200992Y-94474731D01*
X97201340Y-94532440D01*
X97201059Y-94579180D01*
X97199876Y-94616380D01*
X97197523Y-94645468D01*
X97193727Y-94667874D01*
X97188219Y-94685025D01*
X97180727Y-94698350D01*
X97170980Y-94709278D01*
X97158707Y-94719237D01*
X97153998Y-94722595D01*
X97143602Y-94729639D01*
X97134248Y-94734702D01*
X97123649Y-94738168D01*
X97109518Y-94740419D01*
X97089567Y-94741836D01*
X97061509Y-94742803D01*
X97028424Y-94743582D01*
X96929736Y-94745782D01*
X96929736Y-94197400D01*
X97018103Y-94199688D01*
G37*
X97018103Y-94199688D02*
X97053334Y-94200730D01*
X97078768Y-94202026D01*
X97097013Y-94204012D01*
X97110672Y-94207129D01*
X97122352Y-94211813D01*
X97134657Y-94218504D01*
X97136558Y-94219613D01*
X97156824Y-94233711D01*
X97171238Y-94250414D01*
X97183067Y-94272275D01*
X97187959Y-94282964D01*
X97191782Y-94292780D01*
X97194684Y-94303394D01*
X97196811Y-94316474D01*
X97198313Y-94333687D01*
X97199337Y-94356703D01*
X97200030Y-94387191D01*
X97200540Y-94426818D01*
X97200992Y-94474731D01*
X97201340Y-94532440D01*
X97201059Y-94579180D01*
X97199876Y-94616380D01*
X97197523Y-94645468D01*
X97193727Y-94667874D01*
X97188219Y-94685025D01*
X97180727Y-94698350D01*
X97170980Y-94709278D01*
X97158707Y-94719237D01*
X97153998Y-94722595D01*
X97143602Y-94729639D01*
X97134248Y-94734702D01*
X97123649Y-94738168D01*
X97109518Y-94740419D01*
X97089567Y-94741836D01*
X97061509Y-94742803D01*
X97028424Y-94743582D01*
X96929736Y-94745782D01*
X96929736Y-94197400D01*
X97018103Y-94199688D01*
G36*
X97016123Y-93399910D02*
G01*
X97055982Y-93401288D01*
X97085645Y-93403909D01*
X97107317Y-93408712D01*
X97123199Y-93416630D01*
X97135495Y-93428601D01*
X97146409Y-93445561D01*
X97152979Y-93458062D01*
X97158462Y-93469589D01*
X97162529Y-93480752D01*
X97165439Y-93493687D01*
X97167447Y-93510529D01*
X97168810Y-93533417D01*
X97169785Y-93564485D01*
X97170608Y-93604726D01*
X97170976Y-93662682D01*
X97169467Y-93709746D01*
X97165677Y-93747342D01*
X97159199Y-93776891D01*
X97149627Y-93799818D01*
X97136557Y-93817545D01*
X97119583Y-93831496D01*
X97103369Y-93840672D01*
X97088254Y-93847057D01*
X97071463Y-93851427D01*
X97049917Y-93854273D01*
X97020540Y-93856085D01*
X97002600Y-93856736D01*
X96929736Y-93859021D01*
X96929736Y-93397891D01*
X97016123Y-93399910D01*
G37*
X97016123Y-93399910D02*
X97055982Y-93401288D01*
X97085645Y-93403909D01*
X97107317Y-93408712D01*
X97123199Y-93416630D01*
X97135495Y-93428601D01*
X97146409Y-93445561D01*
X97152979Y-93458062D01*
X97158462Y-93469589D01*
X97162529Y-93480752D01*
X97165439Y-93493687D01*
X97167447Y-93510529D01*
X97168810Y-93533417D01*
X97169785Y-93564485D01*
X97170608Y-93604726D01*
X97170976Y-93662682D01*
X97169467Y-93709746D01*
X97165677Y-93747342D01*
X97159199Y-93776891D01*
X97149627Y-93799818D01*
X97136557Y-93817545D01*
X97119583Y-93831496D01*
X97103369Y-93840672D01*
X97088254Y-93847057D01*
X97071463Y-93851427D01*
X97049917Y-93854273D01*
X97020540Y-93856085D01*
X97002600Y-93856736D01*
X96929736Y-93859021D01*
X96929736Y-93397891D01*
X97016123Y-93399910D01*
G36*
X92672699Y-91117522D02*
G01*
X92702905Y-91120132D01*
X92725511Y-91125283D01*
X92742887Y-91133629D01*
X92757405Y-91145826D01*
X92763928Y-91153089D01*
X92772419Y-91164670D01*
X92779202Y-91178015D01*
X92784434Y-91194531D01*
X92788274Y-91215627D01*
X92790879Y-91242709D01*
X92792407Y-91277185D01*
X92793015Y-91320463D01*
X92792861Y-91373950D01*
X92792509Y-91408252D01*
X92791874Y-91458696D01*
X92791235Y-91498329D01*
X92790451Y-91528741D01*
X92789381Y-91551522D01*
X92787884Y-91568263D01*
X92785818Y-91580555D01*
X92783044Y-91589987D01*
X92779420Y-91598150D01*
X92774951Y-91606372D01*
X92762437Y-91625768D01*
X92748502Y-91639903D01*
X92730928Y-91649665D01*
X92707498Y-91655941D01*
X92675993Y-91659620D01*
X92637167Y-91661497D01*
X92557910Y-91663966D01*
X92557910Y-91116797D01*
X92632523Y-91116797D01*
X92672699Y-91117522D01*
G37*
X92672699Y-91117522D02*
X92702905Y-91120132D01*
X92725511Y-91125283D01*
X92742887Y-91133629D01*
X92757405Y-91145826D01*
X92763928Y-91153089D01*
X92772419Y-91164670D01*
X92779202Y-91178015D01*
X92784434Y-91194531D01*
X92788274Y-91215627D01*
X92790879Y-91242709D01*
X92792407Y-91277185D01*
X92793015Y-91320463D01*
X92792861Y-91373950D01*
X92792509Y-91408252D01*
X92791874Y-91458696D01*
X92791235Y-91498329D01*
X92790451Y-91528741D01*
X92789381Y-91551522D01*
X92787884Y-91568263D01*
X92785818Y-91580555D01*
X92783044Y-91589987D01*
X92779420Y-91598150D01*
X92774951Y-91606372D01*
X92762437Y-91625768D01*
X92748502Y-91639903D01*
X92730928Y-91649665D01*
X92707498Y-91655941D01*
X92675993Y-91659620D01*
X92637167Y-91661497D01*
X92557910Y-91663966D01*
X92557910Y-91116797D01*
X92632523Y-91116797D01*
X92672699Y-91117522D01*
D11*
%TO.C,U200*%
X118160000Y-85610000D02*
X119110000Y-85610000D01*
X119110000Y-85610000D02*
X119110000Y-84660000D01*
X109840000Y-85610000D02*
X108890000Y-85610000D01*
X108890000Y-85610000D02*
X108890000Y-84660000D01*
X118160000Y-75390000D02*
X119110000Y-75390000D01*
X119110000Y-75390000D02*
X119110000Y-76340000D01*
X109840000Y-75390000D02*
X108890000Y-75390000D01*
X108890000Y-75390000D02*
X108890000Y-76340000D01*
X108890000Y-76340000D02*
X107550000Y-76340000D01*
%TO.C,FB500*%
X126590000Y-56937221D02*
X126590000Y-57262779D01*
X127610000Y-56937221D02*
X127610000Y-57262779D01*
%TO.C,Y200*%
X100250000Y-76900000D02*
X100250000Y-80900000D01*
X103550000Y-76900000D02*
X100250000Y-76900000D01*
%TO.C,U500*%
X99800000Y-67560000D02*
X103250000Y-67560000D01*
X99800000Y-67560000D02*
X97850000Y-67560000D01*
X99800000Y-62440000D02*
X101750000Y-62440000D01*
X99800000Y-62440000D02*
X97850000Y-62440000D01*
D10*
%TO.C,U401*%
X121840000Y-103610000D02*
X121840000Y-104135000D01*
X117540000Y-107910000D02*
X117540000Y-107385000D01*
X121840000Y-107910000D02*
X121840000Y-107385000D01*
X117540000Y-103610000D02*
X118065000Y-103610000D01*
X117540000Y-107910000D02*
X118065000Y-107910000D01*
X121840000Y-107910000D02*
X121315000Y-107910000D01*
X121840000Y-103610000D02*
X121315000Y-103610000D01*
D12*
%TO.C,U400*%
X114440000Y-95550000D02*
X113800000Y-95550000D01*
X113800000Y-93330000D02*
X113800000Y-92850000D01*
X114440000Y-92850000D02*
X113800000Y-92850000D01*
X116000000Y-95550000D02*
X115360000Y-95550000D01*
X116000000Y-92850000D02*
X115360000Y-92850000D01*
X116000000Y-93330000D02*
X116000000Y-92850000D01*
X116000000Y-95550000D02*
X116000000Y-95070000D01*
D11*
%TO.C,U300*%
X111070000Y-93070000D02*
X111070000Y-93760000D01*
X111220000Y-93760000D02*
X111070000Y-93760000D01*
X111220000Y-103680000D02*
X111070000Y-103680000D01*
X101050000Y-93760000D02*
X100900000Y-93760000D01*
X101050000Y-103680000D02*
X100900000Y-103680000D01*
X100900000Y-93760000D02*
X100900000Y-103680000D01*
X111220000Y-93760000D02*
X111220000Y-103680000D01*
%TO.C,U201*%
X128200000Y-81935000D02*
X130650000Y-81935000D01*
X130000000Y-78715000D02*
X128200000Y-78715000D01*
%TO.C,U100*%
X132190000Y-96220000D02*
X132190000Y-98650000D01*
X135260000Y-97980000D02*
X135260000Y-96220000D01*
%TO.C,SW200*%
X93720000Y-82100000D02*
X93720000Y-82300000D01*
X89580000Y-79300000D02*
X89370000Y-79500000D01*
X89580000Y-80600000D02*
X89370000Y-80400000D01*
X90870000Y-79300000D02*
X89580000Y-79300000D01*
X89370000Y-79500000D02*
X89370000Y-80400000D01*
X89580000Y-80600000D02*
X90870000Y-80600000D01*
X90870000Y-77850000D02*
X90870000Y-83550000D01*
X93720000Y-79100000D02*
X93720000Y-80800000D01*
X92670000Y-77250000D02*
X91880000Y-77250000D01*
X91880000Y-84150000D02*
X92670000Y-84150000D01*
%TO.C,R511*%
X95880000Y-65153641D02*
X95880000Y-64846359D01*
X95120000Y-65153641D02*
X95120000Y-64846359D01*
%TO.C,R510*%
X123380000Y-65153641D02*
X123380000Y-64846359D01*
X122620000Y-65153641D02*
X122620000Y-64846359D01*
%TO.C,R509*%
X119380000Y-65153641D02*
X119380000Y-64846359D01*
X118620000Y-65153641D02*
X118620000Y-64846359D01*
%TO.C,R508*%
X116380000Y-65153641D02*
X116380000Y-64846359D01*
X115620000Y-65153641D02*
X115620000Y-64846359D01*
%TO.C,R507*%
X110380000Y-65153641D02*
X110380000Y-64846359D01*
X109620000Y-65153641D02*
X109620000Y-64846359D01*
%TO.C,R506*%
X106380000Y-65153641D02*
X106380000Y-64846359D01*
X105620000Y-65153641D02*
X105620000Y-64846359D01*
%TO.C,R505*%
X106620000Y-64846359D02*
X106620000Y-65153641D01*
X107380000Y-64846359D02*
X107380000Y-65153641D01*
%TO.C,R504*%
X110620000Y-64846359D02*
X110620000Y-65153641D01*
X111380000Y-64846359D02*
X111380000Y-65153641D01*
%TO.C,R503*%
X112620000Y-64846359D02*
X112620000Y-65153641D01*
X113380000Y-64846359D02*
X113380000Y-65153641D01*
%TO.C,R502*%
X116620000Y-64846359D02*
X116620000Y-65153641D01*
X117380000Y-64846359D02*
X117380000Y-65153641D01*
%TO.C,R501*%
X119620000Y-64846359D02*
X119620000Y-65153641D01*
X120380000Y-64846359D02*
X120380000Y-65153641D01*
%TO.C,R500*%
X121620000Y-64846359D02*
X121620000Y-65153641D01*
X122380000Y-64846359D02*
X122380000Y-65153641D01*
%TO.C,R302*%
X106880000Y-85153641D02*
X106880000Y-84846359D01*
X106120000Y-85153641D02*
X106120000Y-84846359D01*
%TO.C,R301*%
X105480000Y-85153641D02*
X105480000Y-84846359D01*
X104720000Y-85153641D02*
X104720000Y-84846359D01*
%TO.C,R300*%
X107341359Y-106490000D02*
X107648641Y-106490000D01*
X107341359Y-105730000D02*
X107648641Y-105730000D01*
%TO.C,R208*%
X129796359Y-63905000D02*
X130103641Y-63905000D01*
X129796359Y-63145000D02*
X130103641Y-63145000D01*
%TO.C,R207*%
X129796359Y-66155000D02*
X130103641Y-66155000D01*
X129796359Y-65395000D02*
X130103641Y-65395000D01*
%TO.C,R206*%
X131246359Y-70305000D02*
X131553641Y-70305000D01*
X131246359Y-69545000D02*
X131553641Y-69545000D01*
%TO.C,R205*%
X122753641Y-83120000D02*
X122446359Y-83120000D01*
X122753641Y-83880000D02*
X122446359Y-83880000D01*
%TO.C,R204*%
X116380000Y-104453641D02*
X116380000Y-104146359D01*
X115620000Y-104453641D02*
X115620000Y-104146359D01*
%TO.C,R203*%
X118820000Y-101446359D02*
X118820000Y-101753641D01*
X119580000Y-101446359D02*
X119580000Y-101753641D01*
%TO.C,R202*%
X121670000Y-87171359D02*
X121670000Y-87478641D01*
X122430000Y-87171359D02*
X122430000Y-87478641D01*
%TO.C,R201*%
X106153641Y-79620000D02*
X105846359Y-79620000D01*
X106153641Y-80380000D02*
X105846359Y-80380000D01*
%TO.C,R200*%
X95420000Y-80746359D02*
X95420000Y-81053641D01*
X96180000Y-80746359D02*
X96180000Y-81053641D01*
%TO.C,R103*%
X124980000Y-95753641D02*
X124980000Y-95446359D01*
X124220000Y-95753641D02*
X124220000Y-95446359D01*
%TO.C,R102*%
X134420000Y-100346359D02*
X134420000Y-100653641D01*
X135180000Y-100346359D02*
X135180000Y-100653641D01*
%TO.C,R101*%
X136380000Y-100653641D02*
X136380000Y-100346359D01*
X135620000Y-100653641D02*
X135620000Y-100346359D01*
%TO.C,R100*%
X127280000Y-89153641D02*
X127280000Y-88846359D01*
X126520000Y-89153641D02*
X126520000Y-88846359D01*
%TO.C,Q100*%
X130980000Y-88240000D02*
X130980000Y-89700000D01*
X127820000Y-88240000D02*
X127820000Y-90400000D01*
X127820000Y-88240000D02*
X128750000Y-88240000D01*
X130980000Y-88240000D02*
X130050000Y-88240000D01*
%TO.C,L1*%
X126100000Y-95500000D02*
X130500000Y-95500000D01*
X126100000Y-100300000D02*
X126100000Y-95500000D01*
X130500000Y-100300000D02*
X126100000Y-100300000D01*
X130500000Y-95500000D02*
X130500000Y-100300000D01*
%TO.C,J501*%
X92430000Y-70130000D02*
X91100000Y-70130000D01*
X92430000Y-68800000D02*
X92430000Y-70130000D01*
X92430000Y-67530000D02*
X89770000Y-67530000D01*
X89770000Y-67530000D02*
X89770000Y-59850000D01*
X92430000Y-67530000D02*
X92430000Y-59850000D01*
X92430000Y-59850000D02*
X89770000Y-59850000D01*
%TO.C,J500*%
X120875000Y-60800000D02*
X120875000Y-61150000D01*
X107125000Y-61150000D02*
X120875000Y-61150000D01*
X107125000Y-60800000D02*
X107125000Y-61150000D01*
X120875000Y-53700000D02*
X120875000Y-58150000D01*
X107125000Y-53700000D02*
X107125000Y-58150000D01*
X107150000Y-47700000D02*
X120875000Y-47700000D01*
X120875000Y-47700000D02*
X120875000Y-51150000D01*
X107125000Y-47700000D02*
X107125000Y-51150000D01*
%TO.C,J300*%
X105060000Y-112220000D02*
X100460000Y-112220000D01*
X105060000Y-109420000D02*
X105060000Y-112220000D01*
X104160000Y-108520000D02*
X105060000Y-109420000D01*
X101360000Y-108520000D02*
X104160000Y-108520000D01*
X100460000Y-109420000D02*
X101360000Y-108520000D01*
X100460000Y-112220000D02*
X100460000Y-109420000D01*
%TO.C,J201*%
X133600000Y-83500000D02*
X133600000Y-76500000D01*
X134600000Y-84500000D02*
X133600000Y-83500000D01*
X134600000Y-75500000D02*
X133600000Y-76500000D01*
X138600000Y-75500000D02*
X138600000Y-84500000D01*
X138600000Y-75500000D02*
X134600000Y-75500000D01*
X138600000Y-84500000D02*
X134600000Y-84500000D01*
%TO.C,J200*%
X135450000Y-68875000D02*
X134320000Y-68875000D01*
X135450000Y-68115000D02*
X135450000Y-68875000D01*
X132742470Y-68810000D02*
X131920000Y-68810000D01*
X133560000Y-68810000D02*
X133357530Y-68810000D01*
X133560000Y-68678471D02*
X133560000Y-68810000D01*
X133560000Y-67408471D02*
X133560000Y-67551529D01*
X133756529Y-67355000D02*
X133613471Y-67355000D01*
X135450000Y-67355000D02*
X134883471Y-67355000D01*
X131920000Y-68810000D02*
X131920000Y-62340000D01*
X135450000Y-67355000D02*
X135450000Y-62340000D01*
X134012470Y-62340000D02*
X133357530Y-62340000D01*
X132742470Y-62340000D02*
X131920000Y-62340000D01*
X135450000Y-62340000D02*
X134627530Y-62340000D01*
%TO.C,FB501*%
X95187221Y-70760000D02*
X95512779Y-70760000D01*
X95187221Y-69740000D02*
X95512779Y-69740000D01*
%TO.C,FB100*%
X133062779Y-91190000D02*
X132737221Y-91190000D01*
X133062779Y-92210000D02*
X132737221Y-92210000D01*
D12*
%TO.C,D509*%
X93500000Y-69390000D02*
G75*
G03*
X93500000Y-69390000I-50000J0D01*
G01*
%TO.C,D508*%
X93500000Y-64785000D02*
G75*
G03*
X93500000Y-64785000I-50000J0D01*
G01*
%TO.C,D507*%
X94500000Y-65215000D02*
G75*
G03*
X94500000Y-65215000I-50000J0D01*
G01*
%TO.C,D506*%
X123450000Y-55710000D02*
G75*
G03*
X123450000Y-55710000I-50000J0D01*
G01*
%TO.C,D505*%
X108050000Y-63910000D02*
G75*
G03*
X108050000Y-63910000I-50000J0D01*
G01*
%TO.C,D504*%
X109050000Y-63910000D02*
G75*
G03*
X109050000Y-63910000I-50000J0D01*
G01*
%TO.C,D503*%
X112050000Y-63910000D02*
G75*
G03*
X112050000Y-63910000I-50000J0D01*
G01*
%TO.C,D502*%
X115050000Y-63910000D02*
G75*
G03*
X115050000Y-63910000I-50000J0D01*
G01*
%TO.C,D501*%
X118050000Y-63910000D02*
G75*
G03*
X118050000Y-63910000I-50000J0D01*
G01*
%TO.C,D500*%
X121050000Y-63910000D02*
G75*
G03*
X121050000Y-63910000I-50000J0D01*
G01*
%TO.C,D300*%
X102460000Y-107700000D02*
G75*
G03*
X102460000Y-107700000I-50000J0D01*
G01*
%TO.C,D205*%
X131900000Y-82410000D02*
G75*
G03*
X131900000Y-82410000I-50000J0D01*
G01*
%TO.C,D204*%
X132610000Y-69925000D02*
G75*
G03*
X132610000Y-69925000I-50000J0D01*
G01*
%TO.C,D203*%
X131090000Y-66850000D02*
G75*
G03*
X131090000Y-66850000I-50000J0D01*
G01*
%TO.C,D202*%
X131090000Y-64600000D02*
G75*
G03*
X131090000Y-64600000I-50000J0D01*
G01*
%TO.C,D201*%
X136725000Y-68515000D02*
G75*
G03*
X136725000Y-68515000I-50000J0D01*
G01*
D11*
%TO.C,D200*%
X124085000Y-84265000D02*
X121800000Y-84265000D01*
X124085000Y-85735000D02*
X124085000Y-84265000D01*
X121800000Y-85735000D02*
X124085000Y-85735000D01*
%TO.C,D102*%
X123865000Y-97115000D02*
X123865000Y-99400000D01*
X125335000Y-97115000D02*
X123865000Y-97115000D01*
X125335000Y-99400000D02*
X125335000Y-97115000D01*
%TO.C,D101*%
X126450000Y-92900000D02*
X130350000Y-92900000D01*
X126450000Y-94900000D02*
X130350000Y-94900000D01*
X126450000Y-92900000D02*
X126450000Y-94900000D01*
%TO.C,D100*%
X128700000Y-91100000D02*
X130550000Y-91100000D01*
X128700000Y-92300000D02*
X130550000Y-92300000D01*
X130550000Y-92300000D02*
X130550000Y-91100000D01*
%TO.C,C504*%
X94910000Y-68407836D02*
X94910000Y-68192164D01*
X94190000Y-68407836D02*
X94190000Y-68192164D01*
%TO.C,C503*%
X96737164Y-61910000D02*
X96952836Y-61910000D01*
X96737164Y-61190000D02*
X96952836Y-61190000D01*
%TO.C,C502*%
X104560000Y-65107836D02*
X104560000Y-64892164D01*
X103840000Y-65107836D02*
X103840000Y-64892164D01*
%TO.C,C501*%
X114360000Y-65107836D02*
X114360000Y-64892164D01*
X113640000Y-65107836D02*
X113640000Y-64892164D01*
%TO.C,C500*%
X125610000Y-57240580D02*
X125610000Y-56959420D01*
X124590000Y-57240580D02*
X124590000Y-56959420D01*
%TO.C,C406*%
X120892164Y-102460000D02*
X121107836Y-102460000D01*
X120892164Y-101740000D02*
X121107836Y-101740000D01*
%TO.C,C405*%
X120040000Y-109792164D02*
X120040000Y-110007836D01*
X120760000Y-109792164D02*
X120760000Y-110007836D01*
%TO.C,C404*%
X123660000Y-105907836D02*
X123660000Y-105692164D01*
X122940000Y-105907836D02*
X122940000Y-105692164D01*
%TO.C,C403*%
X118592164Y-109760000D02*
X118807836Y-109760000D01*
X118592164Y-109040000D02*
X118807836Y-109040000D01*
%TO.C,C402*%
X122990000Y-108359420D02*
X122990000Y-108640580D01*
X124010000Y-108359420D02*
X124010000Y-108640580D01*
%TO.C,C401*%
X115007836Y-96240000D02*
X114792164Y-96240000D01*
X115007836Y-96960000D02*
X114792164Y-96960000D01*
%TO.C,C400*%
X116740000Y-94092164D02*
X116740000Y-94307836D01*
X117460000Y-94092164D02*
X117460000Y-94307836D01*
%TO.C,C303*%
X107387164Y-107570000D02*
X107602836Y-107570000D01*
X107387164Y-106850000D02*
X107602836Y-106850000D01*
%TO.C,C302*%
X105320000Y-91727836D02*
X105320000Y-91512164D01*
X104600000Y-91727836D02*
X104600000Y-91512164D01*
%TO.C,C301*%
X103120000Y-91727836D02*
X103120000Y-91512164D01*
X102400000Y-91727836D02*
X102400000Y-91512164D01*
%TO.C,C300*%
X101870000Y-91160580D02*
X101870000Y-90879420D01*
X100850000Y-91160580D02*
X100850000Y-90879420D01*
%TO.C,C212*%
X128292164Y-83360000D02*
X128507836Y-83360000D01*
X128292164Y-82640000D02*
X128507836Y-82640000D01*
%TO.C,C210*%
X104040000Y-80392164D02*
X104040000Y-80607836D01*
X104760000Y-80392164D02*
X104760000Y-80607836D01*
%TO.C,C209*%
X104760000Y-78507836D02*
X104760000Y-78292164D01*
X104040000Y-78507836D02*
X104040000Y-78292164D01*
%TO.C,C208*%
X122210000Y-75740580D02*
X122210000Y-75459420D01*
X121190000Y-75740580D02*
X121190000Y-75459420D01*
%TO.C,C207*%
X118659420Y-88610000D02*
X118940580Y-88610000D01*
X118659420Y-87590000D02*
X118940580Y-87590000D01*
%TO.C,C206*%
X106660000Y-82107836D02*
X106660000Y-81892164D01*
X105940000Y-82107836D02*
X105940000Y-81892164D01*
%TO.C,C205*%
X110607836Y-87640000D02*
X110392164Y-87640000D01*
X110607836Y-88360000D02*
X110392164Y-88360000D01*
%TO.C,C204*%
X119292164Y-87060000D02*
X119507836Y-87060000D01*
X119292164Y-86340000D02*
X119507836Y-86340000D01*
%TO.C,C203*%
X120560000Y-75107836D02*
X120560000Y-74892164D01*
X119840000Y-75107836D02*
X119840000Y-74892164D01*
%TO.C,C202*%
X109892164Y-73360000D02*
X110107836Y-73360000D01*
X109892164Y-72640000D02*
X110107836Y-72640000D01*
%TO.C,C201*%
X108160000Y-75107836D02*
X108160000Y-74892164D01*
X107440000Y-75107836D02*
X107440000Y-74892164D01*
%TO.C,C200*%
X106810000Y-74140580D02*
X106810000Y-73859420D01*
X105790000Y-74140580D02*
X105790000Y-73859420D01*
%TO.C,C102*%
X132359420Y-100810000D02*
X132640580Y-100810000D01*
X132359420Y-99790000D02*
X132640580Y-99790000D01*
%TO.C,C101*%
X130940000Y-96992164D02*
X130940000Y-97207836D01*
X131660000Y-96992164D02*
X131660000Y-97207836D01*
%TO.C,C100*%
X133040580Y-93390000D02*
X132759420Y-93390000D01*
X133040580Y-94410000D02*
X132759420Y-94410000D01*
%TD*%
M02*
