M48
; DRILL file {KiCad (5.1.7)-1} date 03/16/21 10:20:40
; FORMAT={-:-/ absolute / inch / decimal}
; #@! TF.CreationDate,2021-03-16T10:20:40+01:00
; #@! TF.GenerationSoftware,Kicad,Pcbnew,(5.1.7)-1
FMAT,2
INCH
T1C0.0157
T2C0.0197
T3C0.0256
T4C0.0276
T5C0.0394
T6C0.1260
T7C0.0354
T8C0.0454
%
G90
G05
T1
X3.7096Y-2.6358
X3.7185Y-2.4705
X3.7549Y-3.0886
X3.7589Y-2.4232
X3.7953Y-3.4488
X3.8228Y-2.7008
X3.9016Y-2.7047
X3.9173Y-3.0394
X3.9173Y-3.0866
X3.9173Y-3.1339
X3.9173Y-3.1811
X3.9213Y-3.4488
X3.9409Y-3.0
X3.9488Y-3.2126
X3.9882Y-3.0
X3.9882Y-4.1437
X3.9882Y-4.1929
X3.9882Y-4.2411
X3.9882Y-4.3041
X3.9961Y-3.2126
X4.002Y-4.0226
X4.0236Y-4.3602
X4.0236Y-4.3996
X4.0325Y-3.5541
X4.0354Y-3.0
X4.0433Y-3.2126
X4.0512Y-2.3425
X4.0512Y-2.4213
X4.0669Y-4.3602
X4.0669Y-4.3996
X4.0827Y-3.0
X4.0827Y-3.2126
X4.0896Y-4.0226
X4.0906Y-4.1516
X4.0906Y-4.2039
X4.0945Y-3.3701
X4.1024Y-3.2992
X4.1033Y-2.6122
X4.1033Y-4.3041
X4.1102Y-3.0354
X4.1211Y-4.2392
X4.1319Y-3.5541
X4.1496Y-3.1969
X4.1654Y-2.0659
X4.1654Y-2.3455
X4.1811Y-3.5551
X4.2126Y-2.5039
X4.2205Y-3.5906
X4.2244Y-2.9016
X4.2283Y-2.8307
X4.2362Y-3.4291
X4.2504Y-4.2571
X4.2717Y-2.6122
X4.2756Y-3.4685
X4.3041Y-2.8386
X4.3228Y-3.2795
X4.3228Y-3.3268
X4.3268Y-3.5
X4.3307Y-2.6132
X4.3484Y-3.7579
X4.3524Y-2.8386
X4.3976Y-2.2362
X4.3976Y-2.3425
X4.4094Y-2.6132
X4.4252Y-2.8898
X4.4449Y-3.5551
X4.4488Y-3.0197
X4.4685Y-2.8858
X4.4754Y-3.7795
X4.4882Y-3.4488
X4.4961Y-3.0551
X4.5Y-2.7008
X4.5069Y-2.6122
X4.5236Y-3.3307
X4.5315Y-3.1614
X4.5433Y-2.7717
X4.5669Y-2.6132
X4.5866Y-4.4173
X4.5945Y-3.3346
X4.5945Y-3.7598
X4.6024Y-4.3465
X4.6063Y-3.937
X4.6142Y-3.0787
X4.6417Y-2.6132
X4.689Y-2.6132
X4.7047Y-4.3425
X4.7402Y-3.9291
X4.749Y-3.4685
X4.7549Y-3.4134
X4.7589Y-2.6132
X4.7618Y-2.9106
X4.7726Y-3.2874
X4.811Y-2.065
X4.811Y-2.3455
X4.8169Y-4.0197
X4.8287Y-4.1181
X4.8425Y-2.6132
X4.8583Y-2.2904
X4.8622Y-4.3425
X4.9055Y-3.7087
X4.9252Y-2.3199
X4.9961Y-3.4498
X5.002Y-3.2677
X5.0039Y-2.5472
X5.0039Y-2.6339
X5.0512Y-2.2205
X5.062Y-2.5433
X5.062Y-2.6319
X5.0827Y-3.0787
X5.0906Y-3.6969
X5.1024Y-2.2874
X5.1772Y-3.1024
X5.1909Y-3.3415
X5.2165Y-3.6555
X5.2362Y-3.2795
X5.2411Y-3.0984
X5.2461Y-3.9902
X5.2638Y-3.8268
X5.2815Y-2.7894
X5.3071Y-4.0108
X5.3474Y-3.0984
X5.3809Y-2.6004
X5.3819Y-2.5394
X5.4291Y-2.7165
T2
X5.1811Y-4.252
X5.2088Y-4.1852
X5.2088Y-4.3188
X5.2756Y-4.1575
X5.2756Y-4.3465
X5.3424Y-4.1852
X5.3424Y-4.3188
X5.3701Y-4.252
X5.1811Y-2.0472
X5.2088Y-1.9804
X5.2088Y-2.1141
X5.2756Y-1.9528
X5.2756Y-2.1417
X5.3424Y-1.9804
X5.3424Y-2.1141
X5.3701Y-2.0472
X3.6063Y-2.0472
X3.634Y-1.9804
X3.634Y-2.1141
X3.7008Y-1.9528
X3.7008Y-2.1417
X3.7676Y-1.9804
X3.7676Y-2.1141
X3.7953Y-2.0472
X3.6063Y-4.252
X3.634Y-4.1852
X3.634Y-4.3188
X3.7008Y-4.1575
X3.7008Y-4.3465
X3.7676Y-4.1852
X3.7676Y-4.3188
X3.7953Y-4.252
T3
X5.2382Y-2.4817
X5.2382Y-2.5317
X5.2382Y-2.5817
X5.2382Y-2.6317
X5.2382Y-2.6817
X5.2882Y-2.4817
X5.2882Y-2.5317
X5.2882Y-2.5817
X5.2882Y-2.6317
X5.2882Y-2.6817
T4
X5.2992Y-3.0541
X5.2992Y-3.2451
T5
X3.5866Y-2.4087
X3.5866Y-2.5087
X3.5866Y-2.6087
X3.5866Y-2.7087
T6
X3.7008Y-4.252
X5.2756Y-4.252
X5.2756Y-2.0472
X3.7008Y-2.0472
T7
X3.6327Y-3.1181
X3.6327Y-3.2362
T8
X3.8661Y-1.9134
X5.1102Y-4.372
T2
G00X5.4183Y-3.0079
M15
G01X5.3868Y-3.0079
M16
G05
G00X5.4183Y-3.2913
M15
G01X5.3868Y-3.2913
M16
G05
T0
M30
