%TF.GenerationSoftware,KiCad,Pcbnew,(5.1.7)-1*%
%TF.CreationDate,2021-03-16T10:20:49+01:00*%
%TF.ProjectId,BluePhil,426c7565-5068-4696-9c2e-6b696361645f,rev?*%
%TF.SameCoordinates,Original*%
%TF.FileFunction,Soldermask,Bot*%
%TF.FilePolarity,Negative*%
%FSLAX46Y46*%
G04 Gerber Fmt 4.6, Leading zero omitted, Abs format (unit mm)*
G04 Created by KiCad (PCBNEW (5.1.7)-1) date 2021-03-16 10:20:49*
%MOMM*%
%LPD*%
G01*
G04 APERTURE LIST*
%ADD10C,1.152000*%
%ADD11C,0.800000*%
%ADD12C,6.400000*%
%ADD13C,0.900000*%
%ADD14O,1.700000X1.700000*%
%ADD15R,1.700000X1.700000*%
%ADD16O,1.900000X1.070000*%
%ADD17C,1.300000*%
%ADD18O,1.000000X1.000000*%
%ADD19R,1.000000X1.000000*%
G04 APERTURE END LIST*
D10*
%TO.C,REF\u002A\u002A*%
X129800000Y-111050000D03*
%TD*%
%TO.C,REF\u002A\u002A*%
X98200000Y-48600000D03*
%TD*%
D11*
%TO.C,H503*%
X95697056Y-50302944D03*
X94000000Y-49600000D03*
X92302944Y-50302944D03*
X91600000Y-52000000D03*
X92302944Y-53697056D03*
X94000000Y-54400000D03*
X95697056Y-53697056D03*
X96400000Y-52000000D03*
D12*
X94000000Y-52000000D03*
%TD*%
D11*
%TO.C,H502*%
X135697056Y-50302944D03*
X134000000Y-49600000D03*
X132302944Y-50302944D03*
X131600000Y-52000000D03*
X132302944Y-53697056D03*
X134000000Y-54400000D03*
X135697056Y-53697056D03*
X136400000Y-52000000D03*
D12*
X134000000Y-52000000D03*
%TD*%
D11*
%TO.C,H501*%
X135697056Y-106302944D03*
X134000000Y-105600000D03*
X132302944Y-106302944D03*
X131600000Y-108000000D03*
X132302944Y-109697056D03*
X134000000Y-110400000D03*
X135697056Y-109697056D03*
X136400000Y-108000000D03*
D12*
X134000000Y-108000000D03*
%TD*%
D11*
%TO.C,H500*%
X95697056Y-106302944D03*
X94000000Y-105600000D03*
X92302944Y-106302944D03*
X91600000Y-108000000D03*
X92302944Y-109697056D03*
X94000000Y-110400000D03*
X95697056Y-109697056D03*
X96400000Y-108000000D03*
D12*
X94000000Y-108000000D03*
%TD*%
D13*
%TO.C,SW200*%
X92270000Y-79200000D03*
X92270000Y-82200000D03*
%TD*%
D14*
%TO.C,J501*%
X91100000Y-61180000D03*
X91100000Y-63720000D03*
X91100000Y-66260000D03*
D15*
X91100000Y-68800000D03*
%TD*%
D16*
%TO.C,J201*%
X137225000Y-83600000D03*
X137225000Y-76400000D03*
D17*
X134600000Y-82425000D03*
X134600000Y-77575000D03*
%TD*%
D18*
%TO.C,J200*%
X133050000Y-63035000D03*
X134320000Y-63035000D03*
X133050000Y-64305000D03*
X134320000Y-64305000D03*
X133050000Y-65575000D03*
X134320000Y-65575000D03*
X133050000Y-66845000D03*
X134320000Y-66845000D03*
X133050000Y-68115000D03*
D19*
X134320000Y-68115000D03*
%TD*%
M02*
