%TF.GenerationSoftware,KiCad,Pcbnew,(5.1.7)-1*%
%TF.CreationDate,2021-03-16T10:20:49+01:00*%
%TF.ProjectId,BluePhil,426c7565-5068-4696-9c2e-6b696361645f,rev?*%
%TF.SameCoordinates,Original*%
%TF.FileFunction,Copper,L1,Top*%
%TF.FilePolarity,Positive*%
%FSLAX46Y46*%
G04 Gerber Fmt 4.6, Leading zero omitted, Abs format (unit mm)*
G04 Created by KiCad (PCBNEW (5.1.7)-1) date 2021-03-16 10:20:49*
%MOMM*%
%LPD*%
G01*
G04 APERTURE LIST*
%TA.AperFunction,ComponentPad*%
%ADD10C,0.800000*%
%TD*%
%TA.AperFunction,ComponentPad*%
%ADD11C,6.400000*%
%TD*%
%TA.AperFunction,SMDPad,CuDef*%
%ADD12R,1.200000X1.400000*%
%TD*%
%TA.AperFunction,SMDPad,CuDef*%
%ADD13R,0.500000X0.350000*%
%TD*%
%TA.AperFunction,SMDPad,CuDef*%
%ADD14R,1.060000X0.650000*%
%TD*%
%TA.AperFunction,SMDPad,CuDef*%
%ADD15R,0.650000X1.220000*%
%TD*%
%TA.AperFunction,SMDPad,CuDef*%
%ADD16R,1.500000X0.700000*%
%TD*%
%TA.AperFunction,SMDPad,CuDef*%
%ADD17R,0.800000X1.000000*%
%TD*%
%TA.AperFunction,SMDPad,CuDef*%
%ADD18R,0.800000X0.900000*%
%TD*%
%TA.AperFunction,SMDPad,CuDef*%
%ADD19C,0.100000*%
%TD*%
%TA.AperFunction,ComponentPad*%
%ADD20O,1.700000X1.700000*%
%TD*%
%TA.AperFunction,ComponentPad*%
%ADD21R,1.700000X1.700000*%
%TD*%
%TA.AperFunction,SMDPad,CuDef*%
%ADD22R,1.450000X2.000000*%
%TD*%
%TA.AperFunction,SMDPad,CuDef*%
%ADD23R,0.800000X1.500000*%
%TD*%
%TA.AperFunction,SMDPad,CuDef*%
%ADD24R,1.000000X1.000000*%
%TD*%
%TA.AperFunction,SMDPad,CuDef*%
%ADD25R,1.050000X2.200000*%
%TD*%
%TA.AperFunction,ComponentPad*%
%ADD26O,1.900000X1.070000*%
%TD*%
%TA.AperFunction,ComponentPad*%
%ADD27C,1.300000*%
%TD*%
%TA.AperFunction,SMDPad,CuDef*%
%ADD28R,1.250000X0.400000*%
%TD*%
%TA.AperFunction,ComponentPad*%
%ADD29O,1.000000X1.000000*%
%TD*%
%TA.AperFunction,ComponentPad*%
%ADD30R,1.000000X1.000000*%
%TD*%
%TA.AperFunction,SMDPad,CuDef*%
%ADD31R,0.900000X1.200000*%
%TD*%
%TA.AperFunction,SMDPad,CuDef*%
%ADD32R,0.600000X0.700000*%
%TD*%
%TA.AperFunction,ViaPad*%
%ADD33C,0.800000*%
%TD*%
%TA.AperFunction,Conductor*%
%ADD34C,0.700000*%
%TD*%
%TA.AperFunction,Conductor*%
%ADD35C,0.500000*%
%TD*%
%TA.AperFunction,Conductor*%
%ADD36C,0.293370*%
%TD*%
%TA.AperFunction,Conductor*%
%ADD37C,0.750000*%
%TD*%
%TA.AperFunction,Conductor*%
%ADD38C,0.450000*%
%TD*%
%TA.AperFunction,Conductor*%
%ADD39C,0.250000*%
%TD*%
%TA.AperFunction,Conductor*%
%ADD40C,1.081880*%
%TD*%
%TA.AperFunction,Conductor*%
%ADD41C,0.261112*%
%TD*%
G04 APERTURE END LIST*
D10*
%TO.P,H503,1*%
%TO.N,GND*%
X95697056Y-50302944D03*
X94000000Y-49600000D03*
X92302944Y-50302944D03*
X91600000Y-52000000D03*
X92302944Y-53697056D03*
X94000000Y-54400000D03*
X95697056Y-53697056D03*
X96400000Y-52000000D03*
D11*
X94000000Y-52000000D03*
%TD*%
D10*
%TO.P,H502,1*%
%TO.N,GND*%
X135697056Y-50302944D03*
X134000000Y-49600000D03*
X132302944Y-50302944D03*
X131600000Y-52000000D03*
X132302944Y-53697056D03*
X134000000Y-54400000D03*
X135697056Y-53697056D03*
X136400000Y-52000000D03*
D11*
X134000000Y-52000000D03*
%TD*%
D10*
%TO.P,H501,1*%
%TO.N,GND*%
X135697056Y-106302944D03*
X134000000Y-105600000D03*
X132302944Y-106302944D03*
X131600000Y-108000000D03*
X132302944Y-109697056D03*
X134000000Y-110400000D03*
X135697056Y-109697056D03*
X136400000Y-108000000D03*
D11*
X134000000Y-108000000D03*
%TD*%
D10*
%TO.P,H500,1*%
%TO.N,GND*%
X95697056Y-106302944D03*
X94000000Y-105600000D03*
X92302944Y-106302944D03*
X91600000Y-108000000D03*
X92302944Y-109697056D03*
X94000000Y-110400000D03*
X95697056Y-109697056D03*
X96400000Y-108000000D03*
D11*
X94000000Y-108000000D03*
%TD*%
%TO.P,U200,1*%
%TO.N,+3V3*%
%TA.AperFunction,SMDPad,CuDef*%
G36*
G01*
X107550000Y-76825000D02*
X107550000Y-76675000D01*
G75*
G02*
X107625000Y-76600000I75000J0D01*
G01*
X109025000Y-76600000D01*
G75*
G02*
X109100000Y-76675000I0J-75000D01*
G01*
X109100000Y-76825000D01*
G75*
G02*
X109025000Y-76900000I-75000J0D01*
G01*
X107625000Y-76900000D01*
G75*
G02*
X107550000Y-76825000I0J75000D01*
G01*
G37*
%TD.AperFunction*%
%TO.P,U200,2*%
%TO.N,CAN_SILENT*%
%TA.AperFunction,SMDPad,CuDef*%
G36*
G01*
X107550000Y-77325000D02*
X107550000Y-77175000D01*
G75*
G02*
X107625000Y-77100000I75000J0D01*
G01*
X109025000Y-77100000D01*
G75*
G02*
X109100000Y-77175000I0J-75000D01*
G01*
X109100000Y-77325000D01*
G75*
G02*
X109025000Y-77400000I-75000J0D01*
G01*
X107625000Y-77400000D01*
G75*
G02*
X107550000Y-77325000I0J75000D01*
G01*
G37*
%TD.AperFunction*%
%TO.P,U200,3*%
%TO.N,N/C*%
%TA.AperFunction,SMDPad,CuDef*%
G36*
G01*
X107550000Y-77825000D02*
X107550000Y-77675000D01*
G75*
G02*
X107625000Y-77600000I75000J0D01*
G01*
X109025000Y-77600000D01*
G75*
G02*
X109100000Y-77675000I0J-75000D01*
G01*
X109100000Y-77825000D01*
G75*
G02*
X109025000Y-77900000I-75000J0D01*
G01*
X107625000Y-77900000D01*
G75*
G02*
X107550000Y-77825000I0J75000D01*
G01*
G37*
%TD.AperFunction*%
%TO.P,U200,4*%
%TA.AperFunction,SMDPad,CuDef*%
G36*
G01*
X107550000Y-78325000D02*
X107550000Y-78175000D01*
G75*
G02*
X107625000Y-78100000I75000J0D01*
G01*
X109025000Y-78100000D01*
G75*
G02*
X109100000Y-78175000I0J-75000D01*
G01*
X109100000Y-78325000D01*
G75*
G02*
X109025000Y-78400000I-75000J0D01*
G01*
X107625000Y-78400000D01*
G75*
G02*
X107550000Y-78325000I0J75000D01*
G01*
G37*
%TD.AperFunction*%
%TO.P,U200,5*%
%TO.N,/Microcontroller/MCU_HSE_IN*%
%TA.AperFunction,SMDPad,CuDef*%
G36*
G01*
X107550000Y-78825000D02*
X107550000Y-78675000D01*
G75*
G02*
X107625000Y-78600000I75000J0D01*
G01*
X109025000Y-78600000D01*
G75*
G02*
X109100000Y-78675000I0J-75000D01*
G01*
X109100000Y-78825000D01*
G75*
G02*
X109025000Y-78900000I-75000J0D01*
G01*
X107625000Y-78900000D01*
G75*
G02*
X107550000Y-78825000I0J75000D01*
G01*
G37*
%TD.AperFunction*%
%TO.P,U200,6*%
%TO.N,/Microcontroller/MCU_HSE_OUT*%
%TA.AperFunction,SMDPad,CuDef*%
G36*
G01*
X107550000Y-79325000D02*
X107550000Y-79175000D01*
G75*
G02*
X107625000Y-79100000I75000J0D01*
G01*
X109025000Y-79100000D01*
G75*
G02*
X109100000Y-79175000I0J-75000D01*
G01*
X109100000Y-79325000D01*
G75*
G02*
X109025000Y-79400000I-75000J0D01*
G01*
X107625000Y-79400000D01*
G75*
G02*
X107550000Y-79325000I0J75000D01*
G01*
G37*
%TD.AperFunction*%
%TO.P,U200,7*%
%TO.N,N/C*%
%TA.AperFunction,SMDPad,CuDef*%
G36*
G01*
X107550000Y-79825000D02*
X107550000Y-79675000D01*
G75*
G02*
X107625000Y-79600000I75000J0D01*
G01*
X109025000Y-79600000D01*
G75*
G02*
X109100000Y-79675000I0J-75000D01*
G01*
X109100000Y-79825000D01*
G75*
G02*
X109025000Y-79900000I-75000J0D01*
G01*
X107625000Y-79900000D01*
G75*
G02*
X107550000Y-79825000I0J75000D01*
G01*
G37*
%TD.AperFunction*%
%TO.P,U200,8*%
%TA.AperFunction,SMDPad,CuDef*%
G36*
G01*
X107550000Y-80325000D02*
X107550000Y-80175000D01*
G75*
G02*
X107625000Y-80100000I75000J0D01*
G01*
X109025000Y-80100000D01*
G75*
G02*
X109100000Y-80175000I0J-75000D01*
G01*
X109100000Y-80325000D01*
G75*
G02*
X109025000Y-80400000I-75000J0D01*
G01*
X107625000Y-80400000D01*
G75*
G02*
X107550000Y-80325000I0J75000D01*
G01*
G37*
%TD.AperFunction*%
%TO.P,U200,9*%
%TO.N,GPS_NRST*%
%TA.AperFunction,SMDPad,CuDef*%
G36*
G01*
X107550000Y-80825000D02*
X107550000Y-80675000D01*
G75*
G02*
X107625000Y-80600000I75000J0D01*
G01*
X109025000Y-80600000D01*
G75*
G02*
X109100000Y-80675000I0J-75000D01*
G01*
X109100000Y-80825000D01*
G75*
G02*
X109025000Y-80900000I-75000J0D01*
G01*
X107625000Y-80900000D01*
G75*
G02*
X107550000Y-80825000I0J75000D01*
G01*
G37*
%TD.AperFunction*%
%TO.P,U200,10*%
%TO.N,N/C*%
%TA.AperFunction,SMDPad,CuDef*%
G36*
G01*
X107550000Y-81325000D02*
X107550000Y-81175000D01*
G75*
G02*
X107625000Y-81100000I75000J0D01*
G01*
X109025000Y-81100000D01*
G75*
G02*
X109100000Y-81175000I0J-75000D01*
G01*
X109100000Y-81325000D01*
G75*
G02*
X109025000Y-81400000I-75000J0D01*
G01*
X107625000Y-81400000D01*
G75*
G02*
X107550000Y-81325000I0J75000D01*
G01*
G37*
%TD.AperFunction*%
%TO.P,U200,11*%
%TA.AperFunction,SMDPad,CuDef*%
G36*
G01*
X107550000Y-81825000D02*
X107550000Y-81675000D01*
G75*
G02*
X107625000Y-81600000I75000J0D01*
G01*
X109025000Y-81600000D01*
G75*
G02*
X109100000Y-81675000I0J-75000D01*
G01*
X109100000Y-81825000D01*
G75*
G02*
X109025000Y-81900000I-75000J0D01*
G01*
X107625000Y-81900000D01*
G75*
G02*
X107550000Y-81825000I0J75000D01*
G01*
G37*
%TD.AperFunction*%
%TO.P,U200,12*%
%TO.N,GND*%
%TA.AperFunction,SMDPad,CuDef*%
G36*
G01*
X107550000Y-82325000D02*
X107550000Y-82175000D01*
G75*
G02*
X107625000Y-82100000I75000J0D01*
G01*
X109025000Y-82100000D01*
G75*
G02*
X109100000Y-82175000I0J-75000D01*
G01*
X109100000Y-82325000D01*
G75*
G02*
X109025000Y-82400000I-75000J0D01*
G01*
X107625000Y-82400000D01*
G75*
G02*
X107550000Y-82325000I0J75000D01*
G01*
G37*
%TD.AperFunction*%
%TO.P,U200,13*%
%TO.N,+3V3*%
%TA.AperFunction,SMDPad,CuDef*%
G36*
G01*
X107550000Y-82825000D02*
X107550000Y-82675000D01*
G75*
G02*
X107625000Y-82600000I75000J0D01*
G01*
X109025000Y-82600000D01*
G75*
G02*
X109100000Y-82675000I0J-75000D01*
G01*
X109100000Y-82825000D01*
G75*
G02*
X109025000Y-82900000I-75000J0D01*
G01*
X107625000Y-82900000D01*
G75*
G02*
X107550000Y-82825000I0J75000D01*
G01*
G37*
%TD.AperFunction*%
%TO.P,U200,14*%
%TO.N,MCU_UART4_TX*%
%TA.AperFunction,SMDPad,CuDef*%
G36*
G01*
X107550000Y-83325000D02*
X107550000Y-83175000D01*
G75*
G02*
X107625000Y-83100000I75000J0D01*
G01*
X109025000Y-83100000D01*
G75*
G02*
X109100000Y-83175000I0J-75000D01*
G01*
X109100000Y-83325000D01*
G75*
G02*
X109025000Y-83400000I-75000J0D01*
G01*
X107625000Y-83400000D01*
G75*
G02*
X107550000Y-83325000I0J75000D01*
G01*
G37*
%TD.AperFunction*%
%TO.P,U200,15*%
%TO.N,MCU_UART4_RX*%
%TA.AperFunction,SMDPad,CuDef*%
G36*
G01*
X107550000Y-83825000D02*
X107550000Y-83675000D01*
G75*
G02*
X107625000Y-83600000I75000J0D01*
G01*
X109025000Y-83600000D01*
G75*
G02*
X109100000Y-83675000I0J-75000D01*
G01*
X109100000Y-83825000D01*
G75*
G02*
X109025000Y-83900000I-75000J0D01*
G01*
X107625000Y-83900000D01*
G75*
G02*
X107550000Y-83825000I0J75000D01*
G01*
G37*
%TD.AperFunction*%
%TO.P,U200,16*%
%TO.N,GPS_ONOFF*%
%TA.AperFunction,SMDPad,CuDef*%
G36*
G01*
X107550000Y-84325000D02*
X107550000Y-84175000D01*
G75*
G02*
X107625000Y-84100000I75000J0D01*
G01*
X109025000Y-84100000D01*
G75*
G02*
X109100000Y-84175000I0J-75000D01*
G01*
X109100000Y-84325000D01*
G75*
G02*
X109025000Y-84400000I-75000J0D01*
G01*
X107625000Y-84400000D01*
G75*
G02*
X107550000Y-84325000I0J75000D01*
G01*
G37*
%TD.AperFunction*%
%TO.P,U200,17*%
%TO.N,GPS_PPS*%
%TA.AperFunction,SMDPad,CuDef*%
G36*
G01*
X110100000Y-86875000D02*
X110100000Y-85475000D01*
G75*
G02*
X110175000Y-85400000I75000J0D01*
G01*
X110325000Y-85400000D01*
G75*
G02*
X110400000Y-85475000I0J-75000D01*
G01*
X110400000Y-86875000D01*
G75*
G02*
X110325000Y-86950000I-75000J0D01*
G01*
X110175000Y-86950000D01*
G75*
G02*
X110100000Y-86875000I0J75000D01*
G01*
G37*
%TD.AperFunction*%
%TO.P,U200,18*%
%TO.N,GND*%
%TA.AperFunction,SMDPad,CuDef*%
G36*
G01*
X110600000Y-86875000D02*
X110600000Y-85475000D01*
G75*
G02*
X110675000Y-85400000I75000J0D01*
G01*
X110825000Y-85400000D01*
G75*
G02*
X110900000Y-85475000I0J-75000D01*
G01*
X110900000Y-86875000D01*
G75*
G02*
X110825000Y-86950000I-75000J0D01*
G01*
X110675000Y-86950000D01*
G75*
G02*
X110600000Y-86875000I0J75000D01*
G01*
G37*
%TD.AperFunction*%
%TO.P,U200,19*%
%TO.N,+3V3*%
%TA.AperFunction,SMDPad,CuDef*%
G36*
G01*
X111100000Y-86875000D02*
X111100000Y-85475000D01*
G75*
G02*
X111175000Y-85400000I75000J0D01*
G01*
X111325000Y-85400000D01*
G75*
G02*
X111400000Y-85475000I0J-75000D01*
G01*
X111400000Y-86875000D01*
G75*
G02*
X111325000Y-86950000I-75000J0D01*
G01*
X111175000Y-86950000D01*
G75*
G02*
X111100000Y-86875000I0J75000D01*
G01*
G37*
%TD.AperFunction*%
%TO.P,U200,20*%
%TO.N,MCU_SPI1_NSS*%
%TA.AperFunction,SMDPad,CuDef*%
G36*
G01*
X111600000Y-86875000D02*
X111600000Y-85475000D01*
G75*
G02*
X111675000Y-85400000I75000J0D01*
G01*
X111825000Y-85400000D01*
G75*
G02*
X111900000Y-85475000I0J-75000D01*
G01*
X111900000Y-86875000D01*
G75*
G02*
X111825000Y-86950000I-75000J0D01*
G01*
X111675000Y-86950000D01*
G75*
G02*
X111600000Y-86875000I0J75000D01*
G01*
G37*
%TD.AperFunction*%
%TO.P,U200,21*%
%TO.N,MCU_SPI1_SCK*%
%TA.AperFunction,SMDPad,CuDef*%
G36*
G01*
X112100000Y-86875000D02*
X112100000Y-85475000D01*
G75*
G02*
X112175000Y-85400000I75000J0D01*
G01*
X112325000Y-85400000D01*
G75*
G02*
X112400000Y-85475000I0J-75000D01*
G01*
X112400000Y-86875000D01*
G75*
G02*
X112325000Y-86950000I-75000J0D01*
G01*
X112175000Y-86950000D01*
G75*
G02*
X112100000Y-86875000I0J75000D01*
G01*
G37*
%TD.AperFunction*%
%TO.P,U200,22*%
%TO.N,MCU_SPI1_MISO*%
%TA.AperFunction,SMDPad,CuDef*%
G36*
G01*
X112600000Y-86875000D02*
X112600000Y-85475000D01*
G75*
G02*
X112675000Y-85400000I75000J0D01*
G01*
X112825000Y-85400000D01*
G75*
G02*
X112900000Y-85475000I0J-75000D01*
G01*
X112900000Y-86875000D01*
G75*
G02*
X112825000Y-86950000I-75000J0D01*
G01*
X112675000Y-86950000D01*
G75*
G02*
X112600000Y-86875000I0J75000D01*
G01*
G37*
%TD.AperFunction*%
%TO.P,U200,23*%
%TO.N,MCU_SPI1_MOSI*%
%TA.AperFunction,SMDPad,CuDef*%
G36*
G01*
X113100000Y-86875000D02*
X113100000Y-85475000D01*
G75*
G02*
X113175000Y-85400000I75000J0D01*
G01*
X113325000Y-85400000D01*
G75*
G02*
X113400000Y-85475000I0J-75000D01*
G01*
X113400000Y-86875000D01*
G75*
G02*
X113325000Y-86950000I-75000J0D01*
G01*
X113175000Y-86950000D01*
G75*
G02*
X113100000Y-86875000I0J75000D01*
G01*
G37*
%TD.AperFunction*%
%TO.P,U200,24*%
%TO.N,N/C*%
%TA.AperFunction,SMDPad,CuDef*%
G36*
G01*
X113600000Y-86875000D02*
X113600000Y-85475000D01*
G75*
G02*
X113675000Y-85400000I75000J0D01*
G01*
X113825000Y-85400000D01*
G75*
G02*
X113900000Y-85475000I0J-75000D01*
G01*
X113900000Y-86875000D01*
G75*
G02*
X113825000Y-86950000I-75000J0D01*
G01*
X113675000Y-86950000D01*
G75*
G02*
X113600000Y-86875000I0J75000D01*
G01*
G37*
%TD.AperFunction*%
%TO.P,U200,25*%
%TA.AperFunction,SMDPad,CuDef*%
G36*
G01*
X114100000Y-86875000D02*
X114100000Y-85475000D01*
G75*
G02*
X114175000Y-85400000I75000J0D01*
G01*
X114325000Y-85400000D01*
G75*
G02*
X114400000Y-85475000I0J-75000D01*
G01*
X114400000Y-86875000D01*
G75*
G02*
X114325000Y-86950000I-75000J0D01*
G01*
X114175000Y-86950000D01*
G75*
G02*
X114100000Y-86875000I0J75000D01*
G01*
G37*
%TD.AperFunction*%
%TO.P,U200,26*%
%TA.AperFunction,SMDPad,CuDef*%
G36*
G01*
X114600000Y-86875000D02*
X114600000Y-85475000D01*
G75*
G02*
X114675000Y-85400000I75000J0D01*
G01*
X114825000Y-85400000D01*
G75*
G02*
X114900000Y-85475000I0J-75000D01*
G01*
X114900000Y-86875000D01*
G75*
G02*
X114825000Y-86950000I-75000J0D01*
G01*
X114675000Y-86950000D01*
G75*
G02*
X114600000Y-86875000I0J75000D01*
G01*
G37*
%TD.AperFunction*%
%TO.P,U200,27*%
%TO.N,IMU_INTERRUPT*%
%TA.AperFunction,SMDPad,CuDef*%
G36*
G01*
X115100000Y-86875000D02*
X115100000Y-85475000D01*
G75*
G02*
X115175000Y-85400000I75000J0D01*
G01*
X115325000Y-85400000D01*
G75*
G02*
X115400000Y-85475000I0J-75000D01*
G01*
X115400000Y-86875000D01*
G75*
G02*
X115325000Y-86950000I-75000J0D01*
G01*
X115175000Y-86950000D01*
G75*
G02*
X115100000Y-86875000I0J75000D01*
G01*
G37*
%TD.AperFunction*%
%TO.P,U200,28*%
%TO.N,/Microcontroller/MCU_BOOT1*%
%TA.AperFunction,SMDPad,CuDef*%
G36*
G01*
X115600000Y-86875000D02*
X115600000Y-85475000D01*
G75*
G02*
X115675000Y-85400000I75000J0D01*
G01*
X115825000Y-85400000D01*
G75*
G02*
X115900000Y-85475000I0J-75000D01*
G01*
X115900000Y-86875000D01*
G75*
G02*
X115825000Y-86950000I-75000J0D01*
G01*
X115675000Y-86950000D01*
G75*
G02*
X115600000Y-86875000I0J75000D01*
G01*
G37*
%TD.AperFunction*%
%TO.P,U200,29*%
%TO.N,MCU_I2C2_SCL*%
%TA.AperFunction,SMDPad,CuDef*%
G36*
G01*
X116100000Y-86875000D02*
X116100000Y-85475000D01*
G75*
G02*
X116175000Y-85400000I75000J0D01*
G01*
X116325000Y-85400000D01*
G75*
G02*
X116400000Y-85475000I0J-75000D01*
G01*
X116400000Y-86875000D01*
G75*
G02*
X116325000Y-86950000I-75000J0D01*
G01*
X116175000Y-86950000D01*
G75*
G02*
X116100000Y-86875000I0J75000D01*
G01*
G37*
%TD.AperFunction*%
%TO.P,U200,30*%
%TO.N,MCU_I2C2_SDA*%
%TA.AperFunction,SMDPad,CuDef*%
G36*
G01*
X116600000Y-86875000D02*
X116600000Y-85475000D01*
G75*
G02*
X116675000Y-85400000I75000J0D01*
G01*
X116825000Y-85400000D01*
G75*
G02*
X116900000Y-85475000I0J-75000D01*
G01*
X116900000Y-86875000D01*
G75*
G02*
X116825000Y-86950000I-75000J0D01*
G01*
X116675000Y-86950000D01*
G75*
G02*
X116600000Y-86875000I0J75000D01*
G01*
G37*
%TD.AperFunction*%
%TO.P,U200,31*%
%TO.N,/Microcontroller/MCU_VCAP1*%
%TA.AperFunction,SMDPad,CuDef*%
G36*
G01*
X117100000Y-86875000D02*
X117100000Y-85475000D01*
G75*
G02*
X117175000Y-85400000I75000J0D01*
G01*
X117325000Y-85400000D01*
G75*
G02*
X117400000Y-85475000I0J-75000D01*
G01*
X117400000Y-86875000D01*
G75*
G02*
X117325000Y-86950000I-75000J0D01*
G01*
X117175000Y-86950000D01*
G75*
G02*
X117100000Y-86875000I0J75000D01*
G01*
G37*
%TD.AperFunction*%
%TO.P,U200,32*%
%TO.N,+3V3*%
%TA.AperFunction,SMDPad,CuDef*%
G36*
G01*
X117600000Y-86875000D02*
X117600000Y-85475000D01*
G75*
G02*
X117675000Y-85400000I75000J0D01*
G01*
X117825000Y-85400000D01*
G75*
G02*
X117900000Y-85475000I0J-75000D01*
G01*
X117900000Y-86875000D01*
G75*
G02*
X117825000Y-86950000I-75000J0D01*
G01*
X117675000Y-86950000D01*
G75*
G02*
X117600000Y-86875000I0J75000D01*
G01*
G37*
%TD.AperFunction*%
%TO.P,U200,33*%
%TO.N,/Microcontroller/MCU_LED_A*%
%TA.AperFunction,SMDPad,CuDef*%
G36*
G01*
X118900000Y-84325000D02*
X118900000Y-84175000D01*
G75*
G02*
X118975000Y-84100000I75000J0D01*
G01*
X120375000Y-84100000D01*
G75*
G02*
X120450000Y-84175000I0J-75000D01*
G01*
X120450000Y-84325000D01*
G75*
G02*
X120375000Y-84400000I-75000J0D01*
G01*
X118975000Y-84400000D01*
G75*
G02*
X118900000Y-84325000I0J75000D01*
G01*
G37*
%TD.AperFunction*%
%TO.P,U200,34*%
%TO.N,N/C*%
%TA.AperFunction,SMDPad,CuDef*%
G36*
G01*
X118900000Y-83825000D02*
X118900000Y-83675000D01*
G75*
G02*
X118975000Y-83600000I75000J0D01*
G01*
X120375000Y-83600000D01*
G75*
G02*
X120450000Y-83675000I0J-75000D01*
G01*
X120450000Y-83825000D01*
G75*
G02*
X120375000Y-83900000I-75000J0D01*
G01*
X118975000Y-83900000D01*
G75*
G02*
X118900000Y-83825000I0J75000D01*
G01*
G37*
%TD.AperFunction*%
%TO.P,U200,35*%
%TA.AperFunction,SMDPad,CuDef*%
G36*
G01*
X118900000Y-83325000D02*
X118900000Y-83175000D01*
G75*
G02*
X118975000Y-83100000I75000J0D01*
G01*
X120375000Y-83100000D01*
G75*
G02*
X120450000Y-83175000I0J-75000D01*
G01*
X120450000Y-83325000D01*
G75*
G02*
X120375000Y-83400000I-75000J0D01*
G01*
X118975000Y-83400000D01*
G75*
G02*
X118900000Y-83325000I0J75000D01*
G01*
G37*
%TD.AperFunction*%
%TO.P,U200,36*%
%TA.AperFunction,SMDPad,CuDef*%
G36*
G01*
X118900000Y-82825000D02*
X118900000Y-82675000D01*
G75*
G02*
X118975000Y-82600000I75000J0D01*
G01*
X120375000Y-82600000D01*
G75*
G02*
X120450000Y-82675000I0J-75000D01*
G01*
X120450000Y-82825000D01*
G75*
G02*
X120375000Y-82900000I-75000J0D01*
G01*
X118975000Y-82900000D01*
G75*
G02*
X118900000Y-82825000I0J75000D01*
G01*
G37*
%TD.AperFunction*%
%TO.P,U200,37*%
%TA.AperFunction,SMDPad,CuDef*%
G36*
G01*
X118900000Y-82325000D02*
X118900000Y-82175000D01*
G75*
G02*
X118975000Y-82100000I75000J0D01*
G01*
X120375000Y-82100000D01*
G75*
G02*
X120450000Y-82175000I0J-75000D01*
G01*
X120450000Y-82325000D01*
G75*
G02*
X120375000Y-82400000I-75000J0D01*
G01*
X118975000Y-82400000D01*
G75*
G02*
X118900000Y-82325000I0J75000D01*
G01*
G37*
%TD.AperFunction*%
%TO.P,U200,38*%
%TA.AperFunction,SMDPad,CuDef*%
G36*
G01*
X118900000Y-81825000D02*
X118900000Y-81675000D01*
G75*
G02*
X118975000Y-81600000I75000J0D01*
G01*
X120375000Y-81600000D01*
G75*
G02*
X120450000Y-81675000I0J-75000D01*
G01*
X120450000Y-81825000D01*
G75*
G02*
X120375000Y-81900000I-75000J0D01*
G01*
X118975000Y-81900000D01*
G75*
G02*
X118900000Y-81825000I0J75000D01*
G01*
G37*
%TD.AperFunction*%
%TO.P,U200,39*%
%TO.N,MCU_SDIO_D0*%
%TA.AperFunction,SMDPad,CuDef*%
G36*
G01*
X118900000Y-81325000D02*
X118900000Y-81175000D01*
G75*
G02*
X118975000Y-81100000I75000J0D01*
G01*
X120375000Y-81100000D01*
G75*
G02*
X120450000Y-81175000I0J-75000D01*
G01*
X120450000Y-81325000D01*
G75*
G02*
X120375000Y-81400000I-75000J0D01*
G01*
X118975000Y-81400000D01*
G75*
G02*
X118900000Y-81325000I0J75000D01*
G01*
G37*
%TD.AperFunction*%
%TO.P,U200,40*%
%TO.N,MCU_SDIO_D1*%
%TA.AperFunction,SMDPad,CuDef*%
G36*
G01*
X118900000Y-80825000D02*
X118900000Y-80675000D01*
G75*
G02*
X118975000Y-80600000I75000J0D01*
G01*
X120375000Y-80600000D01*
G75*
G02*
X120450000Y-80675000I0J-75000D01*
G01*
X120450000Y-80825000D01*
G75*
G02*
X120375000Y-80900000I-75000J0D01*
G01*
X118975000Y-80900000D01*
G75*
G02*
X118900000Y-80825000I0J75000D01*
G01*
G37*
%TD.AperFunction*%
%TO.P,U200,41*%
%TO.N,N/C*%
%TA.AperFunction,SMDPad,CuDef*%
G36*
G01*
X118900000Y-80325000D02*
X118900000Y-80175000D01*
G75*
G02*
X118975000Y-80100000I75000J0D01*
G01*
X120375000Y-80100000D01*
G75*
G02*
X120450000Y-80175000I0J-75000D01*
G01*
X120450000Y-80325000D01*
G75*
G02*
X120375000Y-80400000I-75000J0D01*
G01*
X118975000Y-80400000D01*
G75*
G02*
X118900000Y-80325000I0J75000D01*
G01*
G37*
%TD.AperFunction*%
%TO.P,U200,42*%
%TA.AperFunction,SMDPad,CuDef*%
G36*
G01*
X118900000Y-79825000D02*
X118900000Y-79675000D01*
G75*
G02*
X118975000Y-79600000I75000J0D01*
G01*
X120375000Y-79600000D01*
G75*
G02*
X120450000Y-79675000I0J-75000D01*
G01*
X120450000Y-79825000D01*
G75*
G02*
X120375000Y-79900000I-75000J0D01*
G01*
X118975000Y-79900000D01*
G75*
G02*
X118900000Y-79825000I0J75000D01*
G01*
G37*
%TD.AperFunction*%
%TO.P,U200,43*%
%TA.AperFunction,SMDPad,CuDef*%
G36*
G01*
X118900000Y-79325000D02*
X118900000Y-79175000D01*
G75*
G02*
X118975000Y-79100000I75000J0D01*
G01*
X120375000Y-79100000D01*
G75*
G02*
X120450000Y-79175000I0J-75000D01*
G01*
X120450000Y-79325000D01*
G75*
G02*
X120375000Y-79400000I-75000J0D01*
G01*
X118975000Y-79400000D01*
G75*
G02*
X118900000Y-79325000I0J75000D01*
G01*
G37*
%TD.AperFunction*%
%TO.P,U200,44*%
%TO.N,MCU_USB_D-*%
%TA.AperFunction,SMDPad,CuDef*%
G36*
G01*
X118900000Y-78825000D02*
X118900000Y-78675000D01*
G75*
G02*
X118975000Y-78600000I75000J0D01*
G01*
X120375000Y-78600000D01*
G75*
G02*
X120450000Y-78675000I0J-75000D01*
G01*
X120450000Y-78825000D01*
G75*
G02*
X120375000Y-78900000I-75000J0D01*
G01*
X118975000Y-78900000D01*
G75*
G02*
X118900000Y-78825000I0J75000D01*
G01*
G37*
%TD.AperFunction*%
%TO.P,U200,45*%
%TO.N,MCU_USB_D+*%
%TA.AperFunction,SMDPad,CuDef*%
G36*
G01*
X118900000Y-78325000D02*
X118900000Y-78175000D01*
G75*
G02*
X118975000Y-78100000I75000J0D01*
G01*
X120375000Y-78100000D01*
G75*
G02*
X120450000Y-78175000I0J-75000D01*
G01*
X120450000Y-78325000D01*
G75*
G02*
X120375000Y-78400000I-75000J0D01*
G01*
X118975000Y-78400000D01*
G75*
G02*
X118900000Y-78325000I0J75000D01*
G01*
G37*
%TD.AperFunction*%
%TO.P,U200,46*%
%TO.N,MCU_SWDIO*%
%TA.AperFunction,SMDPad,CuDef*%
G36*
G01*
X118900000Y-77825000D02*
X118900000Y-77675000D01*
G75*
G02*
X118975000Y-77600000I75000J0D01*
G01*
X120375000Y-77600000D01*
G75*
G02*
X120450000Y-77675000I0J-75000D01*
G01*
X120450000Y-77825000D01*
G75*
G02*
X120375000Y-77900000I-75000J0D01*
G01*
X118975000Y-77900000D01*
G75*
G02*
X118900000Y-77825000I0J75000D01*
G01*
G37*
%TD.AperFunction*%
%TO.P,U200,47*%
%TO.N,/Microcontroller/MCU_VCAP2*%
%TA.AperFunction,SMDPad,CuDef*%
G36*
G01*
X118900000Y-77325000D02*
X118900000Y-77175000D01*
G75*
G02*
X118975000Y-77100000I75000J0D01*
G01*
X120375000Y-77100000D01*
G75*
G02*
X120450000Y-77175000I0J-75000D01*
G01*
X120450000Y-77325000D01*
G75*
G02*
X120375000Y-77400000I-75000J0D01*
G01*
X118975000Y-77400000D01*
G75*
G02*
X118900000Y-77325000I0J75000D01*
G01*
G37*
%TD.AperFunction*%
%TO.P,U200,48*%
%TO.N,+3V3*%
%TA.AperFunction,SMDPad,CuDef*%
G36*
G01*
X118900000Y-76825000D02*
X118900000Y-76675000D01*
G75*
G02*
X118975000Y-76600000I75000J0D01*
G01*
X120375000Y-76600000D01*
G75*
G02*
X120450000Y-76675000I0J-75000D01*
G01*
X120450000Y-76825000D01*
G75*
G02*
X120375000Y-76900000I-75000J0D01*
G01*
X118975000Y-76900000D01*
G75*
G02*
X118900000Y-76825000I0J75000D01*
G01*
G37*
%TD.AperFunction*%
%TO.P,U200,49*%
%TO.N,MCU_SWCLK*%
%TA.AperFunction,SMDPad,CuDef*%
G36*
G01*
X117600000Y-75525000D02*
X117600000Y-74125000D01*
G75*
G02*
X117675000Y-74050000I75000J0D01*
G01*
X117825000Y-74050000D01*
G75*
G02*
X117900000Y-74125000I0J-75000D01*
G01*
X117900000Y-75525000D01*
G75*
G02*
X117825000Y-75600000I-75000J0D01*
G01*
X117675000Y-75600000D01*
G75*
G02*
X117600000Y-75525000I0J75000D01*
G01*
G37*
%TD.AperFunction*%
%TO.P,U200,50*%
%TO.N,N/C*%
%TA.AperFunction,SMDPad,CuDef*%
G36*
G01*
X117100000Y-75525000D02*
X117100000Y-74125000D01*
G75*
G02*
X117175000Y-74050000I75000J0D01*
G01*
X117325000Y-74050000D01*
G75*
G02*
X117400000Y-74125000I0J-75000D01*
G01*
X117400000Y-75525000D01*
G75*
G02*
X117325000Y-75600000I-75000J0D01*
G01*
X117175000Y-75600000D01*
G75*
G02*
X117100000Y-75525000I0J75000D01*
G01*
G37*
%TD.AperFunction*%
%TO.P,U200,51*%
%TO.N,MCU_SDIO_D2*%
%TA.AperFunction,SMDPad,CuDef*%
G36*
G01*
X116600000Y-75525000D02*
X116600000Y-74125000D01*
G75*
G02*
X116675000Y-74050000I75000J0D01*
G01*
X116825000Y-74050000D01*
G75*
G02*
X116900000Y-74125000I0J-75000D01*
G01*
X116900000Y-75525000D01*
G75*
G02*
X116825000Y-75600000I-75000J0D01*
G01*
X116675000Y-75600000D01*
G75*
G02*
X116600000Y-75525000I0J75000D01*
G01*
G37*
%TD.AperFunction*%
%TO.P,U200,52*%
%TO.N,MCU_SDIO_D3*%
%TA.AperFunction,SMDPad,CuDef*%
G36*
G01*
X116100000Y-75525000D02*
X116100000Y-74125000D01*
G75*
G02*
X116175000Y-74050000I75000J0D01*
G01*
X116325000Y-74050000D01*
G75*
G02*
X116400000Y-74125000I0J-75000D01*
G01*
X116400000Y-75525000D01*
G75*
G02*
X116325000Y-75600000I-75000J0D01*
G01*
X116175000Y-75600000D01*
G75*
G02*
X116100000Y-75525000I0J75000D01*
G01*
G37*
%TD.AperFunction*%
%TO.P,U200,53*%
%TO.N,MCU_SDIO_CK*%
%TA.AperFunction,SMDPad,CuDef*%
G36*
G01*
X115600000Y-75525000D02*
X115600000Y-74125000D01*
G75*
G02*
X115675000Y-74050000I75000J0D01*
G01*
X115825000Y-74050000D01*
G75*
G02*
X115900000Y-74125000I0J-75000D01*
G01*
X115900000Y-75525000D01*
G75*
G02*
X115825000Y-75600000I-75000J0D01*
G01*
X115675000Y-75600000D01*
G75*
G02*
X115600000Y-75525000I0J75000D01*
G01*
G37*
%TD.AperFunction*%
%TO.P,U200,54*%
%TO.N,MCU_SDIO_CMD*%
%TA.AperFunction,SMDPad,CuDef*%
G36*
G01*
X115100000Y-75525000D02*
X115100000Y-74125000D01*
G75*
G02*
X115175000Y-74050000I75000J0D01*
G01*
X115325000Y-74050000D01*
G75*
G02*
X115400000Y-74125000I0J-75000D01*
G01*
X115400000Y-75525000D01*
G75*
G02*
X115325000Y-75600000I-75000J0D01*
G01*
X115175000Y-75600000D01*
G75*
G02*
X115100000Y-75525000I0J75000D01*
G01*
G37*
%TD.AperFunction*%
%TO.P,U200,55*%
%TO.N,MCU_SWO*%
%TA.AperFunction,SMDPad,CuDef*%
G36*
G01*
X114600000Y-75525000D02*
X114600000Y-74125000D01*
G75*
G02*
X114675000Y-74050000I75000J0D01*
G01*
X114825000Y-74050000D01*
G75*
G02*
X114900000Y-74125000I0J-75000D01*
G01*
X114900000Y-75525000D01*
G75*
G02*
X114825000Y-75600000I-75000J0D01*
G01*
X114675000Y-75600000D01*
G75*
G02*
X114600000Y-75525000I0J75000D01*
G01*
G37*
%TD.AperFunction*%
%TO.P,U200,56*%
%TO.N,N/C*%
%TA.AperFunction,SMDPad,CuDef*%
G36*
G01*
X114100000Y-75525000D02*
X114100000Y-74125000D01*
G75*
G02*
X114175000Y-74050000I75000J0D01*
G01*
X114325000Y-74050000D01*
G75*
G02*
X114400000Y-74125000I0J-75000D01*
G01*
X114400000Y-75525000D01*
G75*
G02*
X114325000Y-75600000I-75000J0D01*
G01*
X114175000Y-75600000D01*
G75*
G02*
X114100000Y-75525000I0J75000D01*
G01*
G37*
%TD.AperFunction*%
%TO.P,U200,57*%
%TA.AperFunction,SMDPad,CuDef*%
G36*
G01*
X113600000Y-75525000D02*
X113600000Y-74125000D01*
G75*
G02*
X113675000Y-74050000I75000J0D01*
G01*
X113825000Y-74050000D01*
G75*
G02*
X113900000Y-74125000I0J-75000D01*
G01*
X113900000Y-75525000D01*
G75*
G02*
X113825000Y-75600000I-75000J0D01*
G01*
X113675000Y-75600000D01*
G75*
G02*
X113600000Y-75525000I0J75000D01*
G01*
G37*
%TD.AperFunction*%
%TO.P,U200,58*%
%TA.AperFunction,SMDPad,CuDef*%
G36*
G01*
X113100000Y-75525000D02*
X113100000Y-74125000D01*
G75*
G02*
X113175000Y-74050000I75000J0D01*
G01*
X113325000Y-74050000D01*
G75*
G02*
X113400000Y-74125000I0J-75000D01*
G01*
X113400000Y-75525000D01*
G75*
G02*
X113325000Y-75600000I-75000J0D01*
G01*
X113175000Y-75600000D01*
G75*
G02*
X113100000Y-75525000I0J75000D01*
G01*
G37*
%TD.AperFunction*%
%TO.P,U200,59*%
%TA.AperFunction,SMDPad,CuDef*%
G36*
G01*
X112600000Y-75525000D02*
X112600000Y-74125000D01*
G75*
G02*
X112675000Y-74050000I75000J0D01*
G01*
X112825000Y-74050000D01*
G75*
G02*
X112900000Y-74125000I0J-75000D01*
G01*
X112900000Y-75525000D01*
G75*
G02*
X112825000Y-75600000I-75000J0D01*
G01*
X112675000Y-75600000D01*
G75*
G02*
X112600000Y-75525000I0J75000D01*
G01*
G37*
%TD.AperFunction*%
%TO.P,U200,60*%
%TO.N,/Microcontroller/MCU_BOOT0*%
%TA.AperFunction,SMDPad,CuDef*%
G36*
G01*
X112100000Y-75525000D02*
X112100000Y-74125000D01*
G75*
G02*
X112175000Y-74050000I75000J0D01*
G01*
X112325000Y-74050000D01*
G75*
G02*
X112400000Y-74125000I0J-75000D01*
G01*
X112400000Y-75525000D01*
G75*
G02*
X112325000Y-75600000I-75000J0D01*
G01*
X112175000Y-75600000D01*
G75*
G02*
X112100000Y-75525000I0J75000D01*
G01*
G37*
%TD.AperFunction*%
%TO.P,U200,61*%
%TO.N,MCU_CAN1_RX*%
%TA.AperFunction,SMDPad,CuDef*%
G36*
G01*
X111600000Y-75525000D02*
X111600000Y-74125000D01*
G75*
G02*
X111675000Y-74050000I75000J0D01*
G01*
X111825000Y-74050000D01*
G75*
G02*
X111900000Y-74125000I0J-75000D01*
G01*
X111900000Y-75525000D01*
G75*
G02*
X111825000Y-75600000I-75000J0D01*
G01*
X111675000Y-75600000D01*
G75*
G02*
X111600000Y-75525000I0J75000D01*
G01*
G37*
%TD.AperFunction*%
%TO.P,U200,62*%
%TO.N,MCU_CAN1_TX*%
%TA.AperFunction,SMDPad,CuDef*%
G36*
G01*
X111100000Y-75525000D02*
X111100000Y-74125000D01*
G75*
G02*
X111175000Y-74050000I75000J0D01*
G01*
X111325000Y-74050000D01*
G75*
G02*
X111400000Y-74125000I0J-75000D01*
G01*
X111400000Y-75525000D01*
G75*
G02*
X111325000Y-75600000I-75000J0D01*
G01*
X111175000Y-75600000D01*
G75*
G02*
X111100000Y-75525000I0J75000D01*
G01*
G37*
%TD.AperFunction*%
%TO.P,U200,63*%
%TO.N,GND*%
%TA.AperFunction,SMDPad,CuDef*%
G36*
G01*
X110600000Y-75525000D02*
X110600000Y-74125000D01*
G75*
G02*
X110675000Y-74050000I75000J0D01*
G01*
X110825000Y-74050000D01*
G75*
G02*
X110900000Y-74125000I0J-75000D01*
G01*
X110900000Y-75525000D01*
G75*
G02*
X110825000Y-75600000I-75000J0D01*
G01*
X110675000Y-75600000D01*
G75*
G02*
X110600000Y-75525000I0J75000D01*
G01*
G37*
%TD.AperFunction*%
%TO.P,U200,64*%
%TO.N,+3V3*%
%TA.AperFunction,SMDPad,CuDef*%
G36*
G01*
X110100000Y-75525000D02*
X110100000Y-74125000D01*
G75*
G02*
X110175000Y-74050000I75000J0D01*
G01*
X110325000Y-74050000D01*
G75*
G02*
X110400000Y-74125000I0J-75000D01*
G01*
X110400000Y-75525000D01*
G75*
G02*
X110325000Y-75600000I-75000J0D01*
G01*
X110175000Y-75600000D01*
G75*
G02*
X110100000Y-75525000I0J75000D01*
G01*
G37*
%TD.AperFunction*%
%TD*%
%TO.P,FB500,2*%
%TO.N,+3V3*%
%TA.AperFunction,SMDPad,CuDef*%
G36*
G01*
X126843750Y-57450000D02*
X127356250Y-57450000D01*
G75*
G02*
X127575000Y-57668750I0J-218750D01*
G01*
X127575000Y-58106250D01*
G75*
G02*
X127356250Y-58325000I-218750J0D01*
G01*
X126843750Y-58325000D01*
G75*
G02*
X126625000Y-58106250I0J218750D01*
G01*
X126625000Y-57668750D01*
G75*
G02*
X126843750Y-57450000I218750J0D01*
G01*
G37*
%TD.AperFunction*%
%TO.P,FB500,1*%
%TO.N,/Miscellaneous/SD_VDD*%
%TA.AperFunction,SMDPad,CuDef*%
G36*
G01*
X126843750Y-55875000D02*
X127356250Y-55875000D01*
G75*
G02*
X127575000Y-56093750I0J-218750D01*
G01*
X127575000Y-56531250D01*
G75*
G02*
X127356250Y-56750000I-218750J0D01*
G01*
X126843750Y-56750000D01*
G75*
G02*
X126625000Y-56531250I0J218750D01*
G01*
X126625000Y-56093750D01*
G75*
G02*
X126843750Y-55875000I218750J0D01*
G01*
G37*
%TD.AperFunction*%
%TD*%
D12*
%TO.P,Y200,4*%
%TO.N,GND*%
X102750000Y-77800000D03*
%TO.P,Y200,3*%
%TO.N,/Microcontroller/MCU_HSE_OUT_R*%
X102750000Y-80000000D03*
%TO.P,Y200,2*%
%TO.N,GND*%
X101050000Y-80000000D03*
%TO.P,Y200,1*%
%TO.N,/Microcontroller/MCU_HSE_IN*%
X101050000Y-77800000D03*
%TD*%
%TO.P,U500,8*%
%TO.N,CAN_SILENT*%
%TA.AperFunction,SMDPad,CuDef*%
G36*
G01*
X98300000Y-66755000D02*
X98300000Y-67055000D01*
G75*
G02*
X98150000Y-67205000I-150000J0D01*
G01*
X96500000Y-67205000D01*
G75*
G02*
X96350000Y-67055000I0J150000D01*
G01*
X96350000Y-66755000D01*
G75*
G02*
X96500000Y-66605000I150000J0D01*
G01*
X98150000Y-66605000D01*
G75*
G02*
X98300000Y-66755000I0J-150000D01*
G01*
G37*
%TD.AperFunction*%
%TO.P,U500,7*%
%TO.N,/Miscellaneous/CAN+*%
%TA.AperFunction,SMDPad,CuDef*%
G36*
G01*
X98300000Y-65485000D02*
X98300000Y-65785000D01*
G75*
G02*
X98150000Y-65935000I-150000J0D01*
G01*
X96500000Y-65935000D01*
G75*
G02*
X96350000Y-65785000I0J150000D01*
G01*
X96350000Y-65485000D01*
G75*
G02*
X96500000Y-65335000I150000J0D01*
G01*
X98150000Y-65335000D01*
G75*
G02*
X98300000Y-65485000I0J-150000D01*
G01*
G37*
%TD.AperFunction*%
%TO.P,U500,6*%
%TO.N,/Miscellaneous/CAN-*%
%TA.AperFunction,SMDPad,CuDef*%
G36*
G01*
X98300000Y-64215000D02*
X98300000Y-64515000D01*
G75*
G02*
X98150000Y-64665000I-150000J0D01*
G01*
X96500000Y-64665000D01*
G75*
G02*
X96350000Y-64515000I0J150000D01*
G01*
X96350000Y-64215000D01*
G75*
G02*
X96500000Y-64065000I150000J0D01*
G01*
X98150000Y-64065000D01*
G75*
G02*
X98300000Y-64215000I0J-150000D01*
G01*
G37*
%TD.AperFunction*%
%TO.P,U500,5*%
%TO.N,+3V3*%
%TA.AperFunction,SMDPad,CuDef*%
G36*
G01*
X98300000Y-62945000D02*
X98300000Y-63245000D01*
G75*
G02*
X98150000Y-63395000I-150000J0D01*
G01*
X96500000Y-63395000D01*
G75*
G02*
X96350000Y-63245000I0J150000D01*
G01*
X96350000Y-62945000D01*
G75*
G02*
X96500000Y-62795000I150000J0D01*
G01*
X98150000Y-62795000D01*
G75*
G02*
X98300000Y-62945000I0J-150000D01*
G01*
G37*
%TD.AperFunction*%
%TO.P,U500,4*%
%TO.N,MCU_CAN1_RX*%
%TA.AperFunction,SMDPad,CuDef*%
G36*
G01*
X103250000Y-62945000D02*
X103250000Y-63245000D01*
G75*
G02*
X103100000Y-63395000I-150000J0D01*
G01*
X101450000Y-63395000D01*
G75*
G02*
X101300000Y-63245000I0J150000D01*
G01*
X101300000Y-62945000D01*
G75*
G02*
X101450000Y-62795000I150000J0D01*
G01*
X103100000Y-62795000D01*
G75*
G02*
X103250000Y-62945000I0J-150000D01*
G01*
G37*
%TD.AperFunction*%
%TO.P,U500,3*%
%TO.N,+5V*%
%TA.AperFunction,SMDPad,CuDef*%
G36*
G01*
X103250000Y-64215000D02*
X103250000Y-64515000D01*
G75*
G02*
X103100000Y-64665000I-150000J0D01*
G01*
X101450000Y-64665000D01*
G75*
G02*
X101300000Y-64515000I0J150000D01*
G01*
X101300000Y-64215000D01*
G75*
G02*
X101450000Y-64065000I150000J0D01*
G01*
X103100000Y-64065000D01*
G75*
G02*
X103250000Y-64215000I0J-150000D01*
G01*
G37*
%TD.AperFunction*%
%TO.P,U500,2*%
%TO.N,GND*%
%TA.AperFunction,SMDPad,CuDef*%
G36*
G01*
X103250000Y-65485000D02*
X103250000Y-65785000D01*
G75*
G02*
X103100000Y-65935000I-150000J0D01*
G01*
X101450000Y-65935000D01*
G75*
G02*
X101300000Y-65785000I0J150000D01*
G01*
X101300000Y-65485000D01*
G75*
G02*
X101450000Y-65335000I150000J0D01*
G01*
X103100000Y-65335000D01*
G75*
G02*
X103250000Y-65485000I0J-150000D01*
G01*
G37*
%TD.AperFunction*%
%TO.P,U500,1*%
%TO.N,MCU_CAN1_TX*%
%TA.AperFunction,SMDPad,CuDef*%
G36*
G01*
X103250000Y-66755000D02*
X103250000Y-67055000D01*
G75*
G02*
X103100000Y-67205000I-150000J0D01*
G01*
X101450000Y-67205000D01*
G75*
G02*
X101300000Y-67055000I0J150000D01*
G01*
X101300000Y-66755000D01*
G75*
G02*
X101450000Y-66605000I150000J0D01*
G01*
X103100000Y-66605000D01*
G75*
G02*
X103250000Y-66755000I0J-150000D01*
G01*
G37*
%TD.AperFunction*%
%TD*%
%TO.P,U401,1*%
%TO.N,N/C*%
%TA.AperFunction,SMDPad,CuDef*%
G36*
G01*
X117315000Y-104585000D02*
X117315000Y-104435000D01*
G75*
G02*
X117390000Y-104360000I75000J0D01*
G01*
X118090000Y-104360000D01*
G75*
G02*
X118165000Y-104435000I0J-75000D01*
G01*
X118165000Y-104585000D01*
G75*
G02*
X118090000Y-104660000I-75000J0D01*
G01*
X117390000Y-104660000D01*
G75*
G02*
X117315000Y-104585000I0J75000D01*
G01*
G37*
%TD.AperFunction*%
%TO.P,U401,2*%
%TA.AperFunction,SMDPad,CuDef*%
G36*
G01*
X117315000Y-105085000D02*
X117315000Y-104935000D01*
G75*
G02*
X117390000Y-104860000I75000J0D01*
G01*
X118090000Y-104860000D01*
G75*
G02*
X118165000Y-104935000I0J-75000D01*
G01*
X118165000Y-105085000D01*
G75*
G02*
X118090000Y-105160000I-75000J0D01*
G01*
X117390000Y-105160000D01*
G75*
G02*
X117315000Y-105085000I0J75000D01*
G01*
G37*
%TD.AperFunction*%
%TO.P,U401,3*%
%TA.AperFunction,SMDPad,CuDef*%
G36*
G01*
X117315000Y-105585000D02*
X117315000Y-105435000D01*
G75*
G02*
X117390000Y-105360000I75000J0D01*
G01*
X118090000Y-105360000D01*
G75*
G02*
X118165000Y-105435000I0J-75000D01*
G01*
X118165000Y-105585000D01*
G75*
G02*
X118090000Y-105660000I-75000J0D01*
G01*
X117390000Y-105660000D01*
G75*
G02*
X117315000Y-105585000I0J75000D01*
G01*
G37*
%TD.AperFunction*%
%TO.P,U401,4*%
%TA.AperFunction,SMDPad,CuDef*%
G36*
G01*
X117315000Y-106085000D02*
X117315000Y-105935000D01*
G75*
G02*
X117390000Y-105860000I75000J0D01*
G01*
X118090000Y-105860000D01*
G75*
G02*
X118165000Y-105935000I0J-75000D01*
G01*
X118165000Y-106085000D01*
G75*
G02*
X118090000Y-106160000I-75000J0D01*
G01*
X117390000Y-106160000D01*
G75*
G02*
X117315000Y-106085000I0J75000D01*
G01*
G37*
%TD.AperFunction*%
%TO.P,U401,5*%
%TA.AperFunction,SMDPad,CuDef*%
G36*
G01*
X117315000Y-106585000D02*
X117315000Y-106435000D01*
G75*
G02*
X117390000Y-106360000I75000J0D01*
G01*
X118090000Y-106360000D01*
G75*
G02*
X118165000Y-106435000I0J-75000D01*
G01*
X118165000Y-106585000D01*
G75*
G02*
X118090000Y-106660000I-75000J0D01*
G01*
X117390000Y-106660000D01*
G75*
G02*
X117315000Y-106585000I0J75000D01*
G01*
G37*
%TD.AperFunction*%
%TO.P,U401,6*%
%TA.AperFunction,SMDPad,CuDef*%
G36*
G01*
X117315000Y-107085000D02*
X117315000Y-106935000D01*
G75*
G02*
X117390000Y-106860000I75000J0D01*
G01*
X118090000Y-106860000D01*
G75*
G02*
X118165000Y-106935000I0J-75000D01*
G01*
X118165000Y-107085000D01*
G75*
G02*
X118090000Y-107160000I-75000J0D01*
G01*
X117390000Y-107160000D01*
G75*
G02*
X117315000Y-107085000I0J75000D01*
G01*
G37*
%TD.AperFunction*%
%TO.P,U401,7*%
%TA.AperFunction,SMDPad,CuDef*%
G36*
G01*
X118515000Y-108135000D02*
X118365000Y-108135000D01*
G75*
G02*
X118290000Y-108060000I0J75000D01*
G01*
X118290000Y-107360000D01*
G75*
G02*
X118365000Y-107285000I75000J0D01*
G01*
X118515000Y-107285000D01*
G75*
G02*
X118590000Y-107360000I0J-75000D01*
G01*
X118590000Y-108060000D01*
G75*
G02*
X118515000Y-108135000I-75000J0D01*
G01*
G37*
%TD.AperFunction*%
%TO.P,U401,8*%
%TO.N,+3V3*%
%TA.AperFunction,SMDPad,CuDef*%
G36*
G01*
X119015000Y-108135000D02*
X118865000Y-108135000D01*
G75*
G02*
X118790000Y-108060000I0J75000D01*
G01*
X118790000Y-107360000D01*
G75*
G02*
X118865000Y-107285000I75000J0D01*
G01*
X119015000Y-107285000D01*
G75*
G02*
X119090000Y-107360000I0J-75000D01*
G01*
X119090000Y-108060000D01*
G75*
G02*
X119015000Y-108135000I-75000J0D01*
G01*
G37*
%TD.AperFunction*%
%TO.P,U401,9*%
%TO.N,GND*%
%TA.AperFunction,SMDPad,CuDef*%
G36*
G01*
X119515000Y-108135000D02*
X119365000Y-108135000D01*
G75*
G02*
X119290000Y-108060000I0J75000D01*
G01*
X119290000Y-107360000D01*
G75*
G02*
X119365000Y-107285000I75000J0D01*
G01*
X119515000Y-107285000D01*
G75*
G02*
X119590000Y-107360000I0J-75000D01*
G01*
X119590000Y-108060000D01*
G75*
G02*
X119515000Y-108135000I-75000J0D01*
G01*
G37*
%TD.AperFunction*%
%TO.P,U401,10*%
%TO.N,/Sensors/IMU_REGOUT*%
%TA.AperFunction,SMDPad,CuDef*%
G36*
G01*
X120015000Y-108135000D02*
X119865000Y-108135000D01*
G75*
G02*
X119790000Y-108060000I0J75000D01*
G01*
X119790000Y-107360000D01*
G75*
G02*
X119865000Y-107285000I75000J0D01*
G01*
X120015000Y-107285000D01*
G75*
G02*
X120090000Y-107360000I0J-75000D01*
G01*
X120090000Y-108060000D01*
G75*
G02*
X120015000Y-108135000I-75000J0D01*
G01*
G37*
%TD.AperFunction*%
%TO.P,U401,11*%
%TO.N,N/C*%
%TA.AperFunction,SMDPad,CuDef*%
G36*
G01*
X120515000Y-108135000D02*
X120365000Y-108135000D01*
G75*
G02*
X120290000Y-108060000I0J75000D01*
G01*
X120290000Y-107360000D01*
G75*
G02*
X120365000Y-107285000I75000J0D01*
G01*
X120515000Y-107285000D01*
G75*
G02*
X120590000Y-107360000I0J-75000D01*
G01*
X120590000Y-108060000D01*
G75*
G02*
X120515000Y-108135000I-75000J0D01*
G01*
G37*
%TD.AperFunction*%
%TO.P,U401,12*%
%TO.N,IMU_INTERRUPT*%
%TA.AperFunction,SMDPad,CuDef*%
G36*
G01*
X121015000Y-108135000D02*
X120865000Y-108135000D01*
G75*
G02*
X120790000Y-108060000I0J75000D01*
G01*
X120790000Y-107360000D01*
G75*
G02*
X120865000Y-107285000I75000J0D01*
G01*
X121015000Y-107285000D01*
G75*
G02*
X121090000Y-107360000I0J-75000D01*
G01*
X121090000Y-108060000D01*
G75*
G02*
X121015000Y-108135000I-75000J0D01*
G01*
G37*
%TD.AperFunction*%
%TO.P,U401,13*%
%TO.N,+3V3*%
%TA.AperFunction,SMDPad,CuDef*%
G36*
G01*
X121215000Y-107085000D02*
X121215000Y-106935000D01*
G75*
G02*
X121290000Y-106860000I75000J0D01*
G01*
X121990000Y-106860000D01*
G75*
G02*
X122065000Y-106935000I0J-75000D01*
G01*
X122065000Y-107085000D01*
G75*
G02*
X121990000Y-107160000I-75000J0D01*
G01*
X121290000Y-107160000D01*
G75*
G02*
X121215000Y-107085000I0J75000D01*
G01*
G37*
%TD.AperFunction*%
%TO.P,U401,14*%
%TO.N,N/C*%
%TA.AperFunction,SMDPad,CuDef*%
G36*
G01*
X121215000Y-106585000D02*
X121215000Y-106435000D01*
G75*
G02*
X121290000Y-106360000I75000J0D01*
G01*
X121990000Y-106360000D01*
G75*
G02*
X122065000Y-106435000I0J-75000D01*
G01*
X122065000Y-106585000D01*
G75*
G02*
X121990000Y-106660000I-75000J0D01*
G01*
X121290000Y-106660000D01*
G75*
G02*
X121215000Y-106585000I0J75000D01*
G01*
G37*
%TD.AperFunction*%
%TO.P,U401,15*%
%TA.AperFunction,SMDPad,CuDef*%
G36*
G01*
X121215000Y-106085000D02*
X121215000Y-105935000D01*
G75*
G02*
X121290000Y-105860000I75000J0D01*
G01*
X121990000Y-105860000D01*
G75*
G02*
X122065000Y-105935000I0J-75000D01*
G01*
X122065000Y-106085000D01*
G75*
G02*
X121990000Y-106160000I-75000J0D01*
G01*
X121290000Y-106160000D01*
G75*
G02*
X121215000Y-106085000I0J75000D01*
G01*
G37*
%TD.AperFunction*%
%TO.P,U401,16*%
%TA.AperFunction,SMDPad,CuDef*%
G36*
G01*
X121215000Y-105585000D02*
X121215000Y-105435000D01*
G75*
G02*
X121290000Y-105360000I75000J0D01*
G01*
X121990000Y-105360000D01*
G75*
G02*
X122065000Y-105435000I0J-75000D01*
G01*
X122065000Y-105585000D01*
G75*
G02*
X121990000Y-105660000I-75000J0D01*
G01*
X121290000Y-105660000D01*
G75*
G02*
X121215000Y-105585000I0J75000D01*
G01*
G37*
%TD.AperFunction*%
%TO.P,U401,17*%
%TA.AperFunction,SMDPad,CuDef*%
G36*
G01*
X121215000Y-105085000D02*
X121215000Y-104935000D01*
G75*
G02*
X121290000Y-104860000I75000J0D01*
G01*
X121990000Y-104860000D01*
G75*
G02*
X122065000Y-104935000I0J-75000D01*
G01*
X122065000Y-105085000D01*
G75*
G02*
X121990000Y-105160000I-75000J0D01*
G01*
X121290000Y-105160000D01*
G75*
G02*
X121215000Y-105085000I0J75000D01*
G01*
G37*
%TD.AperFunction*%
%TO.P,U401,18*%
%TO.N,GND*%
%TA.AperFunction,SMDPad,CuDef*%
G36*
G01*
X121215000Y-104585000D02*
X121215000Y-104435000D01*
G75*
G02*
X121290000Y-104360000I75000J0D01*
G01*
X121990000Y-104360000D01*
G75*
G02*
X122065000Y-104435000I0J-75000D01*
G01*
X122065000Y-104585000D01*
G75*
G02*
X121990000Y-104660000I-75000J0D01*
G01*
X121290000Y-104660000D01*
G75*
G02*
X121215000Y-104585000I0J75000D01*
G01*
G37*
%TD.AperFunction*%
%TO.P,U401,19*%
%TO.N,N/C*%
%TA.AperFunction,SMDPad,CuDef*%
G36*
G01*
X121015000Y-104235000D02*
X120865000Y-104235000D01*
G75*
G02*
X120790000Y-104160000I0J75000D01*
G01*
X120790000Y-103460000D01*
G75*
G02*
X120865000Y-103385000I75000J0D01*
G01*
X121015000Y-103385000D01*
G75*
G02*
X121090000Y-103460000I0J-75000D01*
G01*
X121090000Y-104160000D01*
G75*
G02*
X121015000Y-104235000I-75000J0D01*
G01*
G37*
%TD.AperFunction*%
%TO.P,U401,20*%
%TO.N,/Sensors/IMU_CPOUT*%
%TA.AperFunction,SMDPad,CuDef*%
G36*
G01*
X120515000Y-104235000D02*
X120365000Y-104235000D01*
G75*
G02*
X120290000Y-104160000I0J75000D01*
G01*
X120290000Y-103460000D01*
G75*
G02*
X120365000Y-103385000I75000J0D01*
G01*
X120515000Y-103385000D01*
G75*
G02*
X120590000Y-103460000I0J-75000D01*
G01*
X120590000Y-104160000D01*
G75*
G02*
X120515000Y-104235000I-75000J0D01*
G01*
G37*
%TD.AperFunction*%
%TO.P,U401,21*%
%TO.N,N/C*%
%TA.AperFunction,SMDPad,CuDef*%
G36*
G01*
X120015000Y-104235000D02*
X119865000Y-104235000D01*
G75*
G02*
X119790000Y-104160000I0J75000D01*
G01*
X119790000Y-103460000D01*
G75*
G02*
X119865000Y-103385000I75000J0D01*
G01*
X120015000Y-103385000D01*
G75*
G02*
X120090000Y-103460000I0J-75000D01*
G01*
X120090000Y-104160000D01*
G75*
G02*
X120015000Y-104235000I-75000J0D01*
G01*
G37*
%TD.AperFunction*%
%TO.P,U401,22*%
%TA.AperFunction,SMDPad,CuDef*%
G36*
G01*
X119515000Y-104235000D02*
X119365000Y-104235000D01*
G75*
G02*
X119290000Y-104160000I0J75000D01*
G01*
X119290000Y-103460000D01*
G75*
G02*
X119365000Y-103385000I75000J0D01*
G01*
X119515000Y-103385000D01*
G75*
G02*
X119590000Y-103460000I0J-75000D01*
G01*
X119590000Y-104160000D01*
G75*
G02*
X119515000Y-104235000I-75000J0D01*
G01*
G37*
%TD.AperFunction*%
%TO.P,U401,23*%
%TO.N,MCU_I2C2_SCL*%
%TA.AperFunction,SMDPad,CuDef*%
G36*
G01*
X119015000Y-104235000D02*
X118865000Y-104235000D01*
G75*
G02*
X118790000Y-104160000I0J75000D01*
G01*
X118790000Y-103460000D01*
G75*
G02*
X118865000Y-103385000I75000J0D01*
G01*
X119015000Y-103385000D01*
G75*
G02*
X119090000Y-103460000I0J-75000D01*
G01*
X119090000Y-104160000D01*
G75*
G02*
X119015000Y-104235000I-75000J0D01*
G01*
G37*
%TD.AperFunction*%
%TO.P,U401,24*%
%TO.N,MCU_I2C2_SDA*%
%TA.AperFunction,SMDPad,CuDef*%
G36*
G01*
X118515000Y-104235000D02*
X118365000Y-104235000D01*
G75*
G02*
X118290000Y-104160000I0J75000D01*
G01*
X118290000Y-103460000D01*
G75*
G02*
X118365000Y-103385000I75000J0D01*
G01*
X118515000Y-103385000D01*
G75*
G02*
X118590000Y-103460000I0J-75000D01*
G01*
X118590000Y-104160000D01*
G75*
G02*
X118515000Y-104235000I-75000J0D01*
G01*
G37*
%TD.AperFunction*%
%TD*%
D13*
%TO.P,U400,8*%
%TO.N,+3V3*%
X115700000Y-95175000D03*
%TO.P,U400,2*%
%TO.N,MCU_SPI1_NSS*%
X114100000Y-94525000D03*
%TO.P,U400,3*%
%TO.N,MCU_SPI1_MOSI*%
X114100000Y-93875000D03*
%TO.P,U400,4*%
%TO.N,MCU_SPI1_SCK*%
X114100000Y-93225000D03*
%TO.P,U400,7*%
%TO.N,GND*%
X115700000Y-94525000D03*
%TO.P,U400,6*%
%TO.N,+3V3*%
X115700000Y-93875000D03*
%TO.P,U400,5*%
%TO.N,MCU_SPI1_MISO*%
X115700000Y-93225000D03*
%TO.P,U400,1*%
%TO.N,GND*%
X114100000Y-95175000D03*
%TD*%
%TO.P,U300,18*%
%TO.N,N/C*%
%TA.AperFunction,SMDPad,CuDef*%
G36*
G01*
X110285000Y-102570000D02*
X110635000Y-102570000D01*
G75*
G02*
X110810000Y-102745000I0J-175000D01*
G01*
X110810000Y-104195000D01*
G75*
G02*
X110635000Y-104370000I-175000J0D01*
G01*
X110285000Y-104370000D01*
G75*
G02*
X110110000Y-104195000I0J175000D01*
G01*
X110110000Y-102745000D01*
G75*
G02*
X110285000Y-102570000I175000J0D01*
G01*
G37*
%TD.AperFunction*%
%TO.P,U300,17*%
%TA.AperFunction,SMDPad,CuDef*%
G36*
G01*
X109160000Y-102570000D02*
X109560000Y-102570000D01*
G75*
G02*
X109760000Y-102770000I0J-200000D01*
G01*
X109760000Y-104170000D01*
G75*
G02*
X109560000Y-104370000I-200000J0D01*
G01*
X109160000Y-104370000D01*
G75*
G02*
X108960000Y-104170000I0J200000D01*
G01*
X108960000Y-102770000D01*
G75*
G02*
X109160000Y-102570000I200000J0D01*
G01*
G37*
%TD.AperFunction*%
%TO.P,U300,16*%
%TA.AperFunction,SMDPad,CuDef*%
G36*
G01*
X108060000Y-102570000D02*
X108460000Y-102570000D01*
G75*
G02*
X108660000Y-102770000I0J-200000D01*
G01*
X108660000Y-104170000D01*
G75*
G02*
X108460000Y-104370000I-200000J0D01*
G01*
X108060000Y-104370000D01*
G75*
G02*
X107860000Y-104170000I0J200000D01*
G01*
X107860000Y-102770000D01*
G75*
G02*
X108060000Y-102570000I200000J0D01*
G01*
G37*
%TD.AperFunction*%
%TO.P,U300,15*%
%TA.AperFunction,SMDPad,CuDef*%
G36*
G01*
X106960000Y-102570000D02*
X107360000Y-102570000D01*
G75*
G02*
X107560000Y-102770000I0J-200000D01*
G01*
X107560000Y-104170000D01*
G75*
G02*
X107360000Y-104370000I-200000J0D01*
G01*
X106960000Y-104370000D01*
G75*
G02*
X106760000Y-104170000I0J200000D01*
G01*
X106760000Y-102770000D01*
G75*
G02*
X106960000Y-102570000I200000J0D01*
G01*
G37*
%TD.AperFunction*%
%TO.P,U300,14*%
%TO.N,Net-(R300-Pad2)*%
%TA.AperFunction,SMDPad,CuDef*%
G36*
G01*
X105860000Y-102570000D02*
X106260000Y-102570000D01*
G75*
G02*
X106460000Y-102770000I0J-200000D01*
G01*
X106460000Y-104170000D01*
G75*
G02*
X106260000Y-104370000I-200000J0D01*
G01*
X105860000Y-104370000D01*
G75*
G02*
X105660000Y-104170000I0J200000D01*
G01*
X105660000Y-102770000D01*
G75*
G02*
X105860000Y-102570000I200000J0D01*
G01*
G37*
%TD.AperFunction*%
%TO.P,U300,13*%
%TO.N,N/C*%
%TA.AperFunction,SMDPad,CuDef*%
G36*
G01*
X104760000Y-102570000D02*
X105160000Y-102570000D01*
G75*
G02*
X105360000Y-102770000I0J-200000D01*
G01*
X105360000Y-104170000D01*
G75*
G02*
X105160000Y-104370000I-200000J0D01*
G01*
X104760000Y-104370000D01*
G75*
G02*
X104560000Y-104170000I0J200000D01*
G01*
X104560000Y-102770000D01*
G75*
G02*
X104760000Y-102570000I200000J0D01*
G01*
G37*
%TD.AperFunction*%
%TO.P,U300,12*%
%TO.N,GND*%
%TA.AperFunction,SMDPad,CuDef*%
G36*
G01*
X103660000Y-102570000D02*
X104060000Y-102570000D01*
G75*
G02*
X104260000Y-102770000I0J-200000D01*
G01*
X104260000Y-104170000D01*
G75*
G02*
X104060000Y-104370000I-200000J0D01*
G01*
X103660000Y-104370000D01*
G75*
G02*
X103460000Y-104170000I0J200000D01*
G01*
X103460000Y-102770000D01*
G75*
G02*
X103660000Y-102570000I200000J0D01*
G01*
G37*
%TD.AperFunction*%
%TO.P,U300,11*%
%TO.N,Net-(D300-Pad1)*%
%TA.AperFunction,SMDPad,CuDef*%
G36*
G01*
X102560000Y-102570000D02*
X102960000Y-102570000D01*
G75*
G02*
X103160000Y-102770000I0J-200000D01*
G01*
X103160000Y-104170000D01*
G75*
G02*
X102960000Y-104370000I-200000J0D01*
G01*
X102560000Y-104370000D01*
G75*
G02*
X102360000Y-104170000I0J200000D01*
G01*
X102360000Y-102770000D01*
G75*
G02*
X102560000Y-102570000I200000J0D01*
G01*
G37*
%TD.AperFunction*%
%TO.P,U300,10*%
%TO.N,GND*%
%TA.AperFunction,SMDPad,CuDef*%
G36*
G01*
X101485000Y-102570000D02*
X101835000Y-102570000D01*
G75*
G02*
X102010000Y-102745000I0J-175000D01*
G01*
X102010000Y-104195000D01*
G75*
G02*
X101835000Y-104370000I-175000J0D01*
G01*
X101485000Y-104370000D01*
G75*
G02*
X101310000Y-104195000I0J175000D01*
G01*
X101310000Y-102745000D01*
G75*
G02*
X101485000Y-102570000I175000J0D01*
G01*
G37*
%TD.AperFunction*%
%TO.P,U300,9*%
%TO.N,GPS_NRST*%
%TA.AperFunction,SMDPad,CuDef*%
G36*
G01*
X101485000Y-93070000D02*
X101835000Y-93070000D01*
G75*
G02*
X102010000Y-93245000I0J-175000D01*
G01*
X102010000Y-94695000D01*
G75*
G02*
X101835000Y-94870000I-175000J0D01*
G01*
X101485000Y-94870000D01*
G75*
G02*
X101310000Y-94695000I0J175000D01*
G01*
X101310000Y-93245000D01*
G75*
G02*
X101485000Y-93070000I175000J0D01*
G01*
G37*
%TD.AperFunction*%
%TO.P,U300,8*%
%TO.N,+3V3*%
%TA.AperFunction,SMDPad,CuDef*%
G36*
G01*
X102560000Y-93070000D02*
X102960000Y-93070000D01*
G75*
G02*
X103160000Y-93270000I0J-200000D01*
G01*
X103160000Y-94670000D01*
G75*
G02*
X102960000Y-94870000I-200000J0D01*
G01*
X102560000Y-94870000D01*
G75*
G02*
X102360000Y-94670000I0J200000D01*
G01*
X102360000Y-93270000D01*
G75*
G02*
X102560000Y-93070000I200000J0D01*
G01*
G37*
%TD.AperFunction*%
%TO.P,U300,7*%
%TO.N,N/C*%
%TA.AperFunction,SMDPad,CuDef*%
G36*
G01*
X103660000Y-93070000D02*
X104060000Y-93070000D01*
G75*
G02*
X104260000Y-93270000I0J-200000D01*
G01*
X104260000Y-94670000D01*
G75*
G02*
X104060000Y-94870000I-200000J0D01*
G01*
X103660000Y-94870000D01*
G75*
G02*
X103460000Y-94670000I0J200000D01*
G01*
X103460000Y-93270000D01*
G75*
G02*
X103660000Y-93070000I200000J0D01*
G01*
G37*
%TD.AperFunction*%
%TO.P,U300,6*%
%TO.N,+3V3*%
%TA.AperFunction,SMDPad,CuDef*%
G36*
G01*
X104760000Y-93070000D02*
X105160000Y-93070000D01*
G75*
G02*
X105360000Y-93270000I0J-200000D01*
G01*
X105360000Y-94670000D01*
G75*
G02*
X105160000Y-94870000I-200000J0D01*
G01*
X104760000Y-94870000D01*
G75*
G02*
X104560000Y-94670000I0J200000D01*
G01*
X104560000Y-93270000D01*
G75*
G02*
X104760000Y-93070000I200000J0D01*
G01*
G37*
%TD.AperFunction*%
%TO.P,U300,5*%
%TO.N,GPS_ONOFF*%
%TA.AperFunction,SMDPad,CuDef*%
G36*
G01*
X105860000Y-93070000D02*
X106260000Y-93070000D01*
G75*
G02*
X106460000Y-93270000I0J-200000D01*
G01*
X106460000Y-94670000D01*
G75*
G02*
X106260000Y-94870000I-200000J0D01*
G01*
X105860000Y-94870000D01*
G75*
G02*
X105660000Y-94670000I0J200000D01*
G01*
X105660000Y-93270000D01*
G75*
G02*
X105860000Y-93070000I200000J0D01*
G01*
G37*
%TD.AperFunction*%
%TO.P,U300,4*%
%TO.N,GPS_PPS*%
%TA.AperFunction,SMDPad,CuDef*%
G36*
G01*
X106960000Y-93070000D02*
X107360000Y-93070000D01*
G75*
G02*
X107560000Y-93270000I0J-200000D01*
G01*
X107560000Y-94670000D01*
G75*
G02*
X107360000Y-94870000I-200000J0D01*
G01*
X106960000Y-94870000D01*
G75*
G02*
X106760000Y-94670000I0J200000D01*
G01*
X106760000Y-93270000D01*
G75*
G02*
X106960000Y-93070000I200000J0D01*
G01*
G37*
%TD.AperFunction*%
%TO.P,U300,3*%
%TO.N,/GPS/GPS_RX*%
%TA.AperFunction,SMDPad,CuDef*%
G36*
G01*
X108060000Y-93070000D02*
X108460000Y-93070000D01*
G75*
G02*
X108660000Y-93270000I0J-200000D01*
G01*
X108660000Y-94670000D01*
G75*
G02*
X108460000Y-94870000I-200000J0D01*
G01*
X108060000Y-94870000D01*
G75*
G02*
X107860000Y-94670000I0J200000D01*
G01*
X107860000Y-93270000D01*
G75*
G02*
X108060000Y-93070000I200000J0D01*
G01*
G37*
%TD.AperFunction*%
%TO.P,U300,2*%
%TO.N,/GPS/GPS_TX*%
%TA.AperFunction,SMDPad,CuDef*%
G36*
G01*
X109160000Y-93070000D02*
X109560000Y-93070000D01*
G75*
G02*
X109760000Y-93270000I0J-200000D01*
G01*
X109760000Y-94670000D01*
G75*
G02*
X109560000Y-94870000I-200000J0D01*
G01*
X109160000Y-94870000D01*
G75*
G02*
X108960000Y-94670000I0J200000D01*
G01*
X108960000Y-93270000D01*
G75*
G02*
X109160000Y-93070000I200000J0D01*
G01*
G37*
%TD.AperFunction*%
%TO.P,U300,1*%
%TO.N,GND*%
%TA.AperFunction,SMDPad,CuDef*%
G36*
G01*
X110285000Y-93070000D02*
X110635000Y-93070000D01*
G75*
G02*
X110810000Y-93245000I0J-175000D01*
G01*
X110810000Y-94695000D01*
G75*
G02*
X110635000Y-94870000I-175000J0D01*
G01*
X110285000Y-94870000D01*
G75*
G02*
X110110000Y-94695000I0J175000D01*
G01*
X110110000Y-93245000D01*
G75*
G02*
X110285000Y-93070000I175000J0D01*
G01*
G37*
%TD.AperFunction*%
%TD*%
D14*
%TO.P,U201,5*%
%TO.N,VBUS*%
X128000000Y-80325000D03*
%TO.P,U201,6*%
%TO.N,MCU_USB_D-*%
X128000000Y-81275000D03*
%TO.P,U201,4*%
%TO.N,MCU_USB_D+*%
X128000000Y-79375000D03*
%TO.P,U201,3*%
%TO.N,CONN_USB_D+*%
X130200000Y-79375000D03*
%TO.P,U201,2*%
%TO.N,GND*%
X130200000Y-80325000D03*
%TO.P,U201,1*%
%TO.N,CONN_USB_D-*%
X130200000Y-81275000D03*
%TD*%
D15*
%TO.P,U100,6*%
%TO.N,Net-(C101-Pad1)*%
X132750000Y-95790000D03*
%TO.P,U100,5*%
%TO.N,+5V*%
X133700000Y-95790000D03*
%TO.P,U100,4*%
X134650000Y-95790000D03*
%TO.P,U100,3*%
%TO.N,Net-(R101-Pad2)*%
X134650000Y-98410000D03*
%TO.P,U100,2*%
%TO.N,GND*%
X133700000Y-98410000D03*
%TO.P,U100,1*%
%TO.N,Net-(C101-Pad2)*%
X132750000Y-98410000D03*
%TD*%
D16*
%TO.P,SW200,1*%
%TO.N,GND*%
X94030000Y-78450000D03*
%TO.P,SW200,2*%
%TO.N,/Microcontroller/SW_BOOT0*%
X94030000Y-81450000D03*
%TO.P,SW200,3*%
%TO.N,+3V3*%
X94030000Y-82950000D03*
D17*
%TO.P,SW200,*%
%TO.N,*%
X91170000Y-77050000D03*
X91170000Y-84350000D03*
X93380000Y-84350000D03*
X93380000Y-77050000D03*
%TD*%
%TO.P,R511,2*%
%TO.N,/Miscellaneous/CAN-*%
%TA.AperFunction,SMDPad,CuDef*%
G36*
G01*
X95685000Y-64760000D02*
X95315000Y-64760000D01*
G75*
G02*
X95180000Y-64625000I0J135000D01*
G01*
X95180000Y-64355000D01*
G75*
G02*
X95315000Y-64220000I135000J0D01*
G01*
X95685000Y-64220000D01*
G75*
G02*
X95820000Y-64355000I0J-135000D01*
G01*
X95820000Y-64625000D01*
G75*
G02*
X95685000Y-64760000I-135000J0D01*
G01*
G37*
%TD.AperFunction*%
%TO.P,R511,1*%
%TO.N,/Miscellaneous/CAN+*%
%TA.AperFunction,SMDPad,CuDef*%
G36*
G01*
X95685000Y-65780000D02*
X95315000Y-65780000D01*
G75*
G02*
X95180000Y-65645000I0J135000D01*
G01*
X95180000Y-65375000D01*
G75*
G02*
X95315000Y-65240000I135000J0D01*
G01*
X95685000Y-65240000D01*
G75*
G02*
X95820000Y-65375000I0J-135000D01*
G01*
X95820000Y-65645000D01*
G75*
G02*
X95685000Y-65780000I-135000J0D01*
G01*
G37*
%TD.AperFunction*%
%TD*%
%TO.P,R510,2*%
%TO.N,/Miscellaneous/SD_DAT2*%
%TA.AperFunction,SMDPad,CuDef*%
G36*
G01*
X123185000Y-64760000D02*
X122815000Y-64760000D01*
G75*
G02*
X122680000Y-64625000I0J135000D01*
G01*
X122680000Y-64355000D01*
G75*
G02*
X122815000Y-64220000I135000J0D01*
G01*
X123185000Y-64220000D01*
G75*
G02*
X123320000Y-64355000I0J-135000D01*
G01*
X123320000Y-64625000D01*
G75*
G02*
X123185000Y-64760000I-135000J0D01*
G01*
G37*
%TD.AperFunction*%
%TO.P,R510,1*%
%TO.N,+3V3*%
%TA.AperFunction,SMDPad,CuDef*%
G36*
G01*
X123185000Y-65780000D02*
X122815000Y-65780000D01*
G75*
G02*
X122680000Y-65645000I0J135000D01*
G01*
X122680000Y-65375000D01*
G75*
G02*
X122815000Y-65240000I135000J0D01*
G01*
X123185000Y-65240000D01*
G75*
G02*
X123320000Y-65375000I0J-135000D01*
G01*
X123320000Y-65645000D01*
G75*
G02*
X123185000Y-65780000I-135000J0D01*
G01*
G37*
%TD.AperFunction*%
%TD*%
%TO.P,R509,2*%
%TO.N,/Miscellaneous/SD_DAT3*%
%TA.AperFunction,SMDPad,CuDef*%
G36*
G01*
X119185000Y-64760000D02*
X118815000Y-64760000D01*
G75*
G02*
X118680000Y-64625000I0J135000D01*
G01*
X118680000Y-64355000D01*
G75*
G02*
X118815000Y-64220000I135000J0D01*
G01*
X119185000Y-64220000D01*
G75*
G02*
X119320000Y-64355000I0J-135000D01*
G01*
X119320000Y-64625000D01*
G75*
G02*
X119185000Y-64760000I-135000J0D01*
G01*
G37*
%TD.AperFunction*%
%TO.P,R509,1*%
%TO.N,+3V3*%
%TA.AperFunction,SMDPad,CuDef*%
G36*
G01*
X119185000Y-65780000D02*
X118815000Y-65780000D01*
G75*
G02*
X118680000Y-65645000I0J135000D01*
G01*
X118680000Y-65375000D01*
G75*
G02*
X118815000Y-65240000I135000J0D01*
G01*
X119185000Y-65240000D01*
G75*
G02*
X119320000Y-65375000I0J-135000D01*
G01*
X119320000Y-65645000D01*
G75*
G02*
X119185000Y-65780000I-135000J0D01*
G01*
G37*
%TD.AperFunction*%
%TD*%
%TO.P,R508,2*%
%TO.N,/Miscellaneous/SD_CMD*%
%TA.AperFunction,SMDPad,CuDef*%
G36*
G01*
X116185000Y-64760000D02*
X115815000Y-64760000D01*
G75*
G02*
X115680000Y-64625000I0J135000D01*
G01*
X115680000Y-64355000D01*
G75*
G02*
X115815000Y-64220000I135000J0D01*
G01*
X116185000Y-64220000D01*
G75*
G02*
X116320000Y-64355000I0J-135000D01*
G01*
X116320000Y-64625000D01*
G75*
G02*
X116185000Y-64760000I-135000J0D01*
G01*
G37*
%TD.AperFunction*%
%TO.P,R508,1*%
%TO.N,+3V3*%
%TA.AperFunction,SMDPad,CuDef*%
G36*
G01*
X116185000Y-65780000D02*
X115815000Y-65780000D01*
G75*
G02*
X115680000Y-65645000I0J135000D01*
G01*
X115680000Y-65375000D01*
G75*
G02*
X115815000Y-65240000I135000J0D01*
G01*
X116185000Y-65240000D01*
G75*
G02*
X116320000Y-65375000I0J-135000D01*
G01*
X116320000Y-65645000D01*
G75*
G02*
X116185000Y-65780000I-135000J0D01*
G01*
G37*
%TD.AperFunction*%
%TD*%
%TO.P,R507,2*%
%TO.N,/Miscellaneous/SD_DAT0*%
%TA.AperFunction,SMDPad,CuDef*%
G36*
G01*
X110185000Y-64760000D02*
X109815000Y-64760000D01*
G75*
G02*
X109680000Y-64625000I0J135000D01*
G01*
X109680000Y-64355000D01*
G75*
G02*
X109815000Y-64220000I135000J0D01*
G01*
X110185000Y-64220000D01*
G75*
G02*
X110320000Y-64355000I0J-135000D01*
G01*
X110320000Y-64625000D01*
G75*
G02*
X110185000Y-64760000I-135000J0D01*
G01*
G37*
%TD.AperFunction*%
%TO.P,R507,1*%
%TO.N,+3V3*%
%TA.AperFunction,SMDPad,CuDef*%
G36*
G01*
X110185000Y-65780000D02*
X109815000Y-65780000D01*
G75*
G02*
X109680000Y-65645000I0J135000D01*
G01*
X109680000Y-65375000D01*
G75*
G02*
X109815000Y-65240000I135000J0D01*
G01*
X110185000Y-65240000D01*
G75*
G02*
X110320000Y-65375000I0J-135000D01*
G01*
X110320000Y-65645000D01*
G75*
G02*
X110185000Y-65780000I-135000J0D01*
G01*
G37*
%TD.AperFunction*%
%TD*%
%TO.P,R506,2*%
%TO.N,/Miscellaneous/SD_DAT1*%
%TA.AperFunction,SMDPad,CuDef*%
G36*
G01*
X106185000Y-64760000D02*
X105815000Y-64760000D01*
G75*
G02*
X105680000Y-64625000I0J135000D01*
G01*
X105680000Y-64355000D01*
G75*
G02*
X105815000Y-64220000I135000J0D01*
G01*
X106185000Y-64220000D01*
G75*
G02*
X106320000Y-64355000I0J-135000D01*
G01*
X106320000Y-64625000D01*
G75*
G02*
X106185000Y-64760000I-135000J0D01*
G01*
G37*
%TD.AperFunction*%
%TO.P,R506,1*%
%TO.N,+3V3*%
%TA.AperFunction,SMDPad,CuDef*%
G36*
G01*
X106185000Y-65780000D02*
X105815000Y-65780000D01*
G75*
G02*
X105680000Y-65645000I0J135000D01*
G01*
X105680000Y-65375000D01*
G75*
G02*
X105815000Y-65240000I135000J0D01*
G01*
X106185000Y-65240000D01*
G75*
G02*
X106320000Y-65375000I0J-135000D01*
G01*
X106320000Y-65645000D01*
G75*
G02*
X106185000Y-65780000I-135000J0D01*
G01*
G37*
%TD.AperFunction*%
%TD*%
%TO.P,R505,2*%
%TO.N,MCU_SDIO_D1*%
%TA.AperFunction,SMDPad,CuDef*%
G36*
G01*
X106815000Y-65240000D02*
X107185000Y-65240000D01*
G75*
G02*
X107320000Y-65375000I0J-135000D01*
G01*
X107320000Y-65645000D01*
G75*
G02*
X107185000Y-65780000I-135000J0D01*
G01*
X106815000Y-65780000D01*
G75*
G02*
X106680000Y-65645000I0J135000D01*
G01*
X106680000Y-65375000D01*
G75*
G02*
X106815000Y-65240000I135000J0D01*
G01*
G37*
%TD.AperFunction*%
%TO.P,R505,1*%
%TO.N,/Miscellaneous/SD_DAT1*%
%TA.AperFunction,SMDPad,CuDef*%
G36*
G01*
X106815000Y-64220000D02*
X107185000Y-64220000D01*
G75*
G02*
X107320000Y-64355000I0J-135000D01*
G01*
X107320000Y-64625000D01*
G75*
G02*
X107185000Y-64760000I-135000J0D01*
G01*
X106815000Y-64760000D01*
G75*
G02*
X106680000Y-64625000I0J135000D01*
G01*
X106680000Y-64355000D01*
G75*
G02*
X106815000Y-64220000I135000J0D01*
G01*
G37*
%TD.AperFunction*%
%TD*%
%TO.P,R504,2*%
%TO.N,MCU_SDIO_D0*%
%TA.AperFunction,SMDPad,CuDef*%
G36*
G01*
X110815000Y-65240000D02*
X111185000Y-65240000D01*
G75*
G02*
X111320000Y-65375000I0J-135000D01*
G01*
X111320000Y-65645000D01*
G75*
G02*
X111185000Y-65780000I-135000J0D01*
G01*
X110815000Y-65780000D01*
G75*
G02*
X110680000Y-65645000I0J135000D01*
G01*
X110680000Y-65375000D01*
G75*
G02*
X110815000Y-65240000I135000J0D01*
G01*
G37*
%TD.AperFunction*%
%TO.P,R504,1*%
%TO.N,/Miscellaneous/SD_DAT0*%
%TA.AperFunction,SMDPad,CuDef*%
G36*
G01*
X110815000Y-64220000D02*
X111185000Y-64220000D01*
G75*
G02*
X111320000Y-64355000I0J-135000D01*
G01*
X111320000Y-64625000D01*
G75*
G02*
X111185000Y-64760000I-135000J0D01*
G01*
X110815000Y-64760000D01*
G75*
G02*
X110680000Y-64625000I0J135000D01*
G01*
X110680000Y-64355000D01*
G75*
G02*
X110815000Y-64220000I135000J0D01*
G01*
G37*
%TD.AperFunction*%
%TD*%
%TO.P,R503,2*%
%TO.N,MCU_SDIO_CK*%
%TA.AperFunction,SMDPad,CuDef*%
G36*
G01*
X112815000Y-65240000D02*
X113185000Y-65240000D01*
G75*
G02*
X113320000Y-65375000I0J-135000D01*
G01*
X113320000Y-65645000D01*
G75*
G02*
X113185000Y-65780000I-135000J0D01*
G01*
X112815000Y-65780000D01*
G75*
G02*
X112680000Y-65645000I0J135000D01*
G01*
X112680000Y-65375000D01*
G75*
G02*
X112815000Y-65240000I135000J0D01*
G01*
G37*
%TD.AperFunction*%
%TO.P,R503,1*%
%TO.N,/Miscellaneous/SD_CLK*%
%TA.AperFunction,SMDPad,CuDef*%
G36*
G01*
X112815000Y-64220000D02*
X113185000Y-64220000D01*
G75*
G02*
X113320000Y-64355000I0J-135000D01*
G01*
X113320000Y-64625000D01*
G75*
G02*
X113185000Y-64760000I-135000J0D01*
G01*
X112815000Y-64760000D01*
G75*
G02*
X112680000Y-64625000I0J135000D01*
G01*
X112680000Y-64355000D01*
G75*
G02*
X112815000Y-64220000I135000J0D01*
G01*
G37*
%TD.AperFunction*%
%TD*%
%TO.P,R502,2*%
%TO.N,MCU_SDIO_CMD*%
%TA.AperFunction,SMDPad,CuDef*%
G36*
G01*
X116815000Y-65240000D02*
X117185000Y-65240000D01*
G75*
G02*
X117320000Y-65375000I0J-135000D01*
G01*
X117320000Y-65645000D01*
G75*
G02*
X117185000Y-65780000I-135000J0D01*
G01*
X116815000Y-65780000D01*
G75*
G02*
X116680000Y-65645000I0J135000D01*
G01*
X116680000Y-65375000D01*
G75*
G02*
X116815000Y-65240000I135000J0D01*
G01*
G37*
%TD.AperFunction*%
%TO.P,R502,1*%
%TO.N,/Miscellaneous/SD_CMD*%
%TA.AperFunction,SMDPad,CuDef*%
G36*
G01*
X116815000Y-64220000D02*
X117185000Y-64220000D01*
G75*
G02*
X117320000Y-64355000I0J-135000D01*
G01*
X117320000Y-64625000D01*
G75*
G02*
X117185000Y-64760000I-135000J0D01*
G01*
X116815000Y-64760000D01*
G75*
G02*
X116680000Y-64625000I0J135000D01*
G01*
X116680000Y-64355000D01*
G75*
G02*
X116815000Y-64220000I135000J0D01*
G01*
G37*
%TD.AperFunction*%
%TD*%
%TO.P,R501,2*%
%TO.N,MCU_SDIO_D3*%
%TA.AperFunction,SMDPad,CuDef*%
G36*
G01*
X119815000Y-65240000D02*
X120185000Y-65240000D01*
G75*
G02*
X120320000Y-65375000I0J-135000D01*
G01*
X120320000Y-65645000D01*
G75*
G02*
X120185000Y-65780000I-135000J0D01*
G01*
X119815000Y-65780000D01*
G75*
G02*
X119680000Y-65645000I0J135000D01*
G01*
X119680000Y-65375000D01*
G75*
G02*
X119815000Y-65240000I135000J0D01*
G01*
G37*
%TD.AperFunction*%
%TO.P,R501,1*%
%TO.N,/Miscellaneous/SD_DAT3*%
%TA.AperFunction,SMDPad,CuDef*%
G36*
G01*
X119815000Y-64220000D02*
X120185000Y-64220000D01*
G75*
G02*
X120320000Y-64355000I0J-135000D01*
G01*
X120320000Y-64625000D01*
G75*
G02*
X120185000Y-64760000I-135000J0D01*
G01*
X119815000Y-64760000D01*
G75*
G02*
X119680000Y-64625000I0J135000D01*
G01*
X119680000Y-64355000D01*
G75*
G02*
X119815000Y-64220000I135000J0D01*
G01*
G37*
%TD.AperFunction*%
%TD*%
%TO.P,R500,2*%
%TO.N,MCU_SDIO_D2*%
%TA.AperFunction,SMDPad,CuDef*%
G36*
G01*
X121815000Y-65240000D02*
X122185000Y-65240000D01*
G75*
G02*
X122320000Y-65375000I0J-135000D01*
G01*
X122320000Y-65645000D01*
G75*
G02*
X122185000Y-65780000I-135000J0D01*
G01*
X121815000Y-65780000D01*
G75*
G02*
X121680000Y-65645000I0J135000D01*
G01*
X121680000Y-65375000D01*
G75*
G02*
X121815000Y-65240000I135000J0D01*
G01*
G37*
%TD.AperFunction*%
%TO.P,R500,1*%
%TO.N,/Miscellaneous/SD_DAT2*%
%TA.AperFunction,SMDPad,CuDef*%
G36*
G01*
X121815000Y-64220000D02*
X122185000Y-64220000D01*
G75*
G02*
X122320000Y-64355000I0J-135000D01*
G01*
X122320000Y-64625000D01*
G75*
G02*
X122185000Y-64760000I-135000J0D01*
G01*
X121815000Y-64760000D01*
G75*
G02*
X121680000Y-64625000I0J135000D01*
G01*
X121680000Y-64355000D01*
G75*
G02*
X121815000Y-64220000I135000J0D01*
G01*
G37*
%TD.AperFunction*%
%TD*%
%TO.P,R302,2*%
%TO.N,MCU_UART4_RX*%
%TA.AperFunction,SMDPad,CuDef*%
G36*
G01*
X106685000Y-84760000D02*
X106315000Y-84760000D01*
G75*
G02*
X106180000Y-84625000I0J135000D01*
G01*
X106180000Y-84355000D01*
G75*
G02*
X106315000Y-84220000I135000J0D01*
G01*
X106685000Y-84220000D01*
G75*
G02*
X106820000Y-84355000I0J-135000D01*
G01*
X106820000Y-84625000D01*
G75*
G02*
X106685000Y-84760000I-135000J0D01*
G01*
G37*
%TD.AperFunction*%
%TO.P,R302,1*%
%TO.N,/GPS/GPS_TX*%
%TA.AperFunction,SMDPad,CuDef*%
G36*
G01*
X106685000Y-85780000D02*
X106315000Y-85780000D01*
G75*
G02*
X106180000Y-85645000I0J135000D01*
G01*
X106180000Y-85375000D01*
G75*
G02*
X106315000Y-85240000I135000J0D01*
G01*
X106685000Y-85240000D01*
G75*
G02*
X106820000Y-85375000I0J-135000D01*
G01*
X106820000Y-85645000D01*
G75*
G02*
X106685000Y-85780000I-135000J0D01*
G01*
G37*
%TD.AperFunction*%
%TD*%
%TO.P,R301,2*%
%TO.N,MCU_UART4_TX*%
%TA.AperFunction,SMDPad,CuDef*%
G36*
G01*
X105285000Y-84760000D02*
X104915000Y-84760000D01*
G75*
G02*
X104780000Y-84625000I0J135000D01*
G01*
X104780000Y-84355000D01*
G75*
G02*
X104915000Y-84220000I135000J0D01*
G01*
X105285000Y-84220000D01*
G75*
G02*
X105420000Y-84355000I0J-135000D01*
G01*
X105420000Y-84625000D01*
G75*
G02*
X105285000Y-84760000I-135000J0D01*
G01*
G37*
%TD.AperFunction*%
%TO.P,R301,1*%
%TO.N,/GPS/GPS_RX*%
%TA.AperFunction,SMDPad,CuDef*%
G36*
G01*
X105285000Y-85780000D02*
X104915000Y-85780000D01*
G75*
G02*
X104780000Y-85645000I0J135000D01*
G01*
X104780000Y-85375000D01*
G75*
G02*
X104915000Y-85240000I135000J0D01*
G01*
X105285000Y-85240000D01*
G75*
G02*
X105420000Y-85375000I0J-135000D01*
G01*
X105420000Y-85645000D01*
G75*
G02*
X105285000Y-85780000I-135000J0D01*
G01*
G37*
%TD.AperFunction*%
%TD*%
%TO.P,R300,2*%
%TO.N,Net-(R300-Pad2)*%
%TA.AperFunction,SMDPad,CuDef*%
G36*
G01*
X107735000Y-106295000D02*
X107735000Y-105925000D01*
G75*
G02*
X107870000Y-105790000I135000J0D01*
G01*
X108140000Y-105790000D01*
G75*
G02*
X108275000Y-105925000I0J-135000D01*
G01*
X108275000Y-106295000D01*
G75*
G02*
X108140000Y-106430000I-135000J0D01*
G01*
X107870000Y-106430000D01*
G75*
G02*
X107735000Y-106295000I0J135000D01*
G01*
G37*
%TD.AperFunction*%
%TO.P,R300,1*%
%TO.N,Net-(C303-Pad1)*%
%TA.AperFunction,SMDPad,CuDef*%
G36*
G01*
X106715000Y-106295000D02*
X106715000Y-105925000D01*
G75*
G02*
X106850000Y-105790000I135000J0D01*
G01*
X107120000Y-105790000D01*
G75*
G02*
X107255000Y-105925000I0J-135000D01*
G01*
X107255000Y-106295000D01*
G75*
G02*
X107120000Y-106430000I-135000J0D01*
G01*
X106850000Y-106430000D01*
G75*
G02*
X106715000Y-106295000I0J135000D01*
G01*
G37*
%TD.AperFunction*%
%TD*%
%TO.P,R208,2*%
%TO.N,/Microcontroller/CONN_SWO*%
%TA.AperFunction,SMDPad,CuDef*%
G36*
G01*
X130190000Y-63710000D02*
X130190000Y-63340000D01*
G75*
G02*
X130325000Y-63205000I135000J0D01*
G01*
X130595000Y-63205000D01*
G75*
G02*
X130730000Y-63340000I0J-135000D01*
G01*
X130730000Y-63710000D01*
G75*
G02*
X130595000Y-63845000I-135000J0D01*
G01*
X130325000Y-63845000D01*
G75*
G02*
X130190000Y-63710000I0J135000D01*
G01*
G37*
%TD.AperFunction*%
%TO.P,R208,1*%
%TO.N,MCU_SWO*%
%TA.AperFunction,SMDPad,CuDef*%
G36*
G01*
X129170000Y-63710000D02*
X129170000Y-63340000D01*
G75*
G02*
X129305000Y-63205000I135000J0D01*
G01*
X129575000Y-63205000D01*
G75*
G02*
X129710000Y-63340000I0J-135000D01*
G01*
X129710000Y-63710000D01*
G75*
G02*
X129575000Y-63845000I-135000J0D01*
G01*
X129305000Y-63845000D01*
G75*
G02*
X129170000Y-63710000I0J135000D01*
G01*
G37*
%TD.AperFunction*%
%TD*%
%TO.P,R207,2*%
%TO.N,/Microcontroller/CONN_SWCLK*%
%TA.AperFunction,SMDPad,CuDef*%
G36*
G01*
X130190000Y-65960000D02*
X130190000Y-65590000D01*
G75*
G02*
X130325000Y-65455000I135000J0D01*
G01*
X130595000Y-65455000D01*
G75*
G02*
X130730000Y-65590000I0J-135000D01*
G01*
X130730000Y-65960000D01*
G75*
G02*
X130595000Y-66095000I-135000J0D01*
G01*
X130325000Y-66095000D01*
G75*
G02*
X130190000Y-65960000I0J135000D01*
G01*
G37*
%TD.AperFunction*%
%TO.P,R207,1*%
%TO.N,MCU_SWCLK*%
%TA.AperFunction,SMDPad,CuDef*%
G36*
G01*
X129170000Y-65960000D02*
X129170000Y-65590000D01*
G75*
G02*
X129305000Y-65455000I135000J0D01*
G01*
X129575000Y-65455000D01*
G75*
G02*
X129710000Y-65590000I0J-135000D01*
G01*
X129710000Y-65960000D01*
G75*
G02*
X129575000Y-66095000I-135000J0D01*
G01*
X129305000Y-66095000D01*
G75*
G02*
X129170000Y-65960000I0J135000D01*
G01*
G37*
%TD.AperFunction*%
%TD*%
%TO.P,R206,2*%
%TO.N,/Microcontroller/CONN_SWDIO*%
%TA.AperFunction,SMDPad,CuDef*%
G36*
G01*
X131640000Y-70110000D02*
X131640000Y-69740000D01*
G75*
G02*
X131775000Y-69605000I135000J0D01*
G01*
X132045000Y-69605000D01*
G75*
G02*
X132180000Y-69740000I0J-135000D01*
G01*
X132180000Y-70110000D01*
G75*
G02*
X132045000Y-70245000I-135000J0D01*
G01*
X131775000Y-70245000D01*
G75*
G02*
X131640000Y-70110000I0J135000D01*
G01*
G37*
%TD.AperFunction*%
%TO.P,R206,1*%
%TO.N,MCU_SWDIO*%
%TA.AperFunction,SMDPad,CuDef*%
G36*
G01*
X130620000Y-70110000D02*
X130620000Y-69740000D01*
G75*
G02*
X130755000Y-69605000I135000J0D01*
G01*
X131025000Y-69605000D01*
G75*
G02*
X131160000Y-69740000I0J-135000D01*
G01*
X131160000Y-70110000D01*
G75*
G02*
X131025000Y-70245000I-135000J0D01*
G01*
X130755000Y-70245000D01*
G75*
G02*
X130620000Y-70110000I0J135000D01*
G01*
G37*
%TD.AperFunction*%
%TD*%
%TO.P,R205,2*%
%TO.N,GND*%
%TA.AperFunction,SMDPad,CuDef*%
G36*
G01*
X122360000Y-83315000D02*
X122360000Y-83685000D01*
G75*
G02*
X122225000Y-83820000I-135000J0D01*
G01*
X121955000Y-83820000D01*
G75*
G02*
X121820000Y-83685000I0J135000D01*
G01*
X121820000Y-83315000D01*
G75*
G02*
X121955000Y-83180000I135000J0D01*
G01*
X122225000Y-83180000D01*
G75*
G02*
X122360000Y-83315000I0J-135000D01*
G01*
G37*
%TD.AperFunction*%
%TO.P,R205,1*%
%TO.N,/Microcontroller/MCU_LED_K*%
%TA.AperFunction,SMDPad,CuDef*%
G36*
G01*
X123380000Y-83315000D02*
X123380000Y-83685000D01*
G75*
G02*
X123245000Y-83820000I-135000J0D01*
G01*
X122975000Y-83820000D01*
G75*
G02*
X122840000Y-83685000I0J135000D01*
G01*
X122840000Y-83315000D01*
G75*
G02*
X122975000Y-83180000I135000J0D01*
G01*
X123245000Y-83180000D01*
G75*
G02*
X123380000Y-83315000I0J-135000D01*
G01*
G37*
%TD.AperFunction*%
%TD*%
%TO.P,R204,2*%
%TO.N,MCU_I2C2_SDA*%
%TA.AperFunction,SMDPad,CuDef*%
G36*
G01*
X116185000Y-104060000D02*
X115815000Y-104060000D01*
G75*
G02*
X115680000Y-103925000I0J135000D01*
G01*
X115680000Y-103655000D01*
G75*
G02*
X115815000Y-103520000I135000J0D01*
G01*
X116185000Y-103520000D01*
G75*
G02*
X116320000Y-103655000I0J-135000D01*
G01*
X116320000Y-103925000D01*
G75*
G02*
X116185000Y-104060000I-135000J0D01*
G01*
G37*
%TD.AperFunction*%
%TO.P,R204,1*%
%TO.N,+3V3*%
%TA.AperFunction,SMDPad,CuDef*%
G36*
G01*
X116185000Y-105080000D02*
X115815000Y-105080000D01*
G75*
G02*
X115680000Y-104945000I0J135000D01*
G01*
X115680000Y-104675000D01*
G75*
G02*
X115815000Y-104540000I135000J0D01*
G01*
X116185000Y-104540000D01*
G75*
G02*
X116320000Y-104675000I0J-135000D01*
G01*
X116320000Y-104945000D01*
G75*
G02*
X116185000Y-105080000I-135000J0D01*
G01*
G37*
%TD.AperFunction*%
%TD*%
%TO.P,R203,2*%
%TO.N,MCU_I2C2_SCL*%
%TA.AperFunction,SMDPad,CuDef*%
G36*
G01*
X119015000Y-101840000D02*
X119385000Y-101840000D01*
G75*
G02*
X119520000Y-101975000I0J-135000D01*
G01*
X119520000Y-102245000D01*
G75*
G02*
X119385000Y-102380000I-135000J0D01*
G01*
X119015000Y-102380000D01*
G75*
G02*
X118880000Y-102245000I0J135000D01*
G01*
X118880000Y-101975000D01*
G75*
G02*
X119015000Y-101840000I135000J0D01*
G01*
G37*
%TD.AperFunction*%
%TO.P,R203,1*%
%TO.N,+3V3*%
%TA.AperFunction,SMDPad,CuDef*%
G36*
G01*
X119015000Y-100820000D02*
X119385000Y-100820000D01*
G75*
G02*
X119520000Y-100955000I0J-135000D01*
G01*
X119520000Y-101225000D01*
G75*
G02*
X119385000Y-101360000I-135000J0D01*
G01*
X119015000Y-101360000D01*
G75*
G02*
X118880000Y-101225000I0J135000D01*
G01*
X118880000Y-100955000D01*
G75*
G02*
X119015000Y-100820000I135000J0D01*
G01*
G37*
%TD.AperFunction*%
%TD*%
%TO.P,R202,2*%
%TO.N,GND*%
%TA.AperFunction,SMDPad,CuDef*%
G36*
G01*
X121865000Y-87565000D02*
X122235000Y-87565000D01*
G75*
G02*
X122370000Y-87700000I0J-135000D01*
G01*
X122370000Y-87970000D01*
G75*
G02*
X122235000Y-88105000I-135000J0D01*
G01*
X121865000Y-88105000D01*
G75*
G02*
X121730000Y-87970000I0J135000D01*
G01*
X121730000Y-87700000D01*
G75*
G02*
X121865000Y-87565000I135000J0D01*
G01*
G37*
%TD.AperFunction*%
%TO.P,R202,1*%
%TO.N,/Microcontroller/MCU_BOOT1*%
%TA.AperFunction,SMDPad,CuDef*%
G36*
G01*
X121865000Y-86545000D02*
X122235000Y-86545000D01*
G75*
G02*
X122370000Y-86680000I0J-135000D01*
G01*
X122370000Y-86950000D01*
G75*
G02*
X122235000Y-87085000I-135000J0D01*
G01*
X121865000Y-87085000D01*
G75*
G02*
X121730000Y-86950000I0J135000D01*
G01*
X121730000Y-86680000D01*
G75*
G02*
X121865000Y-86545000I135000J0D01*
G01*
G37*
%TD.AperFunction*%
%TD*%
%TO.P,R201,2*%
%TO.N,/Microcontroller/MCU_HSE_OUT_R*%
%TA.AperFunction,SMDPad,CuDef*%
G36*
G01*
X105760000Y-79815000D02*
X105760000Y-80185000D01*
G75*
G02*
X105625000Y-80320000I-135000J0D01*
G01*
X105355000Y-80320000D01*
G75*
G02*
X105220000Y-80185000I0J135000D01*
G01*
X105220000Y-79815000D01*
G75*
G02*
X105355000Y-79680000I135000J0D01*
G01*
X105625000Y-79680000D01*
G75*
G02*
X105760000Y-79815000I0J-135000D01*
G01*
G37*
%TD.AperFunction*%
%TO.P,R201,1*%
%TO.N,/Microcontroller/MCU_HSE_OUT*%
%TA.AperFunction,SMDPad,CuDef*%
G36*
G01*
X106780000Y-79815000D02*
X106780000Y-80185000D01*
G75*
G02*
X106645000Y-80320000I-135000J0D01*
G01*
X106375000Y-80320000D01*
G75*
G02*
X106240000Y-80185000I0J135000D01*
G01*
X106240000Y-79815000D01*
G75*
G02*
X106375000Y-79680000I135000J0D01*
G01*
X106645000Y-79680000D01*
G75*
G02*
X106780000Y-79815000I0J-135000D01*
G01*
G37*
%TD.AperFunction*%
%TD*%
%TO.P,R200,2*%
%TO.N,/Microcontroller/SW_BOOT0*%
%TA.AperFunction,SMDPad,CuDef*%
G36*
G01*
X95615000Y-81140000D02*
X95985000Y-81140000D01*
G75*
G02*
X96120000Y-81275000I0J-135000D01*
G01*
X96120000Y-81545000D01*
G75*
G02*
X95985000Y-81680000I-135000J0D01*
G01*
X95615000Y-81680000D01*
G75*
G02*
X95480000Y-81545000I0J135000D01*
G01*
X95480000Y-81275000D01*
G75*
G02*
X95615000Y-81140000I135000J0D01*
G01*
G37*
%TD.AperFunction*%
%TO.P,R200,1*%
%TO.N,/Microcontroller/MCU_BOOT0*%
%TA.AperFunction,SMDPad,CuDef*%
G36*
G01*
X95615000Y-80120000D02*
X95985000Y-80120000D01*
G75*
G02*
X96120000Y-80255000I0J-135000D01*
G01*
X96120000Y-80525000D01*
G75*
G02*
X95985000Y-80660000I-135000J0D01*
G01*
X95615000Y-80660000D01*
G75*
G02*
X95480000Y-80525000I0J135000D01*
G01*
X95480000Y-80255000D01*
G75*
G02*
X95615000Y-80120000I135000J0D01*
G01*
G37*
%TD.AperFunction*%
%TD*%
%TO.P,R103,2*%
%TO.N,GND*%
%TA.AperFunction,SMDPad,CuDef*%
G36*
G01*
X124785000Y-95360000D02*
X124415000Y-95360000D01*
G75*
G02*
X124280000Y-95225000I0J135000D01*
G01*
X124280000Y-94955000D01*
G75*
G02*
X124415000Y-94820000I135000J0D01*
G01*
X124785000Y-94820000D01*
G75*
G02*
X124920000Y-94955000I0J-135000D01*
G01*
X124920000Y-95225000D01*
G75*
G02*
X124785000Y-95360000I-135000J0D01*
G01*
G37*
%TD.AperFunction*%
%TO.P,R103,1*%
%TO.N,Net-(D102-Pad1)*%
%TA.AperFunction,SMDPad,CuDef*%
G36*
G01*
X124785000Y-96380000D02*
X124415000Y-96380000D01*
G75*
G02*
X124280000Y-96245000I0J135000D01*
G01*
X124280000Y-95975000D01*
G75*
G02*
X124415000Y-95840000I135000J0D01*
G01*
X124785000Y-95840000D01*
G75*
G02*
X124920000Y-95975000I0J-135000D01*
G01*
X124920000Y-96245000D01*
G75*
G02*
X124785000Y-96380000I-135000J0D01*
G01*
G37*
%TD.AperFunction*%
%TD*%
%TO.P,R102,2*%
%TO.N,GND*%
%TA.AperFunction,SMDPad,CuDef*%
G36*
G01*
X134615000Y-100740000D02*
X134985000Y-100740000D01*
G75*
G02*
X135120000Y-100875000I0J-135000D01*
G01*
X135120000Y-101145000D01*
G75*
G02*
X134985000Y-101280000I-135000J0D01*
G01*
X134615000Y-101280000D01*
G75*
G02*
X134480000Y-101145000I0J135000D01*
G01*
X134480000Y-100875000D01*
G75*
G02*
X134615000Y-100740000I135000J0D01*
G01*
G37*
%TD.AperFunction*%
%TO.P,R102,1*%
%TO.N,Net-(R101-Pad2)*%
%TA.AperFunction,SMDPad,CuDef*%
G36*
G01*
X134615000Y-99720000D02*
X134985000Y-99720000D01*
G75*
G02*
X135120000Y-99855000I0J-135000D01*
G01*
X135120000Y-100125000D01*
G75*
G02*
X134985000Y-100260000I-135000J0D01*
G01*
X134615000Y-100260000D01*
G75*
G02*
X134480000Y-100125000I0J135000D01*
G01*
X134480000Y-99855000D01*
G75*
G02*
X134615000Y-99720000I135000J0D01*
G01*
G37*
%TD.AperFunction*%
%TD*%
%TO.P,R101,2*%
%TO.N,Net-(R101-Pad2)*%
%TA.AperFunction,SMDPad,CuDef*%
G36*
G01*
X136185000Y-100260000D02*
X135815000Y-100260000D01*
G75*
G02*
X135680000Y-100125000I0J135000D01*
G01*
X135680000Y-99855000D01*
G75*
G02*
X135815000Y-99720000I135000J0D01*
G01*
X136185000Y-99720000D01*
G75*
G02*
X136320000Y-99855000I0J-135000D01*
G01*
X136320000Y-100125000D01*
G75*
G02*
X136185000Y-100260000I-135000J0D01*
G01*
G37*
%TD.AperFunction*%
%TO.P,R101,1*%
%TO.N,+3V3*%
%TA.AperFunction,SMDPad,CuDef*%
G36*
G01*
X136185000Y-101280000D02*
X135815000Y-101280000D01*
G75*
G02*
X135680000Y-101145000I0J135000D01*
G01*
X135680000Y-100875000D01*
G75*
G02*
X135815000Y-100740000I135000J0D01*
G01*
X136185000Y-100740000D01*
G75*
G02*
X136320000Y-100875000I0J-135000D01*
G01*
X136320000Y-101145000D01*
G75*
G02*
X136185000Y-101280000I-135000J0D01*
G01*
G37*
%TD.AperFunction*%
%TD*%
%TO.P,R100,2*%
%TO.N,GND*%
%TA.AperFunction,SMDPad,CuDef*%
G36*
G01*
X127085000Y-88760000D02*
X126715000Y-88760000D01*
G75*
G02*
X126580000Y-88625000I0J135000D01*
G01*
X126580000Y-88355000D01*
G75*
G02*
X126715000Y-88220000I135000J0D01*
G01*
X127085000Y-88220000D01*
G75*
G02*
X127220000Y-88355000I0J-135000D01*
G01*
X127220000Y-88625000D01*
G75*
G02*
X127085000Y-88760000I-135000J0D01*
G01*
G37*
%TD.AperFunction*%
%TO.P,R100,1*%
%TO.N,Net-(D100-Pad2)*%
%TA.AperFunction,SMDPad,CuDef*%
G36*
G01*
X127085000Y-89780000D02*
X126715000Y-89780000D01*
G75*
G02*
X126580000Y-89645000I0J135000D01*
G01*
X126580000Y-89375000D01*
G75*
G02*
X126715000Y-89240000I135000J0D01*
G01*
X127085000Y-89240000D01*
G75*
G02*
X127220000Y-89375000I0J-135000D01*
G01*
X127220000Y-89645000D01*
G75*
G02*
X127085000Y-89780000I-135000J0D01*
G01*
G37*
%TD.AperFunction*%
%TD*%
D18*
%TO.P,Q100,3*%
%TO.N,VBUS*%
X129400000Y-88000000D03*
%TO.P,Q100,2*%
%TO.N,Net-(D100-Pad1)*%
X130350000Y-90000000D03*
%TO.P,Q100,1*%
%TO.N,Net-(D100-Pad2)*%
X128450000Y-90000000D03*
%TD*%
%TO.P,L300,2*%
%TO.N,Net-(D300-Pad1)*%
%TA.AperFunction,SMDPad,CuDef*%
G36*
G01*
X105280000Y-105937500D02*
X105280000Y-106282500D01*
G75*
G02*
X105132500Y-106430000I-147500J0D01*
G01*
X104837500Y-106430000D01*
G75*
G02*
X104690000Y-106282500I0J147500D01*
G01*
X104690000Y-105937500D01*
G75*
G02*
X104837500Y-105790000I147500J0D01*
G01*
X105132500Y-105790000D01*
G75*
G02*
X105280000Y-105937500I0J-147500D01*
G01*
G37*
%TD.AperFunction*%
%TO.P,L300,1*%
%TO.N,Net-(C303-Pad1)*%
%TA.AperFunction,SMDPad,CuDef*%
G36*
G01*
X106250000Y-105937500D02*
X106250000Y-106282500D01*
G75*
G02*
X106102500Y-106430000I-147500J0D01*
G01*
X105807500Y-106430000D01*
G75*
G02*
X105660000Y-106282500I0J147500D01*
G01*
X105660000Y-105937500D01*
G75*
G02*
X105807500Y-105790000I147500J0D01*
G01*
X106102500Y-105790000D01*
G75*
G02*
X106250000Y-105937500I0J-147500D01*
G01*
G37*
%TD.AperFunction*%
%TD*%
%TA.AperFunction,SMDPad,CuDef*%
D19*
%TO.P,L1,2*%
%TO.N,+3V3*%
G36*
X126450000Y-98850000D02*
G01*
X130150000Y-98850000D01*
X130150000Y-99950000D01*
X126450000Y-99950000D01*
X126450000Y-98850000D01*
G37*
%TD.AperFunction*%
%TA.AperFunction,SMDPad,CuDef*%
%TO.P,L1,1*%
%TO.N,Net-(C101-Pad1)*%
G36*
X126450000Y-95850000D02*
G01*
X130150000Y-95850000D01*
X130150000Y-96950000D01*
X126450000Y-96950000D01*
X126450000Y-95850000D01*
G37*
%TD.AperFunction*%
%TD*%
D20*
%TO.P,J501,4*%
%TO.N,GND*%
X91100000Y-61180000D03*
%TO.P,J501,3*%
%TO.N,/Miscellaneous/CAN-*%
X91100000Y-63720000D03*
%TO.P,J501,2*%
%TO.N,/Miscellaneous/CAN+*%
X91100000Y-66260000D03*
D21*
%TO.P,J501,1*%
%TO.N,/Miscellaneous/3V3_CAN*%
X91100000Y-68800000D03*
%TD*%
D22*
%TO.P,J500,9*%
%TO.N,GND*%
X120875000Y-59575000D03*
X107125000Y-59575000D03*
X107125000Y-52450000D03*
X120875000Y-52450000D03*
D23*
%TO.P,J500,8*%
%TO.N,/Miscellaneous/SD_DAT1*%
X109500000Y-58150000D03*
%TO.P,J500,7*%
%TO.N,/Miscellaneous/SD_DAT0*%
X110600000Y-58150000D03*
%TO.P,J500,6*%
%TO.N,GND*%
X111700000Y-58150000D03*
%TO.P,J500,5*%
%TO.N,/Miscellaneous/SD_CLK*%
X112800000Y-58150000D03*
%TO.P,J500,1*%
%TO.N,/Miscellaneous/SD_DAT2*%
X117200000Y-58150000D03*
%TO.P,J500,2*%
%TO.N,/Miscellaneous/SD_DAT3*%
X116100000Y-58150000D03*
%TO.P,J500,3*%
%TO.N,/Miscellaneous/SD_CMD*%
X115000000Y-58150000D03*
%TO.P,J500,4*%
%TO.N,/Miscellaneous/SD_VDD*%
X113900000Y-58150000D03*
%TD*%
D24*
%TO.P,J300,1*%
%TO.N,Net-(D300-Pad1)*%
X102760000Y-109320000D03*
D25*
%TO.P,J300,2*%
%TO.N,GND*%
X101285000Y-110820000D03*
X104235000Y-110820000D03*
%TD*%
%TA.AperFunction,SMDPad,CuDef*%
D19*
%TO.P,J201,6*%
%TO.N,Net-(J201-Pad6)*%
G36*
X136600000Y-78725000D02*
G01*
X137950000Y-78725000D01*
X137950000Y-79325000D01*
X136600000Y-79325000D01*
X136600000Y-78725000D01*
G37*
%TD.AperFunction*%
%TA.AperFunction,SMDPad,CuDef*%
G36*
X136600000Y-80500000D02*
G01*
X137950000Y-80500000D01*
X137950000Y-81100000D01*
X136600000Y-81100000D01*
X136600000Y-80500000D01*
G37*
%TD.AperFunction*%
D26*
X137225000Y-83600000D03*
X137225000Y-76400000D03*
D27*
X134600000Y-82425000D03*
X134600000Y-77575000D03*
%TA.AperFunction,SMDPad,CuDef*%
D19*
%TO.P,J201,1*%
%TO.N,VBUS*%
G36*
X133975000Y-81100000D02*
G01*
X135225000Y-81100000D01*
X135225000Y-81500000D01*
X133975000Y-81500000D01*
X133975000Y-81100000D01*
G37*
%TD.AperFunction*%
D28*
%TO.P,J201,2*%
%TO.N,CONN_USB_D-*%
X134600000Y-80650000D03*
%TO.P,J201,5*%
%TO.N,GND*%
X134600000Y-78700000D03*
%TO.P,J201,4*%
%TO.N,N/C*%
X134600000Y-79350000D03*
%TO.P,J201,3*%
%TO.N,CONN_USB_D+*%
X134600000Y-80000000D03*
%TD*%
D29*
%TO.P,J200,10*%
%TO.N,N/C*%
X133050000Y-63035000D03*
%TO.P,J200,9*%
%TO.N,GND*%
X134320000Y-63035000D03*
%TO.P,J200,8*%
%TO.N,N/C*%
X133050000Y-64305000D03*
%TO.P,J200,7*%
X134320000Y-64305000D03*
%TO.P,J200,6*%
%TO.N,/Microcontroller/CONN_SWO*%
X133050000Y-65575000D03*
%TO.P,J200,5*%
%TO.N,GND*%
X134320000Y-65575000D03*
%TO.P,J200,4*%
%TO.N,/Microcontroller/CONN_SWCLK*%
X133050000Y-66845000D03*
%TO.P,J200,3*%
%TO.N,GND*%
X134320000Y-66845000D03*
%TO.P,J200,2*%
%TO.N,/Microcontroller/CONN_SWDIO*%
X133050000Y-68115000D03*
D30*
%TO.P,J200,1*%
%TO.N,+3V3*%
X134320000Y-68115000D03*
%TD*%
%TO.P,FB501,2*%
%TO.N,+3V3*%
%TA.AperFunction,SMDPad,CuDef*%
G36*
G01*
X95700000Y-70506250D02*
X95700000Y-69993750D01*
G75*
G02*
X95918750Y-69775000I218750J0D01*
G01*
X96356250Y-69775000D01*
G75*
G02*
X96575000Y-69993750I0J-218750D01*
G01*
X96575000Y-70506250D01*
G75*
G02*
X96356250Y-70725000I-218750J0D01*
G01*
X95918750Y-70725000D01*
G75*
G02*
X95700000Y-70506250I0J218750D01*
G01*
G37*
%TD.AperFunction*%
%TO.P,FB501,1*%
%TO.N,/Miscellaneous/3V3_CAN*%
%TA.AperFunction,SMDPad,CuDef*%
G36*
G01*
X94125000Y-70506250D02*
X94125000Y-69993750D01*
G75*
G02*
X94343750Y-69775000I218750J0D01*
G01*
X94781250Y-69775000D01*
G75*
G02*
X95000000Y-69993750I0J-218750D01*
G01*
X95000000Y-70506250D01*
G75*
G02*
X94781250Y-70725000I-218750J0D01*
G01*
X94343750Y-70725000D01*
G75*
G02*
X94125000Y-70506250I0J218750D01*
G01*
G37*
%TD.AperFunction*%
%TD*%
%TO.P,FB100,2*%
%TO.N,Net-(D100-Pad1)*%
%TA.AperFunction,SMDPad,CuDef*%
G36*
G01*
X132550000Y-91443750D02*
X132550000Y-91956250D01*
G75*
G02*
X132331250Y-92175000I-218750J0D01*
G01*
X131893750Y-92175000D01*
G75*
G02*
X131675000Y-91956250I0J218750D01*
G01*
X131675000Y-91443750D01*
G75*
G02*
X131893750Y-91225000I218750J0D01*
G01*
X132331250Y-91225000D01*
G75*
G02*
X132550000Y-91443750I0J-218750D01*
G01*
G37*
%TD.AperFunction*%
%TO.P,FB100,1*%
%TO.N,+5V*%
%TA.AperFunction,SMDPad,CuDef*%
G36*
G01*
X134125000Y-91443750D02*
X134125000Y-91956250D01*
G75*
G02*
X133906250Y-92175000I-218750J0D01*
G01*
X133468750Y-92175000D01*
G75*
G02*
X133250000Y-91956250I0J218750D01*
G01*
X133250000Y-91443750D01*
G75*
G02*
X133468750Y-91225000I218750J0D01*
G01*
X133906250Y-91225000D01*
G75*
G02*
X134125000Y-91443750I0J-218750D01*
G01*
G37*
%TD.AperFunction*%
%TD*%
%TO.P,D509,2*%
%TO.N,GND*%
%TA.AperFunction,SMDPad,CuDef*%
G36*
G01*
X93622500Y-68110000D02*
X93277500Y-68110000D01*
G75*
G02*
X93130000Y-67962500I0J147500D01*
G01*
X93130000Y-67667500D01*
G75*
G02*
X93277500Y-67520000I147500J0D01*
G01*
X93622500Y-67520000D01*
G75*
G02*
X93770000Y-67667500I0J-147500D01*
G01*
X93770000Y-67962500D01*
G75*
G02*
X93622500Y-68110000I-147500J0D01*
G01*
G37*
%TD.AperFunction*%
%TO.P,D509,1*%
%TO.N,/Miscellaneous/3V3_CAN*%
%TA.AperFunction,SMDPad,CuDef*%
G36*
G01*
X93622500Y-69080000D02*
X93277500Y-69080000D01*
G75*
G02*
X93130000Y-68932500I0J147500D01*
G01*
X93130000Y-68637500D01*
G75*
G02*
X93277500Y-68490000I147500J0D01*
G01*
X93622500Y-68490000D01*
G75*
G02*
X93770000Y-68637500I0J-147500D01*
G01*
X93770000Y-68932500D01*
G75*
G02*
X93622500Y-69080000I-147500J0D01*
G01*
G37*
%TD.AperFunction*%
%TD*%
%TO.P,D508,2*%
%TO.N,GND*%
%TA.AperFunction,SMDPad,CuDef*%
G36*
G01*
X93277500Y-66065000D02*
X93622500Y-66065000D01*
G75*
G02*
X93770000Y-66212500I0J-147500D01*
G01*
X93770000Y-66507500D01*
G75*
G02*
X93622500Y-66655000I-147500J0D01*
G01*
X93277500Y-66655000D01*
G75*
G02*
X93130000Y-66507500I0J147500D01*
G01*
X93130000Y-66212500D01*
G75*
G02*
X93277500Y-66065000I147500J0D01*
G01*
G37*
%TD.AperFunction*%
%TO.P,D508,1*%
%TO.N,/Miscellaneous/CAN+*%
%TA.AperFunction,SMDPad,CuDef*%
G36*
G01*
X93277500Y-65095000D02*
X93622500Y-65095000D01*
G75*
G02*
X93770000Y-65242500I0J-147500D01*
G01*
X93770000Y-65537500D01*
G75*
G02*
X93622500Y-65685000I-147500J0D01*
G01*
X93277500Y-65685000D01*
G75*
G02*
X93130000Y-65537500I0J147500D01*
G01*
X93130000Y-65242500D01*
G75*
G02*
X93277500Y-65095000I147500J0D01*
G01*
G37*
%TD.AperFunction*%
%TD*%
%TO.P,D507,2*%
%TO.N,GND*%
%TA.AperFunction,SMDPad,CuDef*%
G36*
G01*
X94622500Y-63935000D02*
X94277500Y-63935000D01*
G75*
G02*
X94130000Y-63787500I0J147500D01*
G01*
X94130000Y-63492500D01*
G75*
G02*
X94277500Y-63345000I147500J0D01*
G01*
X94622500Y-63345000D01*
G75*
G02*
X94770000Y-63492500I0J-147500D01*
G01*
X94770000Y-63787500D01*
G75*
G02*
X94622500Y-63935000I-147500J0D01*
G01*
G37*
%TD.AperFunction*%
%TO.P,D507,1*%
%TO.N,/Miscellaneous/CAN-*%
%TA.AperFunction,SMDPad,CuDef*%
G36*
G01*
X94622500Y-64905000D02*
X94277500Y-64905000D01*
G75*
G02*
X94130000Y-64757500I0J147500D01*
G01*
X94130000Y-64462500D01*
G75*
G02*
X94277500Y-64315000I147500J0D01*
G01*
X94622500Y-64315000D01*
G75*
G02*
X94770000Y-64462500I0J-147500D01*
G01*
X94770000Y-64757500D01*
G75*
G02*
X94622500Y-64905000I-147500J0D01*
G01*
G37*
%TD.AperFunction*%
%TD*%
%TO.P,D506,2*%
%TO.N,GND*%
%TA.AperFunction,SMDPad,CuDef*%
G36*
G01*
X123227500Y-56990000D02*
X123572500Y-56990000D01*
G75*
G02*
X123720000Y-57137500I0J-147500D01*
G01*
X123720000Y-57432500D01*
G75*
G02*
X123572500Y-57580000I-147500J0D01*
G01*
X123227500Y-57580000D01*
G75*
G02*
X123080000Y-57432500I0J147500D01*
G01*
X123080000Y-57137500D01*
G75*
G02*
X123227500Y-56990000I147500J0D01*
G01*
G37*
%TD.AperFunction*%
%TO.P,D506,1*%
%TO.N,/Miscellaneous/SD_VDD*%
%TA.AperFunction,SMDPad,CuDef*%
G36*
G01*
X123227500Y-56020000D02*
X123572500Y-56020000D01*
G75*
G02*
X123720000Y-56167500I0J-147500D01*
G01*
X123720000Y-56462500D01*
G75*
G02*
X123572500Y-56610000I-147500J0D01*
G01*
X123227500Y-56610000D01*
G75*
G02*
X123080000Y-56462500I0J147500D01*
G01*
X123080000Y-56167500D01*
G75*
G02*
X123227500Y-56020000I147500J0D01*
G01*
G37*
%TD.AperFunction*%
%TD*%
%TO.P,D505,2*%
%TO.N,GND*%
%TA.AperFunction,SMDPad,CuDef*%
G36*
G01*
X107827500Y-65190000D02*
X108172500Y-65190000D01*
G75*
G02*
X108320000Y-65337500I0J-147500D01*
G01*
X108320000Y-65632500D01*
G75*
G02*
X108172500Y-65780000I-147500J0D01*
G01*
X107827500Y-65780000D01*
G75*
G02*
X107680000Y-65632500I0J147500D01*
G01*
X107680000Y-65337500D01*
G75*
G02*
X107827500Y-65190000I147500J0D01*
G01*
G37*
%TD.AperFunction*%
%TO.P,D505,1*%
%TO.N,/Miscellaneous/SD_DAT1*%
%TA.AperFunction,SMDPad,CuDef*%
G36*
G01*
X107827500Y-64220000D02*
X108172500Y-64220000D01*
G75*
G02*
X108320000Y-64367500I0J-147500D01*
G01*
X108320000Y-64662500D01*
G75*
G02*
X108172500Y-64810000I-147500J0D01*
G01*
X107827500Y-64810000D01*
G75*
G02*
X107680000Y-64662500I0J147500D01*
G01*
X107680000Y-64367500D01*
G75*
G02*
X107827500Y-64220000I147500J0D01*
G01*
G37*
%TD.AperFunction*%
%TD*%
%TO.P,D504,2*%
%TO.N,GND*%
%TA.AperFunction,SMDPad,CuDef*%
G36*
G01*
X108827500Y-65190000D02*
X109172500Y-65190000D01*
G75*
G02*
X109320000Y-65337500I0J-147500D01*
G01*
X109320000Y-65632500D01*
G75*
G02*
X109172500Y-65780000I-147500J0D01*
G01*
X108827500Y-65780000D01*
G75*
G02*
X108680000Y-65632500I0J147500D01*
G01*
X108680000Y-65337500D01*
G75*
G02*
X108827500Y-65190000I147500J0D01*
G01*
G37*
%TD.AperFunction*%
%TO.P,D504,1*%
%TO.N,/Miscellaneous/SD_DAT0*%
%TA.AperFunction,SMDPad,CuDef*%
G36*
G01*
X108827500Y-64220000D02*
X109172500Y-64220000D01*
G75*
G02*
X109320000Y-64367500I0J-147500D01*
G01*
X109320000Y-64662500D01*
G75*
G02*
X109172500Y-64810000I-147500J0D01*
G01*
X108827500Y-64810000D01*
G75*
G02*
X108680000Y-64662500I0J147500D01*
G01*
X108680000Y-64367500D01*
G75*
G02*
X108827500Y-64220000I147500J0D01*
G01*
G37*
%TD.AperFunction*%
%TD*%
%TO.P,D503,2*%
%TO.N,GND*%
%TA.AperFunction,SMDPad,CuDef*%
G36*
G01*
X111827500Y-65190000D02*
X112172500Y-65190000D01*
G75*
G02*
X112320000Y-65337500I0J-147500D01*
G01*
X112320000Y-65632500D01*
G75*
G02*
X112172500Y-65780000I-147500J0D01*
G01*
X111827500Y-65780000D01*
G75*
G02*
X111680000Y-65632500I0J147500D01*
G01*
X111680000Y-65337500D01*
G75*
G02*
X111827500Y-65190000I147500J0D01*
G01*
G37*
%TD.AperFunction*%
%TO.P,D503,1*%
%TO.N,/Miscellaneous/SD_CLK*%
%TA.AperFunction,SMDPad,CuDef*%
G36*
G01*
X111827500Y-64220000D02*
X112172500Y-64220000D01*
G75*
G02*
X112320000Y-64367500I0J-147500D01*
G01*
X112320000Y-64662500D01*
G75*
G02*
X112172500Y-64810000I-147500J0D01*
G01*
X111827500Y-64810000D01*
G75*
G02*
X111680000Y-64662500I0J147500D01*
G01*
X111680000Y-64367500D01*
G75*
G02*
X111827500Y-64220000I147500J0D01*
G01*
G37*
%TD.AperFunction*%
%TD*%
%TO.P,D502,2*%
%TO.N,GND*%
%TA.AperFunction,SMDPad,CuDef*%
G36*
G01*
X114827500Y-65190000D02*
X115172500Y-65190000D01*
G75*
G02*
X115320000Y-65337500I0J-147500D01*
G01*
X115320000Y-65632500D01*
G75*
G02*
X115172500Y-65780000I-147500J0D01*
G01*
X114827500Y-65780000D01*
G75*
G02*
X114680000Y-65632500I0J147500D01*
G01*
X114680000Y-65337500D01*
G75*
G02*
X114827500Y-65190000I147500J0D01*
G01*
G37*
%TD.AperFunction*%
%TO.P,D502,1*%
%TO.N,/Miscellaneous/SD_CMD*%
%TA.AperFunction,SMDPad,CuDef*%
G36*
G01*
X114827500Y-64220000D02*
X115172500Y-64220000D01*
G75*
G02*
X115320000Y-64367500I0J-147500D01*
G01*
X115320000Y-64662500D01*
G75*
G02*
X115172500Y-64810000I-147500J0D01*
G01*
X114827500Y-64810000D01*
G75*
G02*
X114680000Y-64662500I0J147500D01*
G01*
X114680000Y-64367500D01*
G75*
G02*
X114827500Y-64220000I147500J0D01*
G01*
G37*
%TD.AperFunction*%
%TD*%
%TO.P,D501,2*%
%TO.N,GND*%
%TA.AperFunction,SMDPad,CuDef*%
G36*
G01*
X117827500Y-65190000D02*
X118172500Y-65190000D01*
G75*
G02*
X118320000Y-65337500I0J-147500D01*
G01*
X118320000Y-65632500D01*
G75*
G02*
X118172500Y-65780000I-147500J0D01*
G01*
X117827500Y-65780000D01*
G75*
G02*
X117680000Y-65632500I0J147500D01*
G01*
X117680000Y-65337500D01*
G75*
G02*
X117827500Y-65190000I147500J0D01*
G01*
G37*
%TD.AperFunction*%
%TO.P,D501,1*%
%TO.N,/Miscellaneous/SD_DAT3*%
%TA.AperFunction,SMDPad,CuDef*%
G36*
G01*
X117827500Y-64220000D02*
X118172500Y-64220000D01*
G75*
G02*
X118320000Y-64367500I0J-147500D01*
G01*
X118320000Y-64662500D01*
G75*
G02*
X118172500Y-64810000I-147500J0D01*
G01*
X117827500Y-64810000D01*
G75*
G02*
X117680000Y-64662500I0J147500D01*
G01*
X117680000Y-64367500D01*
G75*
G02*
X117827500Y-64220000I147500J0D01*
G01*
G37*
%TD.AperFunction*%
%TD*%
%TO.P,D500,2*%
%TO.N,GND*%
%TA.AperFunction,SMDPad,CuDef*%
G36*
G01*
X120827500Y-65190000D02*
X121172500Y-65190000D01*
G75*
G02*
X121320000Y-65337500I0J-147500D01*
G01*
X121320000Y-65632500D01*
G75*
G02*
X121172500Y-65780000I-147500J0D01*
G01*
X120827500Y-65780000D01*
G75*
G02*
X120680000Y-65632500I0J147500D01*
G01*
X120680000Y-65337500D01*
G75*
G02*
X120827500Y-65190000I147500J0D01*
G01*
G37*
%TD.AperFunction*%
%TO.P,D500,1*%
%TO.N,/Miscellaneous/SD_DAT2*%
%TA.AperFunction,SMDPad,CuDef*%
G36*
G01*
X120827500Y-64220000D02*
X121172500Y-64220000D01*
G75*
G02*
X121320000Y-64367500I0J-147500D01*
G01*
X121320000Y-64662500D01*
G75*
G02*
X121172500Y-64810000I-147500J0D01*
G01*
X120827500Y-64810000D01*
G75*
G02*
X120680000Y-64662500I0J147500D01*
G01*
X120680000Y-64367500D01*
G75*
G02*
X120827500Y-64220000I147500J0D01*
G01*
G37*
%TD.AperFunction*%
%TD*%
%TO.P,D300,2*%
%TO.N,GND*%
%TA.AperFunction,SMDPad,CuDef*%
G36*
G01*
X103690000Y-107872500D02*
X103690000Y-107527500D01*
G75*
G02*
X103837500Y-107380000I147500J0D01*
G01*
X104132500Y-107380000D01*
G75*
G02*
X104280000Y-107527500I0J-147500D01*
G01*
X104280000Y-107872500D01*
G75*
G02*
X104132500Y-108020000I-147500J0D01*
G01*
X103837500Y-108020000D01*
G75*
G02*
X103690000Y-107872500I0J147500D01*
G01*
G37*
%TD.AperFunction*%
%TO.P,D300,1*%
%TO.N,Net-(D300-Pad1)*%
%TA.AperFunction,SMDPad,CuDef*%
G36*
G01*
X102720000Y-107872500D02*
X102720000Y-107527500D01*
G75*
G02*
X102867500Y-107380000I147500J0D01*
G01*
X103162500Y-107380000D01*
G75*
G02*
X103310000Y-107527500I0J-147500D01*
G01*
X103310000Y-107872500D01*
G75*
G02*
X103162500Y-108020000I-147500J0D01*
G01*
X102867500Y-108020000D01*
G75*
G02*
X102720000Y-107872500I0J147500D01*
G01*
G37*
%TD.AperFunction*%
%TD*%
%TO.P,D205,2*%
%TO.N,GND*%
%TA.AperFunction,SMDPad,CuDef*%
G36*
G01*
X131677500Y-83690000D02*
X132022500Y-83690000D01*
G75*
G02*
X132170000Y-83837500I0J-147500D01*
G01*
X132170000Y-84132500D01*
G75*
G02*
X132022500Y-84280000I-147500J0D01*
G01*
X131677500Y-84280000D01*
G75*
G02*
X131530000Y-84132500I0J147500D01*
G01*
X131530000Y-83837500D01*
G75*
G02*
X131677500Y-83690000I147500J0D01*
G01*
G37*
%TD.AperFunction*%
%TO.P,D205,1*%
%TO.N,VBUS*%
%TA.AperFunction,SMDPad,CuDef*%
G36*
G01*
X131677500Y-82720000D02*
X132022500Y-82720000D01*
G75*
G02*
X132170000Y-82867500I0J-147500D01*
G01*
X132170000Y-83162500D01*
G75*
G02*
X132022500Y-83310000I-147500J0D01*
G01*
X131677500Y-83310000D01*
G75*
G02*
X131530000Y-83162500I0J147500D01*
G01*
X131530000Y-82867500D01*
G75*
G02*
X131677500Y-82720000I147500J0D01*
G01*
G37*
%TD.AperFunction*%
%TD*%
%TO.P,D204,2*%
%TO.N,GND*%
%TA.AperFunction,SMDPad,CuDef*%
G36*
G01*
X133840000Y-70097500D02*
X133840000Y-69752500D01*
G75*
G02*
X133987500Y-69605000I147500J0D01*
G01*
X134282500Y-69605000D01*
G75*
G02*
X134430000Y-69752500I0J-147500D01*
G01*
X134430000Y-70097500D01*
G75*
G02*
X134282500Y-70245000I-147500J0D01*
G01*
X133987500Y-70245000D01*
G75*
G02*
X133840000Y-70097500I0J147500D01*
G01*
G37*
%TD.AperFunction*%
%TO.P,D204,1*%
%TO.N,/Microcontroller/CONN_SWDIO*%
%TA.AperFunction,SMDPad,CuDef*%
G36*
G01*
X132870000Y-70097500D02*
X132870000Y-69752500D01*
G75*
G02*
X133017500Y-69605000I147500J0D01*
G01*
X133312500Y-69605000D01*
G75*
G02*
X133460000Y-69752500I0J-147500D01*
G01*
X133460000Y-70097500D01*
G75*
G02*
X133312500Y-70245000I-147500J0D01*
G01*
X133017500Y-70245000D01*
G75*
G02*
X132870000Y-70097500I0J147500D01*
G01*
G37*
%TD.AperFunction*%
%TD*%
%TO.P,D203,2*%
%TO.N,GND*%
%TA.AperFunction,SMDPad,CuDef*%
G36*
G01*
X129760000Y-66677500D02*
X129760000Y-67022500D01*
G75*
G02*
X129612500Y-67170000I-147500J0D01*
G01*
X129317500Y-67170000D01*
G75*
G02*
X129170000Y-67022500I0J147500D01*
G01*
X129170000Y-66677500D01*
G75*
G02*
X129317500Y-66530000I147500J0D01*
G01*
X129612500Y-66530000D01*
G75*
G02*
X129760000Y-66677500I0J-147500D01*
G01*
G37*
%TD.AperFunction*%
%TO.P,D203,1*%
%TO.N,/Microcontroller/CONN_SWCLK*%
%TA.AperFunction,SMDPad,CuDef*%
G36*
G01*
X130730000Y-66677500D02*
X130730000Y-67022500D01*
G75*
G02*
X130582500Y-67170000I-147500J0D01*
G01*
X130287500Y-67170000D01*
G75*
G02*
X130140000Y-67022500I0J147500D01*
G01*
X130140000Y-66677500D01*
G75*
G02*
X130287500Y-66530000I147500J0D01*
G01*
X130582500Y-66530000D01*
G75*
G02*
X130730000Y-66677500I0J-147500D01*
G01*
G37*
%TD.AperFunction*%
%TD*%
%TO.P,D202,2*%
%TO.N,GND*%
%TA.AperFunction,SMDPad,CuDef*%
G36*
G01*
X129760000Y-64427500D02*
X129760000Y-64772500D01*
G75*
G02*
X129612500Y-64920000I-147500J0D01*
G01*
X129317500Y-64920000D01*
G75*
G02*
X129170000Y-64772500I0J147500D01*
G01*
X129170000Y-64427500D01*
G75*
G02*
X129317500Y-64280000I147500J0D01*
G01*
X129612500Y-64280000D01*
G75*
G02*
X129760000Y-64427500I0J-147500D01*
G01*
G37*
%TD.AperFunction*%
%TO.P,D202,1*%
%TO.N,/Microcontroller/CONN_SWO*%
%TA.AperFunction,SMDPad,CuDef*%
G36*
G01*
X130730000Y-64427500D02*
X130730000Y-64772500D01*
G75*
G02*
X130582500Y-64920000I-147500J0D01*
G01*
X130287500Y-64920000D01*
G75*
G02*
X130140000Y-64772500I0J147500D01*
G01*
X130140000Y-64427500D01*
G75*
G02*
X130287500Y-64280000I147500J0D01*
G01*
X130582500Y-64280000D01*
G75*
G02*
X130730000Y-64427500I0J-147500D01*
G01*
G37*
%TD.AperFunction*%
%TD*%
%TO.P,D201,2*%
%TO.N,GND*%
%TA.AperFunction,SMDPad,CuDef*%
G36*
G01*
X136847500Y-67235000D02*
X136502500Y-67235000D01*
G75*
G02*
X136355000Y-67087500I0J147500D01*
G01*
X136355000Y-66792500D01*
G75*
G02*
X136502500Y-66645000I147500J0D01*
G01*
X136847500Y-66645000D01*
G75*
G02*
X136995000Y-66792500I0J-147500D01*
G01*
X136995000Y-67087500D01*
G75*
G02*
X136847500Y-67235000I-147500J0D01*
G01*
G37*
%TD.AperFunction*%
%TO.P,D201,1*%
%TO.N,+3V3*%
%TA.AperFunction,SMDPad,CuDef*%
G36*
G01*
X136847500Y-68205000D02*
X136502500Y-68205000D01*
G75*
G02*
X136355000Y-68057500I0J147500D01*
G01*
X136355000Y-67762500D01*
G75*
G02*
X136502500Y-67615000I147500J0D01*
G01*
X136847500Y-67615000D01*
G75*
G02*
X136995000Y-67762500I0J-147500D01*
G01*
X136995000Y-68057500D01*
G75*
G02*
X136847500Y-68205000I-147500J0D01*
G01*
G37*
%TD.AperFunction*%
%TD*%
%TO.P,D200,2*%
%TO.N,/Microcontroller/MCU_LED_A*%
%TA.AperFunction,SMDPad,CuDef*%
G36*
G01*
X122250000Y-84743750D02*
X122250000Y-85256250D01*
G75*
G02*
X122031250Y-85475000I-218750J0D01*
G01*
X121593750Y-85475000D01*
G75*
G02*
X121375000Y-85256250I0J218750D01*
G01*
X121375000Y-84743750D01*
G75*
G02*
X121593750Y-84525000I218750J0D01*
G01*
X122031250Y-84525000D01*
G75*
G02*
X122250000Y-84743750I0J-218750D01*
G01*
G37*
%TD.AperFunction*%
%TO.P,D200,1*%
%TO.N,/Microcontroller/MCU_LED_K*%
%TA.AperFunction,SMDPad,CuDef*%
G36*
G01*
X123825000Y-84743750D02*
X123825000Y-85256250D01*
G75*
G02*
X123606250Y-85475000I-218750J0D01*
G01*
X123168750Y-85475000D01*
G75*
G02*
X122950000Y-85256250I0J218750D01*
G01*
X122950000Y-84743750D01*
G75*
G02*
X123168750Y-84525000I218750J0D01*
G01*
X123606250Y-84525000D01*
G75*
G02*
X123825000Y-84743750I0J-218750D01*
G01*
G37*
%TD.AperFunction*%
%TD*%
%TO.P,D102,2*%
%TO.N,+3V3*%
%TA.AperFunction,SMDPad,CuDef*%
G36*
G01*
X124343750Y-98950000D02*
X124856250Y-98950000D01*
G75*
G02*
X125075000Y-99168750I0J-218750D01*
G01*
X125075000Y-99606250D01*
G75*
G02*
X124856250Y-99825000I-218750J0D01*
G01*
X124343750Y-99825000D01*
G75*
G02*
X124125000Y-99606250I0J218750D01*
G01*
X124125000Y-99168750D01*
G75*
G02*
X124343750Y-98950000I218750J0D01*
G01*
G37*
%TD.AperFunction*%
%TO.P,D102,1*%
%TO.N,Net-(D102-Pad1)*%
%TA.AperFunction,SMDPad,CuDef*%
G36*
G01*
X124343750Y-97375000D02*
X124856250Y-97375000D01*
G75*
G02*
X125075000Y-97593750I0J-218750D01*
G01*
X125075000Y-98031250D01*
G75*
G02*
X124856250Y-98250000I-218750J0D01*
G01*
X124343750Y-98250000D01*
G75*
G02*
X124125000Y-98031250I0J218750D01*
G01*
X124125000Y-97593750D01*
G75*
G02*
X124343750Y-97375000I218750J0D01*
G01*
G37*
%TD.AperFunction*%
%TD*%
D31*
%TO.P,D101,2*%
%TO.N,GND*%
X130350000Y-93900000D03*
%TO.P,D101,1*%
%TO.N,Net-(C101-Pad1)*%
X127050000Y-93900000D03*
%TD*%
D32*
%TO.P,D100,1*%
%TO.N,Net-(D100-Pad1)*%
X130100000Y-91700000D03*
%TO.P,D100,2*%
%TO.N,Net-(D100-Pad2)*%
X128700000Y-91700000D03*
%TD*%
%TO.P,C504,2*%
%TO.N,GND*%
%TA.AperFunction,SMDPad,CuDef*%
G36*
G01*
X94720000Y-68100000D02*
X94380000Y-68100000D01*
G75*
G02*
X94240000Y-67960000I0J140000D01*
G01*
X94240000Y-67680000D01*
G75*
G02*
X94380000Y-67540000I140000J0D01*
G01*
X94720000Y-67540000D01*
G75*
G02*
X94860000Y-67680000I0J-140000D01*
G01*
X94860000Y-67960000D01*
G75*
G02*
X94720000Y-68100000I-140000J0D01*
G01*
G37*
%TD.AperFunction*%
%TO.P,C504,1*%
%TO.N,/Miscellaneous/3V3_CAN*%
%TA.AperFunction,SMDPad,CuDef*%
G36*
G01*
X94720000Y-69060000D02*
X94380000Y-69060000D01*
G75*
G02*
X94240000Y-68920000I0J140000D01*
G01*
X94240000Y-68640000D01*
G75*
G02*
X94380000Y-68500000I140000J0D01*
G01*
X94720000Y-68500000D01*
G75*
G02*
X94860000Y-68640000I0J-140000D01*
G01*
X94860000Y-68920000D01*
G75*
G02*
X94720000Y-69060000I-140000J0D01*
G01*
G37*
%TD.AperFunction*%
%TD*%
%TO.P,C503,2*%
%TO.N,+3V3*%
%TA.AperFunction,SMDPad,CuDef*%
G36*
G01*
X97045000Y-61720000D02*
X97045000Y-61380000D01*
G75*
G02*
X97185000Y-61240000I140000J0D01*
G01*
X97465000Y-61240000D01*
G75*
G02*
X97605000Y-61380000I0J-140000D01*
G01*
X97605000Y-61720000D01*
G75*
G02*
X97465000Y-61860000I-140000J0D01*
G01*
X97185000Y-61860000D01*
G75*
G02*
X97045000Y-61720000I0J140000D01*
G01*
G37*
%TD.AperFunction*%
%TO.P,C503,1*%
%TO.N,GND*%
%TA.AperFunction,SMDPad,CuDef*%
G36*
G01*
X96085000Y-61720000D02*
X96085000Y-61380000D01*
G75*
G02*
X96225000Y-61240000I140000J0D01*
G01*
X96505000Y-61240000D01*
G75*
G02*
X96645000Y-61380000I0J-140000D01*
G01*
X96645000Y-61720000D01*
G75*
G02*
X96505000Y-61860000I-140000J0D01*
G01*
X96225000Y-61860000D01*
G75*
G02*
X96085000Y-61720000I0J140000D01*
G01*
G37*
%TD.AperFunction*%
%TD*%
%TO.P,C502,2*%
%TO.N,+5V*%
%TA.AperFunction,SMDPad,CuDef*%
G36*
G01*
X104370000Y-64800000D02*
X104030000Y-64800000D01*
G75*
G02*
X103890000Y-64660000I0J140000D01*
G01*
X103890000Y-64380000D01*
G75*
G02*
X104030000Y-64240000I140000J0D01*
G01*
X104370000Y-64240000D01*
G75*
G02*
X104510000Y-64380000I0J-140000D01*
G01*
X104510000Y-64660000D01*
G75*
G02*
X104370000Y-64800000I-140000J0D01*
G01*
G37*
%TD.AperFunction*%
%TO.P,C502,1*%
%TO.N,GND*%
%TA.AperFunction,SMDPad,CuDef*%
G36*
G01*
X104370000Y-65760000D02*
X104030000Y-65760000D01*
G75*
G02*
X103890000Y-65620000I0J140000D01*
G01*
X103890000Y-65340000D01*
G75*
G02*
X104030000Y-65200000I140000J0D01*
G01*
X104370000Y-65200000D01*
G75*
G02*
X104510000Y-65340000I0J-140000D01*
G01*
X104510000Y-65620000D01*
G75*
G02*
X104370000Y-65760000I-140000J0D01*
G01*
G37*
%TD.AperFunction*%
%TD*%
%TO.P,C501,2*%
%TO.N,/Miscellaneous/SD_VDD*%
%TA.AperFunction,SMDPad,CuDef*%
G36*
G01*
X114170000Y-64800000D02*
X113830000Y-64800000D01*
G75*
G02*
X113690000Y-64660000I0J140000D01*
G01*
X113690000Y-64380000D01*
G75*
G02*
X113830000Y-64240000I140000J0D01*
G01*
X114170000Y-64240000D01*
G75*
G02*
X114310000Y-64380000I0J-140000D01*
G01*
X114310000Y-64660000D01*
G75*
G02*
X114170000Y-64800000I-140000J0D01*
G01*
G37*
%TD.AperFunction*%
%TO.P,C501,1*%
%TO.N,GND*%
%TA.AperFunction,SMDPad,CuDef*%
G36*
G01*
X114170000Y-65760000D02*
X113830000Y-65760000D01*
G75*
G02*
X113690000Y-65620000I0J140000D01*
G01*
X113690000Y-65340000D01*
G75*
G02*
X113830000Y-65200000I140000J0D01*
G01*
X114170000Y-65200000D01*
G75*
G02*
X114310000Y-65340000I0J-140000D01*
G01*
X114310000Y-65620000D01*
G75*
G02*
X114170000Y-65760000I-140000J0D01*
G01*
G37*
%TD.AperFunction*%
%TD*%
%TO.P,C500,2*%
%TO.N,/Miscellaneous/SD_VDD*%
%TA.AperFunction,SMDPad,CuDef*%
G36*
G01*
X125350000Y-56775000D02*
X124850000Y-56775000D01*
G75*
G02*
X124625000Y-56550000I0J225000D01*
G01*
X124625000Y-56100000D01*
G75*
G02*
X124850000Y-55875000I225000J0D01*
G01*
X125350000Y-55875000D01*
G75*
G02*
X125575000Y-56100000I0J-225000D01*
G01*
X125575000Y-56550000D01*
G75*
G02*
X125350000Y-56775000I-225000J0D01*
G01*
G37*
%TD.AperFunction*%
%TO.P,C500,1*%
%TO.N,GND*%
%TA.AperFunction,SMDPad,CuDef*%
G36*
G01*
X125350000Y-58325000D02*
X124850000Y-58325000D01*
G75*
G02*
X124625000Y-58100000I0J225000D01*
G01*
X124625000Y-57650000D01*
G75*
G02*
X124850000Y-57425000I225000J0D01*
G01*
X125350000Y-57425000D01*
G75*
G02*
X125575000Y-57650000I0J-225000D01*
G01*
X125575000Y-58100000D01*
G75*
G02*
X125350000Y-58325000I-225000J0D01*
G01*
G37*
%TD.AperFunction*%
%TD*%
%TO.P,C406,2*%
%TO.N,GND*%
%TA.AperFunction,SMDPad,CuDef*%
G36*
G01*
X121200000Y-102270000D02*
X121200000Y-101930000D01*
G75*
G02*
X121340000Y-101790000I140000J0D01*
G01*
X121620000Y-101790000D01*
G75*
G02*
X121760000Y-101930000I0J-140000D01*
G01*
X121760000Y-102270000D01*
G75*
G02*
X121620000Y-102410000I-140000J0D01*
G01*
X121340000Y-102410000D01*
G75*
G02*
X121200000Y-102270000I0J140000D01*
G01*
G37*
%TD.AperFunction*%
%TO.P,C406,1*%
%TO.N,/Sensors/IMU_CPOUT*%
%TA.AperFunction,SMDPad,CuDef*%
G36*
G01*
X120240000Y-102270000D02*
X120240000Y-101930000D01*
G75*
G02*
X120380000Y-101790000I140000J0D01*
G01*
X120660000Y-101790000D01*
G75*
G02*
X120800000Y-101930000I0J-140000D01*
G01*
X120800000Y-102270000D01*
G75*
G02*
X120660000Y-102410000I-140000J0D01*
G01*
X120380000Y-102410000D01*
G75*
G02*
X120240000Y-102270000I0J140000D01*
G01*
G37*
%TD.AperFunction*%
%TD*%
%TO.P,C405,2*%
%TO.N,GND*%
%TA.AperFunction,SMDPad,CuDef*%
G36*
G01*
X120230000Y-110100000D02*
X120570000Y-110100000D01*
G75*
G02*
X120710000Y-110240000I0J-140000D01*
G01*
X120710000Y-110520000D01*
G75*
G02*
X120570000Y-110660000I-140000J0D01*
G01*
X120230000Y-110660000D01*
G75*
G02*
X120090000Y-110520000I0J140000D01*
G01*
X120090000Y-110240000D01*
G75*
G02*
X120230000Y-110100000I140000J0D01*
G01*
G37*
%TD.AperFunction*%
%TO.P,C405,1*%
%TO.N,/Sensors/IMU_REGOUT*%
%TA.AperFunction,SMDPad,CuDef*%
G36*
G01*
X120230000Y-109140000D02*
X120570000Y-109140000D01*
G75*
G02*
X120710000Y-109280000I0J-140000D01*
G01*
X120710000Y-109560000D01*
G75*
G02*
X120570000Y-109700000I-140000J0D01*
G01*
X120230000Y-109700000D01*
G75*
G02*
X120090000Y-109560000I0J140000D01*
G01*
X120090000Y-109280000D01*
G75*
G02*
X120230000Y-109140000I140000J0D01*
G01*
G37*
%TD.AperFunction*%
%TD*%
%TO.P,C404,2*%
%TO.N,GND*%
%TA.AperFunction,SMDPad,CuDef*%
G36*
G01*
X123470000Y-105600000D02*
X123130000Y-105600000D01*
G75*
G02*
X122990000Y-105460000I0J140000D01*
G01*
X122990000Y-105180000D01*
G75*
G02*
X123130000Y-105040000I140000J0D01*
G01*
X123470000Y-105040000D01*
G75*
G02*
X123610000Y-105180000I0J-140000D01*
G01*
X123610000Y-105460000D01*
G75*
G02*
X123470000Y-105600000I-140000J0D01*
G01*
G37*
%TD.AperFunction*%
%TO.P,C404,1*%
%TO.N,+3V3*%
%TA.AperFunction,SMDPad,CuDef*%
G36*
G01*
X123470000Y-106560000D02*
X123130000Y-106560000D01*
G75*
G02*
X122990000Y-106420000I0J140000D01*
G01*
X122990000Y-106140000D01*
G75*
G02*
X123130000Y-106000000I140000J0D01*
G01*
X123470000Y-106000000D01*
G75*
G02*
X123610000Y-106140000I0J-140000D01*
G01*
X123610000Y-106420000D01*
G75*
G02*
X123470000Y-106560000I-140000J0D01*
G01*
G37*
%TD.AperFunction*%
%TD*%
%TO.P,C403,2*%
%TO.N,GND*%
%TA.AperFunction,SMDPad,CuDef*%
G36*
G01*
X118900000Y-109570000D02*
X118900000Y-109230000D01*
G75*
G02*
X119040000Y-109090000I140000J0D01*
G01*
X119320000Y-109090000D01*
G75*
G02*
X119460000Y-109230000I0J-140000D01*
G01*
X119460000Y-109570000D01*
G75*
G02*
X119320000Y-109710000I-140000J0D01*
G01*
X119040000Y-109710000D01*
G75*
G02*
X118900000Y-109570000I0J140000D01*
G01*
G37*
%TD.AperFunction*%
%TO.P,C403,1*%
%TO.N,+3V3*%
%TA.AperFunction,SMDPad,CuDef*%
G36*
G01*
X117940000Y-109570000D02*
X117940000Y-109230000D01*
G75*
G02*
X118080000Y-109090000I140000J0D01*
G01*
X118360000Y-109090000D01*
G75*
G02*
X118500000Y-109230000I0J-140000D01*
G01*
X118500000Y-109570000D01*
G75*
G02*
X118360000Y-109710000I-140000J0D01*
G01*
X118080000Y-109710000D01*
G75*
G02*
X117940000Y-109570000I0J140000D01*
G01*
G37*
%TD.AperFunction*%
%TD*%
%TO.P,C402,2*%
%TO.N,GND*%
%TA.AperFunction,SMDPad,CuDef*%
G36*
G01*
X123250000Y-108825000D02*
X123750000Y-108825000D01*
G75*
G02*
X123975000Y-109050000I0J-225000D01*
G01*
X123975000Y-109500000D01*
G75*
G02*
X123750000Y-109725000I-225000J0D01*
G01*
X123250000Y-109725000D01*
G75*
G02*
X123025000Y-109500000I0J225000D01*
G01*
X123025000Y-109050000D01*
G75*
G02*
X123250000Y-108825000I225000J0D01*
G01*
G37*
%TD.AperFunction*%
%TO.P,C402,1*%
%TO.N,+3V3*%
%TA.AperFunction,SMDPad,CuDef*%
G36*
G01*
X123250000Y-107275000D02*
X123750000Y-107275000D01*
G75*
G02*
X123975000Y-107500000I0J-225000D01*
G01*
X123975000Y-107950000D01*
G75*
G02*
X123750000Y-108175000I-225000J0D01*
G01*
X123250000Y-108175000D01*
G75*
G02*
X123025000Y-107950000I0J225000D01*
G01*
X123025000Y-107500000D01*
G75*
G02*
X123250000Y-107275000I225000J0D01*
G01*
G37*
%TD.AperFunction*%
%TD*%
%TO.P,C401,2*%
%TO.N,GND*%
%TA.AperFunction,SMDPad,CuDef*%
G36*
G01*
X114700000Y-96430000D02*
X114700000Y-96770000D01*
G75*
G02*
X114560000Y-96910000I-140000J0D01*
G01*
X114280000Y-96910000D01*
G75*
G02*
X114140000Y-96770000I0J140000D01*
G01*
X114140000Y-96430000D01*
G75*
G02*
X114280000Y-96290000I140000J0D01*
G01*
X114560000Y-96290000D01*
G75*
G02*
X114700000Y-96430000I0J-140000D01*
G01*
G37*
%TD.AperFunction*%
%TO.P,C401,1*%
%TO.N,+3V3*%
%TA.AperFunction,SMDPad,CuDef*%
G36*
G01*
X115660000Y-96430000D02*
X115660000Y-96770000D01*
G75*
G02*
X115520000Y-96910000I-140000J0D01*
G01*
X115240000Y-96910000D01*
G75*
G02*
X115100000Y-96770000I0J140000D01*
G01*
X115100000Y-96430000D01*
G75*
G02*
X115240000Y-96290000I140000J0D01*
G01*
X115520000Y-96290000D01*
G75*
G02*
X115660000Y-96430000I0J-140000D01*
G01*
G37*
%TD.AperFunction*%
%TD*%
%TO.P,C400,2*%
%TO.N,GND*%
%TA.AperFunction,SMDPad,CuDef*%
G36*
G01*
X116930000Y-94400000D02*
X117270000Y-94400000D01*
G75*
G02*
X117410000Y-94540000I0J-140000D01*
G01*
X117410000Y-94820000D01*
G75*
G02*
X117270000Y-94960000I-140000J0D01*
G01*
X116930000Y-94960000D01*
G75*
G02*
X116790000Y-94820000I0J140000D01*
G01*
X116790000Y-94540000D01*
G75*
G02*
X116930000Y-94400000I140000J0D01*
G01*
G37*
%TD.AperFunction*%
%TO.P,C400,1*%
%TO.N,+3V3*%
%TA.AperFunction,SMDPad,CuDef*%
G36*
G01*
X116930000Y-93440000D02*
X117270000Y-93440000D01*
G75*
G02*
X117410000Y-93580000I0J-140000D01*
G01*
X117410000Y-93860000D01*
G75*
G02*
X117270000Y-94000000I-140000J0D01*
G01*
X116930000Y-94000000D01*
G75*
G02*
X116790000Y-93860000I0J140000D01*
G01*
X116790000Y-93580000D01*
G75*
G02*
X116930000Y-93440000I140000J0D01*
G01*
G37*
%TD.AperFunction*%
%TD*%
%TO.P,C303,2*%
%TO.N,GND*%
%TA.AperFunction,SMDPad,CuDef*%
G36*
G01*
X107695000Y-107380000D02*
X107695000Y-107040000D01*
G75*
G02*
X107835000Y-106900000I140000J0D01*
G01*
X108115000Y-106900000D01*
G75*
G02*
X108255000Y-107040000I0J-140000D01*
G01*
X108255000Y-107380000D01*
G75*
G02*
X108115000Y-107520000I-140000J0D01*
G01*
X107835000Y-107520000D01*
G75*
G02*
X107695000Y-107380000I0J140000D01*
G01*
G37*
%TD.AperFunction*%
%TO.P,C303,1*%
%TO.N,Net-(C303-Pad1)*%
%TA.AperFunction,SMDPad,CuDef*%
G36*
G01*
X106735000Y-107380000D02*
X106735000Y-107040000D01*
G75*
G02*
X106875000Y-106900000I140000J0D01*
G01*
X107155000Y-106900000D01*
G75*
G02*
X107295000Y-107040000I0J-140000D01*
G01*
X107295000Y-107380000D01*
G75*
G02*
X107155000Y-107520000I-140000J0D01*
G01*
X106875000Y-107520000D01*
G75*
G02*
X106735000Y-107380000I0J140000D01*
G01*
G37*
%TD.AperFunction*%
%TD*%
%TO.P,C302,2*%
%TO.N,GND*%
%TA.AperFunction,SMDPad,CuDef*%
G36*
G01*
X105130000Y-91420000D02*
X104790000Y-91420000D01*
G75*
G02*
X104650000Y-91280000I0J140000D01*
G01*
X104650000Y-91000000D01*
G75*
G02*
X104790000Y-90860000I140000J0D01*
G01*
X105130000Y-90860000D01*
G75*
G02*
X105270000Y-91000000I0J-140000D01*
G01*
X105270000Y-91280000D01*
G75*
G02*
X105130000Y-91420000I-140000J0D01*
G01*
G37*
%TD.AperFunction*%
%TO.P,C302,1*%
%TO.N,+3V3*%
%TA.AperFunction,SMDPad,CuDef*%
G36*
G01*
X105130000Y-92380000D02*
X104790000Y-92380000D01*
G75*
G02*
X104650000Y-92240000I0J140000D01*
G01*
X104650000Y-91960000D01*
G75*
G02*
X104790000Y-91820000I140000J0D01*
G01*
X105130000Y-91820000D01*
G75*
G02*
X105270000Y-91960000I0J-140000D01*
G01*
X105270000Y-92240000D01*
G75*
G02*
X105130000Y-92380000I-140000J0D01*
G01*
G37*
%TD.AperFunction*%
%TD*%
%TO.P,C301,2*%
%TO.N,GND*%
%TA.AperFunction,SMDPad,CuDef*%
G36*
G01*
X102930000Y-91420000D02*
X102590000Y-91420000D01*
G75*
G02*
X102450000Y-91280000I0J140000D01*
G01*
X102450000Y-91000000D01*
G75*
G02*
X102590000Y-90860000I140000J0D01*
G01*
X102930000Y-90860000D01*
G75*
G02*
X103070000Y-91000000I0J-140000D01*
G01*
X103070000Y-91280000D01*
G75*
G02*
X102930000Y-91420000I-140000J0D01*
G01*
G37*
%TD.AperFunction*%
%TO.P,C301,1*%
%TO.N,+3V3*%
%TA.AperFunction,SMDPad,CuDef*%
G36*
G01*
X102930000Y-92380000D02*
X102590000Y-92380000D01*
G75*
G02*
X102450000Y-92240000I0J140000D01*
G01*
X102450000Y-91960000D01*
G75*
G02*
X102590000Y-91820000I140000J0D01*
G01*
X102930000Y-91820000D01*
G75*
G02*
X103070000Y-91960000I0J-140000D01*
G01*
X103070000Y-92240000D01*
G75*
G02*
X102930000Y-92380000I-140000J0D01*
G01*
G37*
%TD.AperFunction*%
%TD*%
%TO.P,C300,2*%
%TO.N,GND*%
%TA.AperFunction,SMDPad,CuDef*%
G36*
G01*
X101610000Y-90695000D02*
X101110000Y-90695000D01*
G75*
G02*
X100885000Y-90470000I0J225000D01*
G01*
X100885000Y-90020000D01*
G75*
G02*
X101110000Y-89795000I225000J0D01*
G01*
X101610000Y-89795000D01*
G75*
G02*
X101835000Y-90020000I0J-225000D01*
G01*
X101835000Y-90470000D01*
G75*
G02*
X101610000Y-90695000I-225000J0D01*
G01*
G37*
%TD.AperFunction*%
%TO.P,C300,1*%
%TO.N,+3V3*%
%TA.AperFunction,SMDPad,CuDef*%
G36*
G01*
X101610000Y-92245000D02*
X101110000Y-92245000D01*
G75*
G02*
X100885000Y-92020000I0J225000D01*
G01*
X100885000Y-91570000D01*
G75*
G02*
X101110000Y-91345000I225000J0D01*
G01*
X101610000Y-91345000D01*
G75*
G02*
X101835000Y-91570000I0J-225000D01*
G01*
X101835000Y-92020000D01*
G75*
G02*
X101610000Y-92245000I-225000J0D01*
G01*
G37*
%TD.AperFunction*%
%TD*%
%TO.P,C212,2*%
%TO.N,VBUS*%
%TA.AperFunction,SMDPad,CuDef*%
G36*
G01*
X128600000Y-83170000D02*
X128600000Y-82830000D01*
G75*
G02*
X128740000Y-82690000I140000J0D01*
G01*
X129020000Y-82690000D01*
G75*
G02*
X129160000Y-82830000I0J-140000D01*
G01*
X129160000Y-83170000D01*
G75*
G02*
X129020000Y-83310000I-140000J0D01*
G01*
X128740000Y-83310000D01*
G75*
G02*
X128600000Y-83170000I0J140000D01*
G01*
G37*
%TD.AperFunction*%
%TO.P,C212,1*%
%TO.N,GND*%
%TA.AperFunction,SMDPad,CuDef*%
G36*
G01*
X127640000Y-83170000D02*
X127640000Y-82830000D01*
G75*
G02*
X127780000Y-82690000I140000J0D01*
G01*
X128060000Y-82690000D01*
G75*
G02*
X128200000Y-82830000I0J-140000D01*
G01*
X128200000Y-83170000D01*
G75*
G02*
X128060000Y-83310000I-140000J0D01*
G01*
X127780000Y-83310000D01*
G75*
G02*
X127640000Y-83170000I0J140000D01*
G01*
G37*
%TD.AperFunction*%
%TD*%
%TO.P,C210,2*%
%TO.N,GND*%
%TA.AperFunction,SMDPad,CuDef*%
G36*
G01*
X104230000Y-80700000D02*
X104570000Y-80700000D01*
G75*
G02*
X104710000Y-80840000I0J-140000D01*
G01*
X104710000Y-81120000D01*
G75*
G02*
X104570000Y-81260000I-140000J0D01*
G01*
X104230000Y-81260000D01*
G75*
G02*
X104090000Y-81120000I0J140000D01*
G01*
X104090000Y-80840000D01*
G75*
G02*
X104230000Y-80700000I140000J0D01*
G01*
G37*
%TD.AperFunction*%
%TO.P,C210,1*%
%TO.N,/Microcontroller/MCU_HSE_OUT_R*%
%TA.AperFunction,SMDPad,CuDef*%
G36*
G01*
X104230000Y-79740000D02*
X104570000Y-79740000D01*
G75*
G02*
X104710000Y-79880000I0J-140000D01*
G01*
X104710000Y-80160000D01*
G75*
G02*
X104570000Y-80300000I-140000J0D01*
G01*
X104230000Y-80300000D01*
G75*
G02*
X104090000Y-80160000I0J140000D01*
G01*
X104090000Y-79880000D01*
G75*
G02*
X104230000Y-79740000I140000J0D01*
G01*
G37*
%TD.AperFunction*%
%TD*%
%TO.P,C209,2*%
%TO.N,GND*%
%TA.AperFunction,SMDPad,CuDef*%
G36*
G01*
X104570000Y-78200000D02*
X104230000Y-78200000D01*
G75*
G02*
X104090000Y-78060000I0J140000D01*
G01*
X104090000Y-77780000D01*
G75*
G02*
X104230000Y-77640000I140000J0D01*
G01*
X104570000Y-77640000D01*
G75*
G02*
X104710000Y-77780000I0J-140000D01*
G01*
X104710000Y-78060000D01*
G75*
G02*
X104570000Y-78200000I-140000J0D01*
G01*
G37*
%TD.AperFunction*%
%TO.P,C209,1*%
%TO.N,/Microcontroller/MCU_HSE_IN*%
%TA.AperFunction,SMDPad,CuDef*%
G36*
G01*
X104570000Y-79160000D02*
X104230000Y-79160000D01*
G75*
G02*
X104090000Y-79020000I0J140000D01*
G01*
X104090000Y-78740000D01*
G75*
G02*
X104230000Y-78600000I140000J0D01*
G01*
X104570000Y-78600000D01*
G75*
G02*
X104710000Y-78740000I0J-140000D01*
G01*
X104710000Y-79020000D01*
G75*
G02*
X104570000Y-79160000I-140000J0D01*
G01*
G37*
%TD.AperFunction*%
%TD*%
%TO.P,C208,2*%
%TO.N,GND*%
%TA.AperFunction,SMDPad,CuDef*%
G36*
G01*
X121950000Y-75275000D02*
X121450000Y-75275000D01*
G75*
G02*
X121225000Y-75050000I0J225000D01*
G01*
X121225000Y-74600000D01*
G75*
G02*
X121450000Y-74375000I225000J0D01*
G01*
X121950000Y-74375000D01*
G75*
G02*
X122175000Y-74600000I0J-225000D01*
G01*
X122175000Y-75050000D01*
G75*
G02*
X121950000Y-75275000I-225000J0D01*
G01*
G37*
%TD.AperFunction*%
%TO.P,C208,1*%
%TO.N,/Microcontroller/MCU_VCAP2*%
%TA.AperFunction,SMDPad,CuDef*%
G36*
G01*
X121950000Y-76825000D02*
X121450000Y-76825000D01*
G75*
G02*
X121225000Y-76600000I0J225000D01*
G01*
X121225000Y-76150000D01*
G75*
G02*
X121450000Y-75925000I225000J0D01*
G01*
X121950000Y-75925000D01*
G75*
G02*
X122175000Y-76150000I0J-225000D01*
G01*
X122175000Y-76600000D01*
G75*
G02*
X121950000Y-76825000I-225000J0D01*
G01*
G37*
%TD.AperFunction*%
%TD*%
%TO.P,C207,2*%
%TO.N,GND*%
%TA.AperFunction,SMDPad,CuDef*%
G36*
G01*
X119125000Y-88350000D02*
X119125000Y-87850000D01*
G75*
G02*
X119350000Y-87625000I225000J0D01*
G01*
X119800000Y-87625000D01*
G75*
G02*
X120025000Y-87850000I0J-225000D01*
G01*
X120025000Y-88350000D01*
G75*
G02*
X119800000Y-88575000I-225000J0D01*
G01*
X119350000Y-88575000D01*
G75*
G02*
X119125000Y-88350000I0J225000D01*
G01*
G37*
%TD.AperFunction*%
%TO.P,C207,1*%
%TO.N,/Microcontroller/MCU_VCAP1*%
%TA.AperFunction,SMDPad,CuDef*%
G36*
G01*
X117575000Y-88350000D02*
X117575000Y-87850000D01*
G75*
G02*
X117800000Y-87625000I225000J0D01*
G01*
X118250000Y-87625000D01*
G75*
G02*
X118475000Y-87850000I0J-225000D01*
G01*
X118475000Y-88350000D01*
G75*
G02*
X118250000Y-88575000I-225000J0D01*
G01*
X117800000Y-88575000D01*
G75*
G02*
X117575000Y-88350000I0J225000D01*
G01*
G37*
%TD.AperFunction*%
%TD*%
%TO.P,C206,2*%
%TO.N,GND*%
%TA.AperFunction,SMDPad,CuDef*%
G36*
G01*
X106470000Y-81800000D02*
X106130000Y-81800000D01*
G75*
G02*
X105990000Y-81660000I0J140000D01*
G01*
X105990000Y-81380000D01*
G75*
G02*
X106130000Y-81240000I140000J0D01*
G01*
X106470000Y-81240000D01*
G75*
G02*
X106610000Y-81380000I0J-140000D01*
G01*
X106610000Y-81660000D01*
G75*
G02*
X106470000Y-81800000I-140000J0D01*
G01*
G37*
%TD.AperFunction*%
%TO.P,C206,1*%
%TO.N,+3V3*%
%TA.AperFunction,SMDPad,CuDef*%
G36*
G01*
X106470000Y-82760000D02*
X106130000Y-82760000D01*
G75*
G02*
X105990000Y-82620000I0J140000D01*
G01*
X105990000Y-82340000D01*
G75*
G02*
X106130000Y-82200000I140000J0D01*
G01*
X106470000Y-82200000D01*
G75*
G02*
X106610000Y-82340000I0J-140000D01*
G01*
X106610000Y-82620000D01*
G75*
G02*
X106470000Y-82760000I-140000J0D01*
G01*
G37*
%TD.AperFunction*%
%TD*%
%TO.P,C205,2*%
%TO.N,GND*%
%TA.AperFunction,SMDPad,CuDef*%
G36*
G01*
X110300000Y-87830000D02*
X110300000Y-88170000D01*
G75*
G02*
X110160000Y-88310000I-140000J0D01*
G01*
X109880000Y-88310000D01*
G75*
G02*
X109740000Y-88170000I0J140000D01*
G01*
X109740000Y-87830000D01*
G75*
G02*
X109880000Y-87690000I140000J0D01*
G01*
X110160000Y-87690000D01*
G75*
G02*
X110300000Y-87830000I0J-140000D01*
G01*
G37*
%TD.AperFunction*%
%TO.P,C205,1*%
%TO.N,+3V3*%
%TA.AperFunction,SMDPad,CuDef*%
G36*
G01*
X111260000Y-87830000D02*
X111260000Y-88170000D01*
G75*
G02*
X111120000Y-88310000I-140000J0D01*
G01*
X110840000Y-88310000D01*
G75*
G02*
X110700000Y-88170000I0J140000D01*
G01*
X110700000Y-87830000D01*
G75*
G02*
X110840000Y-87690000I140000J0D01*
G01*
X111120000Y-87690000D01*
G75*
G02*
X111260000Y-87830000I0J-140000D01*
G01*
G37*
%TD.AperFunction*%
%TD*%
%TO.P,C204,2*%
%TO.N,GND*%
%TA.AperFunction,SMDPad,CuDef*%
G36*
G01*
X119600000Y-86870000D02*
X119600000Y-86530000D01*
G75*
G02*
X119740000Y-86390000I140000J0D01*
G01*
X120020000Y-86390000D01*
G75*
G02*
X120160000Y-86530000I0J-140000D01*
G01*
X120160000Y-86870000D01*
G75*
G02*
X120020000Y-87010000I-140000J0D01*
G01*
X119740000Y-87010000D01*
G75*
G02*
X119600000Y-86870000I0J140000D01*
G01*
G37*
%TD.AperFunction*%
%TO.P,C204,1*%
%TO.N,+3V3*%
%TA.AperFunction,SMDPad,CuDef*%
G36*
G01*
X118640000Y-86870000D02*
X118640000Y-86530000D01*
G75*
G02*
X118780000Y-86390000I140000J0D01*
G01*
X119060000Y-86390000D01*
G75*
G02*
X119200000Y-86530000I0J-140000D01*
G01*
X119200000Y-86870000D01*
G75*
G02*
X119060000Y-87010000I-140000J0D01*
G01*
X118780000Y-87010000D01*
G75*
G02*
X118640000Y-86870000I0J140000D01*
G01*
G37*
%TD.AperFunction*%
%TD*%
%TO.P,C203,2*%
%TO.N,GND*%
%TA.AperFunction,SMDPad,CuDef*%
G36*
G01*
X120370000Y-74800000D02*
X120030000Y-74800000D01*
G75*
G02*
X119890000Y-74660000I0J140000D01*
G01*
X119890000Y-74380000D01*
G75*
G02*
X120030000Y-74240000I140000J0D01*
G01*
X120370000Y-74240000D01*
G75*
G02*
X120510000Y-74380000I0J-140000D01*
G01*
X120510000Y-74660000D01*
G75*
G02*
X120370000Y-74800000I-140000J0D01*
G01*
G37*
%TD.AperFunction*%
%TO.P,C203,1*%
%TO.N,+3V3*%
%TA.AperFunction,SMDPad,CuDef*%
G36*
G01*
X120370000Y-75760000D02*
X120030000Y-75760000D01*
G75*
G02*
X119890000Y-75620000I0J140000D01*
G01*
X119890000Y-75340000D01*
G75*
G02*
X120030000Y-75200000I140000J0D01*
G01*
X120370000Y-75200000D01*
G75*
G02*
X120510000Y-75340000I0J-140000D01*
G01*
X120510000Y-75620000D01*
G75*
G02*
X120370000Y-75760000I-140000J0D01*
G01*
G37*
%TD.AperFunction*%
%TD*%
%TO.P,C202,2*%
%TO.N,GND*%
%TA.AperFunction,SMDPad,CuDef*%
G36*
G01*
X110200000Y-73170000D02*
X110200000Y-72830000D01*
G75*
G02*
X110340000Y-72690000I140000J0D01*
G01*
X110620000Y-72690000D01*
G75*
G02*
X110760000Y-72830000I0J-140000D01*
G01*
X110760000Y-73170000D01*
G75*
G02*
X110620000Y-73310000I-140000J0D01*
G01*
X110340000Y-73310000D01*
G75*
G02*
X110200000Y-73170000I0J140000D01*
G01*
G37*
%TD.AperFunction*%
%TO.P,C202,1*%
%TO.N,+3V3*%
%TA.AperFunction,SMDPad,CuDef*%
G36*
G01*
X109240000Y-73170000D02*
X109240000Y-72830000D01*
G75*
G02*
X109380000Y-72690000I140000J0D01*
G01*
X109660000Y-72690000D01*
G75*
G02*
X109800000Y-72830000I0J-140000D01*
G01*
X109800000Y-73170000D01*
G75*
G02*
X109660000Y-73310000I-140000J0D01*
G01*
X109380000Y-73310000D01*
G75*
G02*
X109240000Y-73170000I0J140000D01*
G01*
G37*
%TD.AperFunction*%
%TD*%
%TO.P,C201,2*%
%TO.N,GND*%
%TA.AperFunction,SMDPad,CuDef*%
G36*
G01*
X107970000Y-74800000D02*
X107630000Y-74800000D01*
G75*
G02*
X107490000Y-74660000I0J140000D01*
G01*
X107490000Y-74380000D01*
G75*
G02*
X107630000Y-74240000I140000J0D01*
G01*
X107970000Y-74240000D01*
G75*
G02*
X108110000Y-74380000I0J-140000D01*
G01*
X108110000Y-74660000D01*
G75*
G02*
X107970000Y-74800000I-140000J0D01*
G01*
G37*
%TD.AperFunction*%
%TO.P,C201,1*%
%TO.N,+3V3*%
%TA.AperFunction,SMDPad,CuDef*%
G36*
G01*
X107970000Y-75760000D02*
X107630000Y-75760000D01*
G75*
G02*
X107490000Y-75620000I0J140000D01*
G01*
X107490000Y-75340000D01*
G75*
G02*
X107630000Y-75200000I140000J0D01*
G01*
X107970000Y-75200000D01*
G75*
G02*
X108110000Y-75340000I0J-140000D01*
G01*
X108110000Y-75620000D01*
G75*
G02*
X107970000Y-75760000I-140000J0D01*
G01*
G37*
%TD.AperFunction*%
%TD*%
%TO.P,C200,2*%
%TO.N,GND*%
%TA.AperFunction,SMDPad,CuDef*%
G36*
G01*
X106550000Y-73675000D02*
X106050000Y-73675000D01*
G75*
G02*
X105825000Y-73450000I0J225000D01*
G01*
X105825000Y-73000000D01*
G75*
G02*
X106050000Y-72775000I225000J0D01*
G01*
X106550000Y-72775000D01*
G75*
G02*
X106775000Y-73000000I0J-225000D01*
G01*
X106775000Y-73450000D01*
G75*
G02*
X106550000Y-73675000I-225000J0D01*
G01*
G37*
%TD.AperFunction*%
%TO.P,C200,1*%
%TO.N,+3V3*%
%TA.AperFunction,SMDPad,CuDef*%
G36*
G01*
X106550000Y-75225000D02*
X106050000Y-75225000D01*
G75*
G02*
X105825000Y-75000000I0J225000D01*
G01*
X105825000Y-74550000D01*
G75*
G02*
X106050000Y-74325000I225000J0D01*
G01*
X106550000Y-74325000D01*
G75*
G02*
X106775000Y-74550000I0J-225000D01*
G01*
X106775000Y-75000000D01*
G75*
G02*
X106550000Y-75225000I-225000J0D01*
G01*
G37*
%TD.AperFunction*%
%TD*%
%TO.P,C102,2*%
%TO.N,GND*%
%TA.AperFunction,SMDPad,CuDef*%
G36*
G01*
X132825000Y-100550000D02*
X132825000Y-100050000D01*
G75*
G02*
X133050000Y-99825000I225000J0D01*
G01*
X133500000Y-99825000D01*
G75*
G02*
X133725000Y-100050000I0J-225000D01*
G01*
X133725000Y-100550000D01*
G75*
G02*
X133500000Y-100775000I-225000J0D01*
G01*
X133050000Y-100775000D01*
G75*
G02*
X132825000Y-100550000I0J225000D01*
G01*
G37*
%TD.AperFunction*%
%TO.P,C102,1*%
%TO.N,+3V3*%
%TA.AperFunction,SMDPad,CuDef*%
G36*
G01*
X131275000Y-100550000D02*
X131275000Y-100050000D01*
G75*
G02*
X131500000Y-99825000I225000J0D01*
G01*
X131950000Y-99825000D01*
G75*
G02*
X132175000Y-100050000I0J-225000D01*
G01*
X132175000Y-100550000D01*
G75*
G02*
X131950000Y-100775000I-225000J0D01*
G01*
X131500000Y-100775000D01*
G75*
G02*
X131275000Y-100550000I0J225000D01*
G01*
G37*
%TD.AperFunction*%
%TD*%
%TO.P,C101,2*%
%TO.N,Net-(C101-Pad2)*%
%TA.AperFunction,SMDPad,CuDef*%
G36*
G01*
X131130000Y-97300000D02*
X131470000Y-97300000D01*
G75*
G02*
X131610000Y-97440000I0J-140000D01*
G01*
X131610000Y-97720000D01*
G75*
G02*
X131470000Y-97860000I-140000J0D01*
G01*
X131130000Y-97860000D01*
G75*
G02*
X130990000Y-97720000I0J140000D01*
G01*
X130990000Y-97440000D01*
G75*
G02*
X131130000Y-97300000I140000J0D01*
G01*
G37*
%TD.AperFunction*%
%TO.P,C101,1*%
%TO.N,Net-(C101-Pad1)*%
%TA.AperFunction,SMDPad,CuDef*%
G36*
G01*
X131130000Y-96340000D02*
X131470000Y-96340000D01*
G75*
G02*
X131610000Y-96480000I0J-140000D01*
G01*
X131610000Y-96760000D01*
G75*
G02*
X131470000Y-96900000I-140000J0D01*
G01*
X131130000Y-96900000D01*
G75*
G02*
X130990000Y-96760000I0J140000D01*
G01*
X130990000Y-96480000D01*
G75*
G02*
X131130000Y-96340000I140000J0D01*
G01*
G37*
%TD.AperFunction*%
%TD*%
%TO.P,C100,2*%
%TO.N,GND*%
%TA.AperFunction,SMDPad,CuDef*%
G36*
G01*
X132575000Y-93650000D02*
X132575000Y-94150000D01*
G75*
G02*
X132350000Y-94375000I-225000J0D01*
G01*
X131900000Y-94375000D01*
G75*
G02*
X131675000Y-94150000I0J225000D01*
G01*
X131675000Y-93650000D01*
G75*
G02*
X131900000Y-93425000I225000J0D01*
G01*
X132350000Y-93425000D01*
G75*
G02*
X132575000Y-93650000I0J-225000D01*
G01*
G37*
%TD.AperFunction*%
%TO.P,C100,1*%
%TO.N,+5V*%
%TA.AperFunction,SMDPad,CuDef*%
G36*
G01*
X134125000Y-93650000D02*
X134125000Y-94150000D01*
G75*
G02*
X133900000Y-94375000I-225000J0D01*
G01*
X133450000Y-94375000D01*
G75*
G02*
X133225000Y-94150000I0J225000D01*
G01*
X133225000Y-93650000D01*
G75*
G02*
X133450000Y-93425000I225000J0D01*
G01*
X133900000Y-93425000D01*
G75*
G02*
X134125000Y-93650000I0J-225000D01*
G01*
G37*
%TD.AperFunction*%
%TD*%
D33*
%TO.N,GND*%
X124600000Y-94200000D03*
X120950000Y-73930000D03*
X111700000Y-59500000D03*
X111700000Y-56800000D03*
X103900000Y-106780000D03*
X101300000Y-105250000D03*
X101300000Y-106500000D03*
X103900000Y-105450000D03*
X101300000Y-107725000D03*
X104950000Y-90275000D03*
X121225000Y-83500000D03*
X135825000Y-78700000D03*
X133125000Y-78700000D03*
X136675000Y-66050000D03*
X134150000Y-70850000D03*
X128575000Y-66850000D03*
X128575000Y-64600000D03*
X122200000Y-59575000D03*
X125100000Y-58925000D03*
X123400000Y-58175000D03*
X122200000Y-52450000D03*
X105800000Y-52475000D03*
X105800000Y-59575000D03*
X95375000Y-78450000D03*
X119500000Y-110300000D03*
X123500000Y-110300000D03*
X122650000Y-104600000D03*
X122350000Y-102100000D03*
X116700000Y-95500000D03*
X113675000Y-96000000D03*
X134800000Y-101875000D03*
X133250000Y-101350000D03*
X133700000Y-97200000D03*
X132500000Y-92850000D03*
X129300000Y-93900000D03*
X126900000Y-87625000D03*
X131850000Y-84875000D03*
X127050000Y-83000000D03*
X102425000Y-90275000D03*
X110450000Y-95450000D03*
X101650000Y-102175000D03*
X103875000Y-102175000D03*
X104225000Y-109325000D03*
X103300000Y-111750000D03*
X103300000Y-110750000D03*
X102200000Y-110750000D03*
X102200000Y-111750000D03*
X101300000Y-109325000D03*
X104675000Y-107675000D03*
X107960000Y-108130000D03*
X120625000Y-88100000D03*
X120775000Y-86700000D03*
X109900000Y-88900000D03*
X105400000Y-81200000D03*
X107300000Y-73700000D03*
X110550000Y-72100000D03*
X94225000Y-66950000D03*
X94450000Y-62750000D03*
X95475000Y-61550000D03*
X104225000Y-66350000D03*
X108500000Y-66350000D03*
X112000000Y-66375000D03*
X120875000Y-66375000D03*
X117900000Y-66375000D03*
X114475000Y-66350000D03*
X104400000Y-77100000D03*
X103700000Y-76200000D03*
X102500000Y-76200000D03*
X101300000Y-76200000D03*
X100100000Y-76200000D03*
X99500000Y-77200000D03*
X99500000Y-78400000D03*
X99500000Y-79600000D03*
X99500000Y-80800000D03*
X100300000Y-81600000D03*
X101500000Y-81600000D03*
X102700000Y-81600000D03*
X103700000Y-81600000D03*
X129100000Y-78200000D03*
%TO.N,+5V*%
X102900000Y-61500000D03*
X102900000Y-59500000D03*
X133000000Y-83300000D03*
X131500000Y-78800000D03*
X137900000Y-69000000D03*
X136700000Y-64500000D03*
X129600000Y-58100000D03*
X128300000Y-56400000D03*
%TO.N,+3V3*%
X116700000Y-84700000D03*
X109325000Y-72100000D03*
X107000000Y-63600000D03*
X110000000Y-66375000D03*
X123000000Y-66375000D03*
X119100000Y-66375000D03*
X116000000Y-66375000D03*
X114900000Y-84600000D03*
X97100000Y-68600000D03*
X99100000Y-68700000D03*
X116500000Y-112200000D03*
X116900000Y-110400000D03*
X107400000Y-71900000D03*
X115100000Y-80300000D03*
X117200000Y-78200000D03*
%TO.N,/Microcontroller/MCU_BOOT0*%
X96400000Y-87600000D03*
X99600000Y-87600000D03*
X104000000Y-85600000D03*
X109800000Y-84500000D03*
%TO.N,MCU_I2C2_SDA*%
X120400000Y-99800000D03*
X117000000Y-100000000D03*
%TO.N,MCU_SWO*%
X127100000Y-66900000D03*
X127100000Y-64700000D03*
%TO.N,MCU_SDIO_CK*%
X115400000Y-70400000D03*
X114300000Y-68600000D03*
%TO.N,MCU_SDIO_D0*%
X113500000Y-73300000D03*
X114200000Y-77600000D03*
%TO.N,MCU_SDIO_D1*%
X112400000Y-73400000D03*
X113000000Y-76700000D03*
%TO.N,MCU_SPI1_MOSI*%
X112900000Y-90300000D03*
X114000000Y-87600000D03*
%TO.N,GPS_PPS*%
X107200000Y-91200000D03*
X108600000Y-88100000D03*
%TO.N,GPS_NRST*%
X104200000Y-83800000D03*
X109800000Y-83300000D03*
%TO.N,GPS_ONOFF*%
X106200000Y-90300000D03*
X107600000Y-87100000D03*
%TD*%
D34*
%TO.N,GND*%
X103860000Y-105492500D02*
X103860000Y-104077500D01*
X103860000Y-108155000D02*
X103860000Y-106740000D01*
D35*
X104280000Y-77800000D02*
X104400000Y-77920000D01*
X102750000Y-77800000D02*
X104280000Y-77800000D01*
X104400000Y-80980000D02*
X104400000Y-81000000D01*
X104400000Y-81000000D02*
X103800000Y-81600000D01*
X103800000Y-81600000D02*
X103700000Y-81600000D01*
X101050000Y-81250000D02*
X101050000Y-80000000D01*
X101400000Y-81600000D02*
X101050000Y-81250000D01*
X99500000Y-76800000D02*
X100100000Y-76200000D01*
X104400000Y-77920000D02*
X104400000Y-77100000D01*
X103900000Y-76200000D02*
X103700000Y-76200000D01*
X104400000Y-76700000D02*
X103900000Y-76200000D01*
X99500000Y-76800000D02*
X99500000Y-77200000D01*
X100000000Y-81600000D02*
X100300000Y-81600000D01*
X99500000Y-81100000D02*
X100000000Y-81600000D01*
X104400000Y-77100000D02*
X104400000Y-76700000D01*
X103700000Y-76200000D02*
X102500000Y-76200000D01*
X102500000Y-76200000D02*
X101300000Y-76200000D01*
X101300000Y-76200000D02*
X100100000Y-76200000D01*
X100100000Y-76200000D02*
X100100000Y-76200000D01*
X99500000Y-77200000D02*
X99500000Y-78400000D01*
X99500000Y-78400000D02*
X99500000Y-79600000D01*
X99500000Y-79600000D02*
X99500000Y-80800000D01*
X99500000Y-80800000D02*
X99500000Y-81100000D01*
X100300000Y-81600000D02*
X101400000Y-81600000D01*
X101500000Y-81600000D02*
X101400000Y-81600000D01*
X102700000Y-81600000D02*
X101500000Y-81600000D01*
X103700000Y-81600000D02*
X102700000Y-81600000D01*
X102750000Y-76450000D02*
X102500000Y-76200000D01*
X102750000Y-77800000D02*
X102750000Y-76450000D01*
D36*
X108325000Y-82250000D02*
X107150000Y-82250000D01*
X106420000Y-81520000D02*
X106300000Y-81520000D01*
X107150000Y-82250000D02*
X106420000Y-81520000D01*
X110750000Y-73270000D02*
X110480000Y-73000000D01*
X110750000Y-74825000D02*
X110750000Y-73270000D01*
X110020000Y-87961708D02*
X110020000Y-88000000D01*
X110750000Y-87231708D02*
X110020000Y-87961708D01*
X110750000Y-86175000D02*
X110750000Y-87231708D01*
D35*
X104045000Y-65635000D02*
X104200000Y-65480000D01*
X102275000Y-65635000D02*
X104045000Y-65635000D01*
X121000000Y-66250000D02*
X120875000Y-66375000D01*
X121000000Y-65485000D02*
X121000000Y-66250000D01*
X118000000Y-66275000D02*
X117900000Y-66375000D01*
X118000000Y-65485000D02*
X118000000Y-66275000D01*
X114995000Y-65480000D02*
X115000000Y-65485000D01*
X114475000Y-66350000D02*
X114475000Y-65525000D01*
X114475000Y-65525000D02*
X114520000Y-65480000D01*
X114520000Y-65480000D02*
X114995000Y-65480000D01*
X114000000Y-65480000D02*
X114520000Y-65480000D01*
X112000000Y-65485000D02*
X112000000Y-66375000D01*
X108500000Y-65650000D02*
X108665000Y-65485000D01*
X108500000Y-66350000D02*
X108500000Y-65650000D01*
X108665000Y-65485000D02*
X109000000Y-65485000D01*
X108000000Y-65485000D02*
X108665000Y-65485000D01*
X104225000Y-65505000D02*
X104200000Y-65480000D01*
X94545000Y-67815000D02*
X94550000Y-67820000D01*
X93985000Y-67190000D02*
X94225000Y-66950000D01*
X93985000Y-67815000D02*
X93985000Y-67190000D01*
X93450000Y-67815000D02*
X93985000Y-67815000D01*
X93985000Y-67815000D02*
X94545000Y-67815000D01*
X94040000Y-66950000D02*
X93450000Y-66360000D01*
X94225000Y-66950000D02*
X94040000Y-66950000D01*
X104200000Y-66325000D02*
X104225000Y-66350000D01*
X104200000Y-65480000D02*
X104200000Y-66325000D01*
X110550000Y-72930000D02*
X110480000Y-73000000D01*
X110550000Y-72100000D02*
X110550000Y-72930000D01*
X105980000Y-81200000D02*
X106300000Y-81520000D01*
X105400000Y-81200000D02*
X105980000Y-81200000D01*
X109900000Y-88120000D02*
X110020000Y-88000000D01*
X109900000Y-88900000D02*
X109900000Y-88120000D01*
X119880000Y-86700000D02*
X120775000Y-86700000D01*
X119575000Y-88100000D02*
X120625000Y-88100000D01*
X122090000Y-83500000D02*
X121225000Y-83500000D01*
X126900000Y-88490000D02*
X126900000Y-87625000D01*
X104960000Y-90285000D02*
X104950000Y-90275000D01*
X104960000Y-91140000D02*
X104960000Y-90285000D01*
X102760000Y-90610000D02*
X102425000Y-90275000D01*
X102760000Y-91140000D02*
X102760000Y-90610000D01*
X102395000Y-90245000D02*
X102425000Y-90275000D01*
X101360000Y-90245000D02*
X102395000Y-90245000D01*
X110460000Y-95440000D02*
X110450000Y-95450000D01*
X110460000Y-93970000D02*
X110460000Y-95440000D01*
X101660000Y-110445000D02*
X101285000Y-110820000D01*
D34*
X101660000Y-103470000D02*
X101660000Y-110445000D01*
D35*
X104650000Y-107700000D02*
X104675000Y-107675000D01*
X103985000Y-107700000D02*
X104650000Y-107700000D01*
D34*
X103860000Y-103470000D02*
X103860000Y-104885000D01*
X103860000Y-108135000D02*
X103860000Y-110445000D01*
D35*
X107975000Y-108115000D02*
X107960000Y-108130000D01*
X107975000Y-107210000D02*
X107975000Y-108115000D01*
X103860000Y-102190000D02*
X103875000Y-102175000D01*
D34*
X103860000Y-103470000D02*
X103860000Y-102190000D01*
D35*
X101660000Y-102185000D02*
X101650000Y-102175000D01*
D34*
X101660000Y-103470000D02*
X101660000Y-102185000D01*
D37*
X104235000Y-110820000D02*
X101285000Y-110820000D01*
X101285000Y-110820000D02*
X101285000Y-110835000D01*
X101285000Y-110835000D02*
X101850000Y-111400000D01*
X103655000Y-111400000D02*
X104235000Y-110820000D01*
X101850000Y-111400000D02*
X103655000Y-111400000D01*
D35*
X94030000Y-78450000D02*
X95375000Y-78450000D01*
X94450000Y-63640000D02*
X94450000Y-62750000D01*
X96365000Y-61550000D02*
X95475000Y-61550000D01*
X107125000Y-59575000D02*
X105800000Y-59575000D01*
X105825000Y-52450000D02*
X105800000Y-52475000D01*
X107125000Y-52450000D02*
X105825000Y-52450000D01*
X120875000Y-52450000D02*
X122200000Y-52450000D01*
X123400000Y-57285000D02*
X123400000Y-58175000D01*
X125100000Y-57875000D02*
X125100000Y-58925000D01*
X122200000Y-59575000D02*
X120875000Y-59575000D01*
D37*
X111700000Y-56800000D02*
X111700000Y-59500000D01*
D35*
X129465000Y-64600000D02*
X128575000Y-64600000D01*
X129465000Y-66850000D02*
X128575000Y-66850000D01*
X136675000Y-66940000D02*
X136675000Y-66050000D01*
X136580000Y-66845000D02*
X136675000Y-66940000D01*
X134320000Y-66845000D02*
X136580000Y-66845000D01*
X134135000Y-70835000D02*
X134150000Y-70850000D01*
X134135000Y-69925000D02*
X134135000Y-70835000D01*
X120360000Y-74520000D02*
X120950000Y-73930000D01*
X120200000Y-74520000D02*
X120360000Y-74520000D01*
X121700000Y-74680000D02*
X120950000Y-73930000D01*
X121700000Y-74825000D02*
X121700000Y-74680000D01*
X127920000Y-83000000D02*
X127050000Y-83000000D01*
X131850000Y-83985000D02*
X131850000Y-84875000D01*
D36*
X119440000Y-109140000D02*
X119180000Y-109400000D01*
X119440000Y-107710000D02*
X119440000Y-109140000D01*
X116945000Y-94525000D02*
X117100000Y-94680000D01*
X115700000Y-94525000D02*
X116945000Y-94525000D01*
D35*
X117100000Y-95100000D02*
X116700000Y-95500000D01*
X117100000Y-94680000D02*
X117100000Y-95100000D01*
X114100000Y-95575000D02*
X113675000Y-96000000D01*
X114100000Y-95200000D02*
X114100000Y-95600000D01*
X113820000Y-96000000D02*
X114420000Y-96600000D01*
X113675000Y-96000000D02*
X113820000Y-96000000D01*
X121480000Y-102100000D02*
X122350000Y-102100000D01*
X123300000Y-105250000D02*
X122650000Y-104600000D01*
X123300000Y-105320000D02*
X123300000Y-105250000D01*
X119180000Y-109980000D02*
X119500000Y-110300000D01*
X119180000Y-109400000D02*
X119180000Y-109980000D01*
X119580000Y-110380000D02*
X119500000Y-110300000D01*
X120400000Y-110380000D02*
X119580000Y-110380000D01*
X123500000Y-109275000D02*
X123500000Y-110300000D01*
X107800000Y-74520000D02*
X107800000Y-74200000D01*
X106825000Y-73225000D02*
X106300000Y-73225000D01*
X107800000Y-74200000D02*
X106825000Y-73225000D01*
X133275000Y-101325000D02*
X133250000Y-101350000D01*
X133275000Y-100300000D02*
X133275000Y-101325000D01*
X134800000Y-101010000D02*
X134800000Y-101875000D01*
D37*
X129300000Y-93900000D02*
X132125000Y-93900000D01*
X132125000Y-93225000D02*
X132500000Y-92850000D01*
X132125000Y-93900000D02*
X132125000Y-93225000D01*
X133700000Y-99875000D02*
X133275000Y-100300000D01*
X133700000Y-97200000D02*
X133700000Y-99875000D01*
D38*
X134600000Y-78700000D02*
X135825000Y-78700000D01*
X134600000Y-78700000D02*
X133125000Y-78700000D01*
D39*
X130200000Y-80325000D02*
X129625000Y-80325000D01*
X129625000Y-80325000D02*
X129100000Y-79800000D01*
X129100000Y-79800000D02*
X129100000Y-78200000D01*
D35*
X124600000Y-95090000D02*
X124600000Y-94200000D01*
X121785000Y-88100000D02*
X122050000Y-87835000D01*
X120625000Y-88100000D02*
X121785000Y-88100000D01*
D36*
X122560000Y-104510000D02*
X122650000Y-104600000D01*
X121640000Y-104510000D02*
X122560000Y-104510000D01*
D35*
%TO.N,+5V*%
X104045000Y-64365000D02*
X104200000Y-64520000D01*
X102275000Y-64365000D02*
X104045000Y-64365000D01*
D37*
X133687500Y-95777500D02*
X133700000Y-95790000D01*
X133687500Y-91700000D02*
X133687500Y-95777500D01*
X134650000Y-95790000D02*
X133700000Y-95790000D01*
D35*
X104200000Y-62800000D02*
X102900000Y-61500000D01*
X104200000Y-64520000D02*
X104200000Y-62800000D01*
X102900000Y-59500000D02*
X102900000Y-55900000D01*
X102900000Y-55900000D02*
X104300000Y-54500000D01*
X104300000Y-54500000D02*
X127400000Y-54500000D01*
X133687500Y-83987500D02*
X133000000Y-83300000D01*
X133687500Y-91700000D02*
X133687500Y-83987500D01*
X131500000Y-78800000D02*
X131500000Y-76200000D01*
X137900000Y-69800000D02*
X137900000Y-69000000D01*
X131500000Y-76200000D02*
X137900000Y-69800000D01*
X136700000Y-64500000D02*
X136700000Y-60900000D01*
X136700000Y-60900000D02*
X134000000Y-58200000D01*
X129700000Y-58200000D02*
X129600000Y-58100000D01*
X134000000Y-58200000D02*
X129700000Y-58200000D01*
X128300000Y-55400000D02*
X127400000Y-54500000D01*
X128300000Y-56400000D02*
X128300000Y-55400000D01*
D37*
%TO.N,Net-(C101-Pad2)*%
X132130000Y-98410000D02*
X131300000Y-97580000D01*
X132750000Y-98410000D02*
X132130000Y-98410000D01*
%TO.N,Net-(C101-Pad1)*%
X131300000Y-96620000D02*
X131300000Y-96300000D01*
X131810000Y-95790000D02*
X132737490Y-95790000D01*
X131300000Y-96300000D02*
X131810000Y-95790000D01*
X128520000Y-96620000D02*
X128300000Y-96400000D01*
X131300000Y-96620000D02*
X128520000Y-96620000D01*
X127050000Y-93900000D02*
X127050000Y-96400000D01*
D36*
%TO.N,+3V3*%
X106570000Y-82750000D02*
X106300000Y-82480000D01*
X108325000Y-82750000D02*
X106570000Y-82750000D01*
X109520000Y-74095000D02*
X109520000Y-73000000D01*
X110250000Y-74825000D02*
X109520000Y-74095000D01*
X107800000Y-76225000D02*
X108325000Y-76750000D01*
X107800000Y-75480000D02*
X107800000Y-76225000D01*
X120200000Y-76225000D02*
X119675000Y-76750000D01*
X120200000Y-75480000D02*
X120200000Y-76225000D01*
X118275000Y-86700000D02*
X117750000Y-86175000D01*
X118920000Y-86700000D02*
X118275000Y-86700000D01*
X111250000Y-87730000D02*
X110980000Y-88000000D01*
X111250000Y-86175000D02*
X111250000Y-87730000D01*
D35*
X97325000Y-63095000D02*
X97325000Y-61550000D01*
X123000000Y-66275000D02*
X123100000Y-66375000D01*
X123000000Y-65635000D02*
X123000000Y-66400000D01*
X119000000Y-66275000D02*
X119100000Y-66375000D01*
X119000000Y-65510000D02*
X119000000Y-66275000D01*
X116000000Y-65510000D02*
X116000000Y-66375000D01*
X110000000Y-65510000D02*
X110000000Y-66375000D01*
X109325000Y-72805000D02*
X109520000Y-73000000D01*
X109325000Y-72100000D02*
X109325000Y-72805000D01*
X107795000Y-75475000D02*
X107800000Y-75480000D01*
X104960000Y-93970000D02*
X104960000Y-92100000D01*
X102760000Y-93970000D02*
X102760000Y-92100000D01*
X101665000Y-92100000D02*
X101360000Y-91795000D01*
X102760000Y-92100000D02*
X101665000Y-92100000D01*
X102760000Y-92100000D02*
X104960000Y-92100000D01*
X136470000Y-68115000D02*
X136675000Y-67910000D01*
X134320000Y-68115000D02*
X136470000Y-68115000D01*
D36*
X118936695Y-107763305D02*
X118936695Y-108363305D01*
X118940000Y-107760000D02*
X118936695Y-107763305D01*
X118940000Y-107710000D02*
X118940000Y-107760000D01*
X118220000Y-109080000D02*
X118220000Y-109400000D01*
X118936695Y-108363305D02*
X118220000Y-109080000D01*
X116945000Y-93875000D02*
X117100000Y-93720000D01*
X115700000Y-93875000D02*
X116945000Y-93875000D01*
X115700000Y-96280000D02*
X115380000Y-96600000D01*
X115700000Y-95175000D02*
X115700000Y-96280000D01*
D35*
X107005000Y-75480000D02*
X106300000Y-74775000D01*
X107800000Y-75480000D02*
X107005000Y-75480000D01*
X123300000Y-107525000D02*
X123500000Y-107725000D01*
X122207468Y-107110010D02*
X121640000Y-107110010D01*
X122217478Y-107100000D02*
X122207468Y-107110010D01*
X123300000Y-106280000D02*
X123300000Y-107100000D01*
X123300000Y-107100000D02*
X122217478Y-107100000D01*
X123300000Y-107100000D02*
X123300000Y-107525000D01*
D36*
X136000000Y-101010000D02*
X136000000Y-102800000D01*
X136000000Y-102800000D02*
X135300000Y-103500000D01*
X135300000Y-103500000D02*
X132600000Y-103500000D01*
X131725000Y-102625000D02*
X131725000Y-100300000D01*
X132600000Y-103500000D02*
X131725000Y-102625000D01*
D37*
X130825000Y-99400000D02*
X131725000Y-100300000D01*
X128300000Y-99400000D02*
X130825000Y-99400000D01*
D36*
X115700000Y-95175000D02*
X115075000Y-95175000D01*
X115075000Y-95175000D02*
X114900000Y-95000000D01*
X114900000Y-95000000D02*
X114900000Y-94000000D01*
X115025000Y-93875000D02*
X115700000Y-93875000D01*
X114900000Y-94000000D02*
X115025000Y-93875000D01*
D35*
X128300000Y-99400000D02*
X128300000Y-105900000D01*
X126475000Y-107725000D02*
X123500000Y-107725000D01*
X128300000Y-105900000D02*
X126475000Y-107725000D01*
X128300000Y-105900000D02*
X128300000Y-110000000D01*
X128300000Y-110000000D02*
X126100000Y-112200000D01*
X126100000Y-112200000D02*
X116500000Y-112200000D01*
X113900000Y-112200000D02*
X112000000Y-110300000D01*
X112000000Y-99400000D02*
X113400000Y-98000000D01*
X113400000Y-98000000D02*
X114800000Y-98000000D01*
X115380000Y-97420000D02*
X115380000Y-96600000D01*
X114800000Y-98000000D02*
X115380000Y-97420000D01*
X112000000Y-110300000D02*
X112000000Y-99400000D01*
X112000000Y-99400000D02*
X107400000Y-99400000D01*
X104960000Y-96960000D02*
X104960000Y-93970000D01*
X107400000Y-99400000D02*
X104960000Y-96960000D01*
X104960000Y-96960000D02*
X103460000Y-96960000D01*
X102760000Y-96260000D02*
X102760000Y-93970000D01*
X103460000Y-96960000D02*
X102760000Y-96260000D01*
X99460000Y-96960000D02*
X97500000Y-95000000D01*
X96350000Y-82950000D02*
X94030000Y-82950000D01*
X97500000Y-84100000D02*
X96350000Y-82950000D01*
X103460000Y-96960000D02*
X99460000Y-96960000D01*
X97500000Y-84100000D02*
X97500000Y-76100000D01*
X96137500Y-74737500D02*
X96137500Y-70250000D01*
X97500000Y-76100000D02*
X96137500Y-74737500D01*
X97500000Y-95000000D02*
X97500000Y-89700000D01*
X110980000Y-88000000D02*
X110980000Y-89620000D01*
X110980000Y-89620000D02*
X110600000Y-90000000D01*
X110600000Y-90000000D02*
X110600000Y-91700000D01*
X110600000Y-91700000D02*
X111000000Y-92100000D01*
D36*
X111000000Y-92100000D02*
X111400000Y-92500000D01*
X111400000Y-92500000D02*
X111500000Y-92600000D01*
X111500000Y-92600000D02*
X111500000Y-94100000D01*
X111500000Y-94100000D02*
X112000000Y-94600000D01*
X112000000Y-94600000D02*
X112000000Y-95100000D01*
D35*
X112000000Y-95100000D02*
X112000000Y-99400000D01*
X124612500Y-99400000D02*
X124600000Y-99387500D01*
X128300000Y-99400000D02*
X124612500Y-99400000D01*
X126610000Y-101090000D02*
X128300000Y-99400000D01*
X119200000Y-101090000D02*
X126610000Y-101090000D01*
X116000000Y-108700000D02*
X116000000Y-104810000D01*
X116700000Y-109400000D02*
X116000000Y-108700000D01*
X97325000Y-56175000D02*
X104900000Y-48600000D01*
X104900000Y-48600000D02*
X126900000Y-48600000D01*
X126900000Y-48600000D02*
X129300000Y-51000000D01*
X129300000Y-51000000D02*
X129300000Y-57000000D01*
X128412500Y-57887500D02*
X127100000Y-57887500D01*
X129300000Y-57000000D02*
X128412500Y-57887500D01*
X136675000Y-67910000D02*
X137590000Y-67910000D01*
X137590000Y-67910000D02*
X138000000Y-67500000D01*
X138000000Y-67500000D02*
X138000000Y-60000000D01*
X135000000Y-57000000D02*
X129300000Y-57000000D01*
X138000000Y-60000000D02*
X135000000Y-57000000D01*
D36*
X111250000Y-86175000D02*
X111250000Y-85050000D01*
X111250000Y-85050000D02*
X111700000Y-84600000D01*
X111700000Y-84600000D02*
X112000000Y-84600000D01*
D35*
X112000000Y-84600000D02*
X114900000Y-84600000D01*
D36*
X117750000Y-86175000D02*
X117750000Y-85250000D01*
X117200000Y-84700000D02*
X116700000Y-84700000D01*
X117750000Y-85250000D02*
X117200000Y-84700000D01*
D35*
X106300000Y-74775000D02*
X105875000Y-74775000D01*
X105875000Y-74775000D02*
X102900000Y-71800000D01*
X102900000Y-71800000D02*
X101000000Y-71800000D01*
X101000000Y-71800000D02*
X99100000Y-69900000D01*
X98495000Y-63095000D02*
X97325000Y-63095000D01*
X99100000Y-63700000D02*
X98495000Y-63095000D01*
X96137500Y-70250000D02*
X96137500Y-68962500D01*
X96500000Y-68600000D02*
X97100000Y-68600000D01*
X96137500Y-68962500D02*
X96500000Y-68600000D01*
X99100000Y-68700000D02*
X99100000Y-63700000D01*
X99100000Y-69900000D02*
X99100000Y-68700000D01*
X116500000Y-112200000D02*
X113900000Y-112200000D01*
X116900000Y-109600000D02*
X117100000Y-109400000D01*
X117100000Y-109400000D02*
X116700000Y-109400000D01*
X116900000Y-110400000D02*
X116900000Y-109600000D01*
X118220000Y-109400000D02*
X117100000Y-109400000D01*
X107300000Y-71800000D02*
X107400000Y-71900000D01*
X102900000Y-71800000D02*
X107300000Y-71800000D01*
X114900000Y-80500000D02*
X115100000Y-80300000D01*
X114900000Y-84600000D02*
X114900000Y-80500000D01*
X117200000Y-78200000D02*
X117800000Y-77600000D01*
D36*
X118650000Y-76750000D02*
X119675000Y-76750000D01*
X117800000Y-77600000D02*
X118650000Y-76750000D01*
D35*
X104120000Y-82480000D02*
X102800000Y-83800000D01*
X106300000Y-82480000D02*
X104120000Y-82480000D01*
X97500000Y-85000000D02*
X97500000Y-84100000D01*
X98700000Y-83800000D02*
X97500000Y-85000000D01*
X102800000Y-83800000D02*
X98700000Y-83800000D01*
X97500000Y-89700000D02*
X97500000Y-85000000D01*
X106000000Y-65510000D02*
X105210000Y-65510000D01*
X105210000Y-65510000D02*
X105100000Y-65400000D01*
X105100000Y-65400000D02*
X105100000Y-63600000D01*
X105100000Y-63600000D02*
X105600000Y-63100000D01*
X106500000Y-63100000D02*
X107000000Y-63600000D01*
X105600000Y-63100000D02*
X106500000Y-63100000D01*
X105100000Y-63600000D02*
X105100000Y-61900000D01*
X103675000Y-60475000D02*
X97325000Y-60475000D01*
X97325000Y-60475000D02*
X97325000Y-56175000D01*
X105100000Y-61900000D02*
X103675000Y-60475000D01*
X97325000Y-61550000D02*
X97325000Y-60475000D01*
X127100000Y-57887500D02*
X127100000Y-62600000D01*
X124190000Y-65510000D02*
X123000000Y-65510000D01*
X127100000Y-62600000D02*
X124190000Y-65510000D01*
D36*
%TO.N,/Microcontroller/MCU_VCAP1*%
X117250000Y-87325000D02*
X118025000Y-88100000D01*
X117250000Y-86175000D02*
X117250000Y-87325000D01*
%TO.N,/Microcontroller/MCU_VCAP2*%
X120825000Y-77250000D02*
X121700000Y-76375000D01*
X119675000Y-77250000D02*
X120825000Y-77250000D01*
%TO.N,/Microcontroller/MCU_HSE_IN*%
X104530000Y-78750000D02*
X104400000Y-78880000D01*
X108325000Y-78750000D02*
X104530000Y-78750000D01*
X101050000Y-78024035D02*
X101050000Y-77800000D01*
X101905965Y-78880000D02*
X101050000Y-78024035D01*
X104400000Y-78880000D02*
X101905965Y-78880000D01*
%TO.N,/Microcontroller/MCU_HSE_OUT_R*%
X105490000Y-80000000D02*
X102750000Y-80000000D01*
D37*
%TO.N,VBUS*%
X129400000Y-88000000D02*
X129400000Y-84700000D01*
X131085000Y-83015000D02*
X131850000Y-83015000D01*
X129400000Y-84700000D02*
X131085000Y-83015000D01*
X131835000Y-83000000D02*
X131850000Y-83015000D01*
X128880000Y-83000000D02*
X131835000Y-83000000D01*
D38*
X134600000Y-81300000D02*
X133500000Y-81300000D01*
D35*
X131850000Y-82950000D02*
X131850000Y-83015000D01*
D38*
X133500000Y-81300000D02*
X131850000Y-82950000D01*
D39*
X128000000Y-80325000D02*
X128725000Y-80325000D01*
X128725000Y-80325000D02*
X129100000Y-80700000D01*
X129100000Y-82780000D02*
X128880000Y-83000000D01*
X129100000Y-80700000D02*
X129100000Y-82780000D01*
D36*
%TO.N,Net-(C303-Pad1)*%
X107015000Y-106140000D02*
X106985000Y-106110000D01*
D35*
X106985000Y-107180000D02*
X107015000Y-107210000D01*
X106985000Y-106110000D02*
X106985000Y-107180000D01*
X105955000Y-106110000D02*
X106985000Y-106110000D01*
D36*
%TO.N,/Sensors/IMU_REGOUT*%
X119943305Y-107763305D02*
X119943305Y-108343305D01*
X119940000Y-107760000D02*
X119943305Y-107763305D01*
X119940000Y-107710000D02*
X119940000Y-107760000D01*
X120400000Y-108800000D02*
X120400000Y-109420000D01*
X119943305Y-108343305D02*
X120400000Y-108800000D01*
%TO.N,/Sensors/IMU_CPOUT*%
X120440000Y-102180000D02*
X120520000Y-102100000D01*
X120440000Y-103810000D02*
X120440000Y-102180000D01*
D35*
%TO.N,/Miscellaneous/3V3_CAN*%
X94530000Y-68800000D02*
X94550000Y-68780000D01*
X91100000Y-68800000D02*
X94530000Y-68800000D01*
X94550000Y-70237500D02*
X94562500Y-70250000D01*
X94550000Y-68780000D02*
X94550000Y-70237500D01*
D37*
%TO.N,Net-(D100-Pad1)*%
X132112500Y-91700000D02*
X130100000Y-91700000D01*
X130350000Y-91450000D02*
X130100000Y-91700000D01*
X130350000Y-90000000D02*
X130350000Y-91450000D01*
D35*
%TO.N,Net-(D100-Pad2)*%
X127390000Y-90000000D02*
X126900000Y-89510000D01*
X128450000Y-90000000D02*
X127390000Y-90000000D01*
X128450000Y-91450000D02*
X128700000Y-91700000D01*
X128450000Y-90000000D02*
X128450000Y-91450000D01*
%TO.N,Net-(D102-Pad1)*%
X124600000Y-97812500D02*
X124600000Y-96110000D01*
D36*
%TO.N,/Microcontroller/MCU_LED_A*%
X120425000Y-85000000D02*
X119675000Y-84250000D01*
X121812500Y-85000000D02*
X120425000Y-85000000D01*
D35*
%TO.N,/Microcontroller/MCU_LED_K*%
X123387500Y-83777500D02*
X123110000Y-83500000D01*
X123387500Y-85000000D02*
X123387500Y-83777500D01*
D36*
%TO.N,/Microcontroller/CONN_SWO*%
X133050000Y-65575000D02*
X132165000Y-65575000D01*
X131190000Y-64600000D02*
X130435000Y-64600000D01*
X132165000Y-65575000D02*
X131190000Y-64600000D01*
X130435000Y-63550000D02*
X130460000Y-63525000D01*
X130435000Y-64600000D02*
X130435000Y-63550000D01*
%TO.N,/Microcontroller/CONN_SWCLK*%
X130440000Y-66845000D02*
X130435000Y-66850000D01*
X133050000Y-66845000D02*
X130440000Y-66845000D01*
X130460000Y-66825000D02*
X130435000Y-66850000D01*
X130460000Y-65775000D02*
X130460000Y-66825000D01*
%TO.N,/Microcontroller/CONN_SWDIO*%
X133050000Y-69810000D02*
X133165000Y-69925000D01*
X133050000Y-68115000D02*
X133050000Y-69810000D01*
X133165000Y-69925000D02*
X131910000Y-69925000D01*
D39*
%TO.N,Net-(D300-Pad1)*%
X102790000Y-106110000D02*
X102760000Y-106140000D01*
D40*
X102760000Y-106140000D02*
X102760000Y-109320000D01*
D39*
X104985000Y-106110000D02*
X102790000Y-106110000D01*
D40*
X102760000Y-103470000D02*
X102760000Y-106140000D01*
D36*
%TO.N,/Miscellaneous/SD_DAT2*%
X117200000Y-58150000D02*
X117200000Y-59200000D01*
X121000000Y-63000000D02*
X121000000Y-64515000D01*
X117200000Y-59200000D02*
X121000000Y-63000000D01*
X121025000Y-64490000D02*
X121000000Y-64515000D01*
X123000000Y-64490000D02*
X121025000Y-64490000D01*
%TO.N,/Miscellaneous/SD_DAT3*%
X118000000Y-63500000D02*
X118000000Y-64515000D01*
X116100000Y-58150000D02*
X116100000Y-60350000D01*
X118000000Y-62250000D02*
X118000000Y-63500000D01*
X116100000Y-60350000D02*
X118000000Y-62250000D01*
X119975000Y-64515000D02*
X120000000Y-64490000D01*
X118000000Y-64515000D02*
X119975000Y-64515000D01*
%TO.N,/Miscellaneous/SD_CMD*%
X115000000Y-58150000D02*
X115000000Y-64515000D01*
X116975000Y-64515000D02*
X117000000Y-64490000D01*
X115000000Y-64515000D02*
X116975000Y-64515000D01*
%TO.N,/Miscellaneous/SD_CLK*%
X112800000Y-58150000D02*
X112800000Y-61200000D01*
X112000000Y-62000000D02*
X112000000Y-64515000D01*
X112800000Y-61200000D02*
X112000000Y-62000000D01*
X112975000Y-64515000D02*
X113000000Y-64490000D01*
X112000000Y-64515000D02*
X112975000Y-64515000D01*
%TO.N,/Miscellaneous/SD_DAT0*%
X110600000Y-58150000D02*
X110600000Y-62150000D01*
X109000000Y-63750000D02*
X109000000Y-64515000D01*
X110600000Y-62150000D02*
X109000000Y-63750000D01*
X110975000Y-64515000D02*
X111000000Y-64490000D01*
X109000000Y-64515000D02*
X110975000Y-64515000D01*
X109025000Y-64515000D02*
X109000000Y-64490000D01*
%TO.N,/Miscellaneous/SD_DAT1*%
X109500000Y-58150000D02*
X109500000Y-60500000D01*
X108000000Y-62000000D02*
X108000000Y-64515000D01*
X109500000Y-60500000D02*
X108000000Y-62000000D01*
X106025000Y-64515000D02*
X106000000Y-64490000D01*
X108000000Y-64515000D02*
X106025000Y-64515000D01*
D41*
%TO.N,/Miscellaneous/CAN-*%
X93449008Y-64775000D02*
X95225000Y-64775000D01*
X95777844Y-64767844D02*
X95500000Y-64490000D01*
X96922156Y-64767844D02*
X95777844Y-64767844D01*
X97325000Y-64365000D02*
X96922156Y-64767844D01*
X95500000Y-64490000D02*
X95222156Y-64767844D01*
X91100000Y-63720000D02*
X92137844Y-64757844D01*
X92149008Y-64775000D02*
X93925000Y-64775000D01*
%TO.N,/Miscellaneous/CAN+*%
X93424008Y-65225000D02*
X95200000Y-65225000D01*
X95777844Y-65232156D02*
X95500000Y-65510000D01*
X96922156Y-65232156D02*
X95777844Y-65232156D01*
X97325000Y-65635000D02*
X96922156Y-65232156D01*
X95500000Y-65510000D02*
X95222156Y-65232156D01*
X91100000Y-66260000D02*
X92137844Y-65222156D01*
X92137844Y-65222156D02*
X94106164Y-65222156D01*
D37*
%TO.N,Net-(J201-Pad6)*%
X135775000Y-83600000D02*
X134600000Y-82425000D01*
X137225000Y-83600000D02*
X135775000Y-83600000D01*
X137275000Y-83550000D02*
X137225000Y-83600000D01*
X137275000Y-80800000D02*
X137275000Y-83550000D01*
X137275000Y-80800000D02*
X137275000Y-79025000D01*
X137275000Y-76450000D02*
X137225000Y-76400000D01*
X137275000Y-79025000D02*
X137275000Y-76450000D01*
X135775000Y-76400000D02*
X134600000Y-77575000D01*
X137225000Y-76400000D02*
X135775000Y-76400000D01*
D41*
%TO.N,CONN_USB_D-*%
X130995001Y-81275000D02*
X130200000Y-81275000D01*
X133569655Y-80557156D02*
X131712845Y-80557156D01*
X133662499Y-80650000D02*
X133569655Y-80557156D01*
X134600000Y-80650000D02*
X133662499Y-80650000D01*
X131712845Y-80557156D02*
X130995001Y-81275000D01*
%TO.N,CONN_USB_D+*%
X130995001Y-79375000D02*
X130200000Y-79375000D01*
X131712845Y-80092844D02*
X130995001Y-79375000D01*
X133569655Y-80092844D02*
X131712845Y-80092844D01*
X133662499Y-80000000D02*
X133569655Y-80092844D01*
X134600000Y-80000000D02*
X133662499Y-80000000D01*
D36*
%TO.N,Net-(R101-Pad2)*%
X134800000Y-98560000D02*
X134650000Y-98410000D01*
X134800000Y-99990000D02*
X134800000Y-98560000D01*
X134800000Y-99990000D02*
X136000000Y-99990000D01*
%TO.N,/Microcontroller/SW_BOOT0*%
X95760000Y-81450000D02*
X95800000Y-81410000D01*
X94030000Y-81450000D02*
X95760000Y-81450000D01*
%TO.N,/Microcontroller/MCU_BOOT0*%
X112250000Y-76244904D02*
X110894904Y-77600000D01*
X112250000Y-74825000D02*
X112250000Y-76244904D01*
X91310000Y-80390000D02*
X95800000Y-80390000D01*
X90100000Y-81600000D02*
X91310000Y-80390000D01*
X90100000Y-86600000D02*
X90100000Y-81600000D01*
X91100000Y-87600000D02*
X90100000Y-86600000D01*
X96400000Y-87600000D02*
X91100000Y-87600000D01*
X109800000Y-84500000D02*
X110400000Y-84500000D01*
X110894904Y-84005096D02*
X110894904Y-77600000D01*
X110400000Y-84500000D02*
X110894904Y-84005096D01*
X99600000Y-87600000D02*
X101000000Y-86200000D01*
X103400000Y-86200000D02*
X104000000Y-85600000D01*
X101000000Y-86200000D02*
X103400000Y-86200000D01*
%TO.N,/Microcontroller/MCU_HSE_OUT*%
X107260000Y-79250000D02*
X106510000Y-80000000D01*
X108325000Y-79250000D02*
X107260000Y-79250000D01*
%TO.N,/Microcontroller/MCU_BOOT1*%
X115746695Y-86046695D02*
X115746695Y-84453305D01*
X115750000Y-86050000D02*
X115746695Y-86046695D01*
X115750000Y-86175000D02*
X115750000Y-86050000D01*
X115746695Y-84453305D02*
X116500000Y-83700000D01*
X116500000Y-83700000D02*
X117700000Y-83700000D01*
X117700000Y-83700000D02*
X118200000Y-84200000D01*
X118200000Y-84200000D02*
X118200000Y-84700000D01*
X118200000Y-84700000D02*
X119200000Y-85700000D01*
X120935000Y-85700000D02*
X122050000Y-86815000D01*
X119200000Y-85700000D02*
X120935000Y-85700000D01*
%TO.N,MCU_I2C2_SCL*%
X118940000Y-102370000D02*
X119200000Y-102110000D01*
X118940000Y-103810000D02*
X118940000Y-102370000D01*
X117850000Y-101675000D02*
X118285000Y-102110000D01*
X118285000Y-102110000D02*
X119200000Y-102110000D01*
X117850000Y-100550000D02*
X117850000Y-101675000D01*
X118800000Y-90800000D02*
X119700000Y-91700000D01*
X119700000Y-91700000D02*
X119700000Y-98700000D01*
X117900000Y-90800000D02*
X118800000Y-90800000D01*
X116246695Y-89146695D02*
X117900000Y-90800000D01*
X116246695Y-86253305D02*
X116246695Y-89146695D01*
X119700000Y-98700000D02*
X117850000Y-100550000D01*
X116250000Y-86250000D02*
X116246695Y-86253305D01*
X116250000Y-86175000D02*
X116250000Y-86250000D01*
%TO.N,MCU_I2C2_SDA*%
X116020000Y-103810000D02*
X116000000Y-103790000D01*
X118440000Y-103810000D02*
X116020000Y-103810000D01*
X116740075Y-87059925D02*
X116740075Y-88540075D01*
X116750000Y-87050000D02*
X116740075Y-87059925D01*
X116750000Y-86175000D02*
X116750000Y-87050000D01*
X116740075Y-88540075D02*
X117700000Y-89500000D01*
X117700000Y-89500000D02*
X119300000Y-89500000D01*
X119300000Y-89500000D02*
X121200000Y-91400000D01*
X121200000Y-99000000D02*
X120400000Y-99800000D01*
X121200000Y-91400000D02*
X121200000Y-99000000D01*
X116000000Y-101000000D02*
X116000000Y-103790000D01*
X117000000Y-100000000D02*
X116000000Y-101000000D01*
%TO.N,MCU_SWDIO*%
X130575000Y-69925000D02*
X130890000Y-69925000D01*
X122750000Y-77750000D02*
X130575000Y-69925000D01*
X119675000Y-77750000D02*
X122750000Y-77750000D01*
%TO.N,MCU_SWCLK*%
X125925000Y-65775000D02*
X129440000Y-65775000D01*
X124900000Y-66800000D02*
X125925000Y-65775000D01*
X124900000Y-68900000D02*
X124900000Y-66800000D01*
X122800000Y-71000000D02*
X124900000Y-68900000D01*
X120550000Y-71000000D02*
X122800000Y-71000000D01*
X117750000Y-73800000D02*
X120550000Y-71000000D01*
X117750000Y-74825000D02*
X117750000Y-73800000D01*
%TO.N,MCU_SWO*%
X114750000Y-74675000D02*
X114746695Y-74671695D01*
X114750000Y-74825000D02*
X114750000Y-74675000D01*
X127100000Y-64700000D02*
X127100000Y-64100000D01*
X127675000Y-63525000D02*
X129440000Y-63525000D01*
X127100000Y-64100000D02*
X127675000Y-63525000D01*
X127100000Y-69400000D02*
X127100000Y-66900000D01*
X124000000Y-72500000D02*
X127100000Y-69400000D01*
X118800000Y-74100000D02*
X120400000Y-72500000D01*
X114750000Y-74850000D02*
X114746695Y-74853305D01*
X120400000Y-72500000D02*
X124000000Y-72500000D01*
X114750000Y-74825000D02*
X114750000Y-74850000D01*
X114750000Y-74825000D02*
X114750000Y-75850000D01*
X114750000Y-75850000D02*
X115200000Y-76300000D01*
X115200000Y-76300000D02*
X118000000Y-76300000D01*
X118800000Y-75500000D02*
X118800000Y-74100000D01*
X118000000Y-76300000D02*
X118800000Y-75500000D01*
D35*
%TO.N,Net-(R300-Pad2)*%
X107995000Y-106100000D02*
X108005000Y-106110000D01*
X106060000Y-103470000D02*
X106060000Y-104860000D01*
X106060000Y-104860000D02*
X106330000Y-105130000D01*
X106330000Y-105130000D02*
X107690000Y-105130000D01*
X108005000Y-105445000D02*
X108005000Y-106110000D01*
X107690000Y-105130000D02*
X108005000Y-105445000D01*
D36*
%TO.N,MCU_UART4_TX*%
X108325000Y-83250000D02*
X105650000Y-83250000D01*
X105100000Y-83800000D02*
X105100000Y-84490000D01*
X105650000Y-83250000D02*
X105100000Y-83800000D01*
%TO.N,/GPS/GPS_RX*%
X108260000Y-93970000D02*
X108260000Y-90990000D01*
X105100000Y-87830000D02*
X105100000Y-85510000D01*
X108260000Y-90990000D02*
X105100000Y-87830000D01*
%TO.N,MCU_UART4_RX*%
X108325000Y-83750000D02*
X106850000Y-83750000D01*
X106500000Y-84100000D02*
X106500000Y-84490000D01*
X106850000Y-83750000D02*
X106500000Y-84100000D01*
%TO.N,/GPS/GPS_TX*%
X109360000Y-93970000D02*
X109360000Y-90120000D01*
X106500000Y-87260000D02*
X106500000Y-85510000D01*
X109360000Y-90120000D02*
X106500000Y-87260000D01*
%TO.N,MCU_SDIO_D2*%
X122000000Y-67700000D02*
X122000000Y-65510000D01*
X116753305Y-72946695D02*
X122000000Y-67700000D01*
X116753305Y-74546695D02*
X116753305Y-72946695D01*
X116750000Y-74550000D02*
X116753305Y-74546695D01*
X116750000Y-74825000D02*
X116750000Y-74550000D01*
%TO.N,MCU_SDIO_D3*%
X116253305Y-74746695D02*
X116253305Y-71821695D01*
X116250000Y-74750000D02*
X116253305Y-74746695D01*
X116250000Y-74825000D02*
X116250000Y-74750000D01*
X120000000Y-68075000D02*
X120000000Y-65510000D01*
X116253305Y-71821695D02*
X120000000Y-68075000D01*
%TO.N,MCU_SDIO_CMD*%
X115246695Y-74746695D02*
X115246695Y-73746695D01*
X115250000Y-74750000D02*
X115246695Y-74746695D01*
X115250000Y-74825000D02*
X115250000Y-74750000D01*
X115246695Y-73746695D02*
X114300000Y-72800000D01*
X117000000Y-65510000D02*
X117000000Y-67200000D01*
X114300000Y-69900000D02*
X114300000Y-72800000D01*
X117000000Y-67200000D02*
X114300000Y-69900000D01*
%TO.N,MCU_SDIO_CK*%
X115750000Y-74825000D02*
X115750000Y-72850000D01*
X115400000Y-72500000D02*
X115400000Y-70400000D01*
X115750000Y-72850000D02*
X115400000Y-72500000D01*
X113000000Y-67300000D02*
X113000000Y-65510000D01*
X114300000Y-68600000D02*
X113000000Y-67300000D01*
%TO.N,MCU_SDIO_D0*%
X111000000Y-65510000D02*
X111000000Y-66800000D01*
X111000000Y-66800000D02*
X113400000Y-69200000D01*
X113400000Y-73200000D02*
X113500000Y-73300000D01*
X113400000Y-69200000D02*
X113400000Y-73200000D01*
X114200000Y-78000000D02*
X114200000Y-77600000D01*
X117453305Y-81253305D02*
X114200000Y-78000000D01*
X119646695Y-81253305D02*
X117453305Y-81253305D01*
X119650000Y-81250000D02*
X119646695Y-81253305D01*
X119675000Y-81250000D02*
X119650000Y-81250000D01*
%TO.N,MCU_SDIO_D1*%
X114405096Y-76700000D02*
X113000000Y-76700000D01*
X118455096Y-80750000D02*
X114405096Y-76700000D01*
X119675000Y-80750000D02*
X118455096Y-80750000D01*
X107000000Y-66900000D02*
X107000000Y-65510000D01*
X107600000Y-67500000D02*
X107000000Y-66900000D01*
X110200000Y-67500000D02*
X107600000Y-67500000D01*
X112500000Y-69800000D02*
X110200000Y-67500000D01*
X112500000Y-73300000D02*
X112500000Y-69800000D01*
X112400000Y-73400000D02*
X112500000Y-73300000D01*
%TO.N,MCU_CAN1_TX*%
X111253305Y-74796695D02*
X111253305Y-73496695D01*
X111250000Y-74800000D02*
X111253305Y-74796695D01*
X111250000Y-74825000D02*
X111250000Y-74800000D01*
X111253305Y-73496695D02*
X111550000Y-73200000D01*
X111550000Y-73200000D02*
X111550000Y-70625000D01*
X111550000Y-70625000D02*
X109250000Y-68325000D01*
X109250000Y-68325000D02*
X103025000Y-68325000D01*
X102275000Y-67575000D02*
X102275000Y-66905000D01*
X103025000Y-68325000D02*
X102275000Y-67575000D01*
%TO.N,MCU_CAN1_RX*%
X108925000Y-75475000D02*
X108925000Y-74175000D01*
X108925000Y-74175000D02*
X108225000Y-73475000D01*
X108225000Y-73475000D02*
X108225000Y-71400000D01*
X108225000Y-71400000D02*
X106800000Y-69975000D01*
X106800000Y-69975000D02*
X101900000Y-69975000D01*
X101900000Y-69975000D02*
X100250000Y-68325000D01*
X100250000Y-68325000D02*
X100250000Y-63850000D01*
X101005000Y-63095000D02*
X102275000Y-63095000D01*
X100250000Y-63850000D02*
X101005000Y-63095000D01*
X111746695Y-74853305D02*
X111746695Y-75953305D01*
X111750000Y-74850000D02*
X111746695Y-74853305D01*
X111750000Y-74825000D02*
X111750000Y-74850000D01*
X111746695Y-75953305D02*
X111500000Y-76200000D01*
X109650000Y-76200000D02*
X108925000Y-75475000D01*
X111500000Y-76200000D02*
X109650000Y-76200000D01*
D41*
%TO.N,MCU_USB_D+*%
X126487155Y-80092844D02*
X125196164Y-80092844D01*
X127204999Y-79375000D02*
X126487155Y-80092844D01*
X128000000Y-79375000D02*
X127204999Y-79375000D01*
X119692844Y-78267844D02*
X119675000Y-78250000D01*
X123371164Y-78267844D02*
X119692844Y-78267844D01*
X125196164Y-80092844D02*
X123371164Y-78267844D01*
%TO.N,MCU_USB_D-*%
X126487155Y-80557156D02*
X125003836Y-80557156D01*
X127204999Y-81275000D02*
X126487155Y-80557156D01*
X128000000Y-81275000D02*
X127204999Y-81275000D01*
X119692844Y-78732156D02*
X119675000Y-78750000D01*
X123178836Y-78732156D02*
X119692844Y-78732156D01*
X125003836Y-80557156D02*
X123178836Y-78732156D01*
D36*
%TO.N,IMU_INTERRUPT*%
X121000000Y-111300000D02*
X121500000Y-110800000D01*
X115900000Y-111300000D02*
X121000000Y-111300000D01*
X121500000Y-108270000D02*
X120940000Y-107710000D01*
X113400000Y-108800000D02*
X115900000Y-111300000D01*
X121500000Y-110800000D02*
X121500000Y-108270000D01*
X118500000Y-97500000D02*
X117100000Y-98900000D01*
X118500000Y-92500000D02*
X118500000Y-97500000D01*
X115250000Y-89250000D02*
X118500000Y-92500000D01*
X115250000Y-86175000D02*
X115250000Y-89250000D01*
X113400000Y-108800000D02*
X113400000Y-100500000D01*
X115000000Y-98900000D02*
X117100000Y-98900000D01*
X113400000Y-100500000D02*
X115000000Y-98900000D01*
%TO.N,MCU_SPI1_MOSI*%
X113803632Y-87600000D02*
X114000000Y-87600000D01*
X113250000Y-87046368D02*
X113803632Y-87600000D01*
X113250000Y-86175000D02*
X113250000Y-87046368D01*
X113675000Y-93875000D02*
X114100000Y-93875000D01*
X112900000Y-93100000D02*
X113675000Y-93875000D01*
X112900000Y-90300000D02*
X112900000Y-93100000D01*
%TO.N,MCU_SPI1_MISO*%
X115700000Y-93225000D02*
X115100000Y-92625000D01*
X115100000Y-90000000D02*
X115100000Y-90300000D01*
X112750000Y-87650000D02*
X115100000Y-90000000D01*
X112750000Y-86175000D02*
X112750000Y-87650000D01*
X115100000Y-92625000D02*
X115100000Y-90300000D01*
%TO.N,MCU_SPI1_SCK*%
X114100000Y-93225000D02*
X114100000Y-90300000D01*
X112250000Y-88450000D02*
X114100000Y-90300000D01*
X112250000Y-86175000D02*
X112250000Y-88450000D01*
%TO.N,MCU_SPI1_NSS*%
X111750000Y-87050000D02*
X111756620Y-87056620D01*
X111756620Y-87056620D02*
X111756620Y-90956620D01*
X111750000Y-86175000D02*
X111750000Y-87050000D01*
X111756620Y-90956620D02*
X112200000Y-91400000D01*
X112200000Y-91400000D02*
X112200000Y-93500000D01*
X113225000Y-94525000D02*
X114100000Y-94525000D01*
X112200000Y-93500000D02*
X113225000Y-94525000D01*
%TO.N,GPS_PPS*%
X107160000Y-91240000D02*
X107200000Y-91200000D01*
X107160000Y-93970000D02*
X107160000Y-91240000D01*
X108600000Y-88100000D02*
X108600000Y-87500000D01*
X109925000Y-86175000D02*
X110250000Y-86175000D01*
X108600000Y-87500000D02*
X109925000Y-86175000D01*
%TO.N,GPS_NRST*%
X109800000Y-83300000D02*
X109800000Y-81200000D01*
X109350000Y-80750000D02*
X108325000Y-80750000D01*
X109800000Y-81200000D02*
X109350000Y-80750000D01*
X102800000Y-85200000D02*
X104200000Y-83800000D01*
X99800000Y-85200000D02*
X102800000Y-85200000D01*
X98700000Y-86300000D02*
X99800000Y-85200000D01*
X98700000Y-92200000D02*
X98700000Y-86300000D01*
X100470000Y-93970000D02*
X98700000Y-92200000D01*
X101660000Y-93970000D02*
X100470000Y-93970000D01*
%TO.N,GPS_ONOFF*%
X106060000Y-90440000D02*
X106200000Y-90300000D01*
X106060000Y-93970000D02*
X106060000Y-90440000D01*
X108325000Y-86375000D02*
X108325000Y-84250000D01*
X107600000Y-87100000D02*
X108325000Y-86375000D01*
%TO.N,CAN_SILENT*%
X108325000Y-77250000D02*
X106550000Y-77250000D01*
X106550000Y-77250000D02*
X103300000Y-74000000D01*
X103300000Y-74000000D02*
X100300000Y-74000000D01*
X100300000Y-74000000D02*
X98000000Y-71700000D01*
X98000000Y-67580000D02*
X97325000Y-66905000D01*
X98000000Y-71700000D02*
X98000000Y-67580000D01*
D35*
%TO.N,/Miscellaneous/SD_VDD*%
X114000000Y-64520000D02*
X114000000Y-59300000D01*
X113900000Y-59200000D02*
X113900000Y-58150000D01*
X114000000Y-59300000D02*
X113900000Y-59200000D01*
X113900000Y-58150000D02*
X113900000Y-56800000D01*
X113900000Y-56800000D02*
X114400000Y-56300000D01*
X114400000Y-56300000D02*
X115400000Y-56300000D01*
D37*
X115400000Y-56300000D02*
X127087500Y-56300000D01*
%TD*%
M02*
